<svg width="140" height="140" viewBox="0 0 140 140" fill="none" xmlns="http://www.w3.org/2000/svg">
<circle cx="70" cy="70" r="70" fill="#EEFCFA"/>
<circle cx="70" cy="70" r="39.5" fill="white" stroke="black"/>
<circle cx="70" cy="70" r="34" fill="#1B988D"/>
<path fill-rule="evenodd" clip-rule="evenodd" d="M82.4561 60.1703C83.1813 59.4451 83.1813 58.2692 82.4561 57.5439C81.7308 56.8187 80.5549 56.8187 79.8297 57.5439L70 67.3736L60.1703 57.5439C59.4451 56.8187 58.2692 56.8187 57.5439 57.5439C56.8187 58.2692 56.8187 59.4451 57.5439 60.1703L67.3736 70L57.5439 79.8297C56.8187 80.5549 56.8187 81.7308 57.5439 82.4561C58.2692 83.1813 59.4451 83.1813 60.1703 82.4561L70 72.6264L79.8297 82.4561C80.5549 83.1813 81.7308 83.1813 82.4561 82.4561C83.1813 81.7308 83.1813 80.5549 82.4561 79.8297L72.6264 70L82.4561 60.1703ZM72.6264 70L70 67.3736L67.3736 70L70 72.6264L72.6264 70Z" fill="white"/>
<path d="M72.6264 70L70 67.3736L67.3736 70L70 72.6264L72.6264 70Z" fill="white"/>
<path d="M70 67.3736L79.8297 57.5439C80.5549 56.8187 81.7308 56.8187 82.4561 57.5439C83.1813 58.2692 83.1813 59.4451 82.4561 60.1703L72.6264 70M70 67.3736L60.1703 57.5439C59.4451 56.8187 58.2692 56.8187 57.5439 57.5439C56.8187 58.2692 56.8187 59.4451 57.5439 60.1703L67.3736 70M70 67.3736L72.6264 70M70 67.3736L67.3736 70M67.3736 70L57.5439 79.8297C56.8187 80.5549 56.8187 81.7308 57.5439 82.4561C58.2692 83.1813 59.4451 83.1813 60.1703 82.4561L70 72.6264M67.3736 70L70 72.6264M70 72.6264L79.8297 82.4561C80.5549 83.1813 81.7308 83.1813 82.4561 82.4561C83.1813 81.7308 83.1813 80.5549 82.4561 79.8297L72.6264 70M70 72.6264L72.6264 70" stroke="white" stroke-linecap="round" stroke-linejoin="round"/>
</svg>
