<svg width="136" height="160" viewBox="0 0 136 160" fill="none" xmlns="http://www.w3.org/2000/svg">
<path fill-rule="evenodd" clip-rule="evenodd" d="M122.692 12.7203L122.335 12.5953L69.7006 0.196603C69.1924 0.078324 68.6734 0.0124456 68.1517 0H67.8492C67.3269 0.00379137 66.8069 0.0697907 66.3003 0.196603L13.6656 12.5953L13.3091 12.7203C5.54844 15.4398 0.332764 23.3657 0.332764 32.4546V93.1409C0.332764 103.804 4.01718 114.056 11.2797 123.592C16.7979 130.82 24.3986 137.654 33.8508 143.88C42.0747 149.283 50.2801 153.273 55.709 155.652C58.1834 156.743 60.604 157.728 62.9185 158.604C65.8553 159.714 66.6385 160 68.0803 160C69.1781 159.997 70.2611 159.746 71.2486 159.266C75.058 157.906 88.5323 152.825 102.15 143.862C111.62 137.636 119.202 130.82 124.72 123.573C131.983 114.038 135.667 103.804 135.667 93.1225V32.4546C135.667 23.3657 130.452 15.4398 122.692 12.7203V12.7203Z" fill="#EEFCFA"/>
<path d="M96.923 44.9254L96.7345 44.8593L68.8995 38.3025C68.6307 38.2399 68.3562 38.2051 68.0804 38.1985H67.9204C67.6442 38.2005 67.3692 38.2354 67.1013 38.3025L39.2662 44.8593L39.0777 44.9254C34.9736 46.3636 32.2154 50.5551 32.2154 55.3616V87.4546C32.2154 93.0936 34.1638 98.515 38.0045 103.558C40.9228 107.38 44.9423 110.995 49.9409 114.287C54.29 117.144 58.6293 119.254 61.5002 120.513C62.8088 121.09 64.0889 121.61 65.3129 122.074C66.866 122.66 67.2801 122.812 68.0426 122.812C68.6232 122.81 69.1959 122.678 69.7181 122.424C71.7327 121.705 78.8583 119.018 86.06 114.278C91.0677 110.985 95.0776 107.38 97.9958 103.548C101.837 98.5057 103.785 93.0936 103.785 87.4449V55.3616C103.785 50.5551 101.027 46.3636 96.9231 44.9254L96.923 44.9254Z" fill="white" stroke="#3D3D3C" stroke-width="0.448435" stroke-linecap="round" stroke-linejoin="round"/>
<path d="M101.837 38.8802L101.616 38.8029L69.0521 31.132C68.7377 31.0588 68.4166 31.0181 68.0939 31.0104H67.9067C67.5836 31.0127 67.2619 31.0536 66.9484 31.132L34.3841 38.8029L34.1636 38.8803C29.3622 40.5627 26.1353 45.4664 26.1353 51.0896V88.6352C26.1353 95.2323 28.4148 101.575 32.908 107.475C36.3221 111.947 41.0245 116.175 46.8724 120.027C51.9604 123.369 57.037 125.838 60.3957 127.31C61.9266 127.985 63.4242 128.594 64.8562 129.136C66.6731 129.823 67.1577 130 68.0497 130C68.7289 129.998 69.3989 129.843 70.0098 129.546C72.3667 128.704 80.703 125.561 89.1283 120.016C94.9868 116.164 99.6779 111.947 103.092 107.463C107.585 101.564 109.865 95.2323 109.865 88.6239V51.0896C109.865 45.4664 106.638 40.5627 101.837 38.8803V38.8802Z" fill="white"/>
<path fill-rule="evenodd" clip-rule="evenodd" d="M101.837 38.8802L101.616 38.8029L69.0521 31.132C68.7377 31.0588 68.4166 31.0181 68.0939 31.0104H67.9067C67.5836 31.0127 67.2619 31.0536 66.9484 31.132L34.3841 38.8029L34.1636 38.8803C29.3622 40.5627 26.1353 45.4664 26.1353 51.0896V88.6352C26.1353 95.2323 28.4148 101.575 32.908 107.475C36.3221 111.947 41.0245 116.175 46.8724 120.027C51.9604 123.37 57.037 125.838 60.3957 127.31C61.9266 127.985 63.4242 128.594 64.8562 129.136C66.6731 129.823 67.1577 130 68.0497 130C68.7289 129.998 69.3989 129.843 70.0098 129.546C72.3667 128.704 80.703 125.561 89.1283 120.016C94.9868 116.164 99.6779 111.947 103.092 107.463C107.585 101.564 109.865 95.2323 109.865 88.6239V51.0896C109.865 45.4664 106.638 40.5627 101.837 38.8803V38.8802Z" stroke="#3D3D3C" stroke-linecap="round" stroke-linejoin="round"/>
<path d="M96.923 44.9254L96.7345 44.8593L68.8995 38.3025C68.6307 38.2399 68.3562 38.2051 68.0804 38.1985H67.9204C67.6442 38.2005 67.3692 38.2354 67.1013 38.3025L39.2662 44.8593L39.0777 44.9254C34.9736 46.3636 32.2154 50.5551 32.2154 55.3616V87.4546C32.2154 93.0936 34.1638 98.515 38.0045 103.558C40.9228 107.38 44.9423 110.995 49.9409 114.287C54.29 117.144 58.6293 119.254 61.5002 120.513C62.8088 121.09 64.0889 121.61 65.3129 122.074C66.866 122.66 67.2801 122.812 68.0426 122.812C68.6232 122.81 69.1959 122.678 69.7181 122.424C71.7327 121.705 78.8583 119.018 86.06 114.278C91.0677 110.985 95.0776 107.38 97.9958 103.548C101.837 98.5057 103.785 93.0936 103.785 87.4449V55.3616C103.785 50.5551 101.027 46.3636 96.9231 44.9254L96.923 44.9254Z" fill="white"/>
<path fill-rule="evenodd" clip-rule="evenodd" d="M96.923 44.9254L96.7345 44.8593L68.8995 38.3025C68.6307 38.2399 68.3562 38.2051 68.0804 38.1985H67.9204C67.6442 38.2005 67.3692 38.2354 67.1013 38.3025L39.2662 44.8593L39.0777 44.9254C34.9736 46.3636 32.2154 50.5551 32.2154 55.3616V87.4546C32.2154 93.0936 34.1638 98.515 38.0045 103.558C40.9228 107.38 44.9423 110.995 49.9409 114.287C54.29 117.144 58.6293 119.254 61.5002 120.513C62.8088 121.09 64.0889 121.61 65.3129 122.074C66.866 122.66 67.2801 122.812 68.0426 122.812C68.6232 122.81 69.1959 122.678 69.7181 122.424C71.7327 121.705 78.8583 119.018 86.06 114.278C91.0677 110.985 95.0776 107.38 97.9958 103.548C101.837 98.5057 103.785 93.0936 103.785 87.4449V55.3616C103.785 50.5551 101.027 46.3636 96.9231 44.9254L96.923 44.9254Z" fill="#1B988D"/>
<path d="M79.9999 76.5052C79.9999 85.2332 69.8461 95.4872 69.4144 95.9195C69.0392 96.2945 68.5305 96.5051 68.0001 96.5051C67.4697 96.5051 66.961 96.2945 66.5858 95.9195C66.1536 95.487 55.9998 85.2332 55.9998 76.5052C55.9998 73.3226 57.2641 70.2703 59.5145 68.0199C61.765 65.7694 64.8172 64.5051 67.9999 64.5051C71.1825 64.5051 74.2347 65.7694 76.4852 68.0199C78.7356 70.2703 79.9999 73.3226 79.9999 76.5052ZM67.9999 82.5052C69.1865 82.5052 70.3466 82.1533 71.3333 81.494C72.32 80.8347 73.089 79.8976 73.5431 78.8013C73.9973 77.7049 74.1161 76.4985 73.8846 75.3346C73.6531 74.1707 73.0816 73.1016 72.2425 72.2625C71.4034 71.4234 70.3343 70.8519 69.1704 70.6204C68.0065 70.3889 66.8001 70.5077 65.7037 70.9619C64.6074 71.416 63.6703 72.185 63.011 73.1717C62.3517 74.1584 61.9998 75.3185 61.9998 76.5052C61.9998 77.2931 62.155 78.0733 62.4565 78.8013C62.758 79.5293 63.2 80.1907 63.7571 80.7479C64.3143 81.3051 64.9757 81.747 65.7037 82.0485C66.4317 82.35 67.2119 82.5052 67.9999 82.5052Z" fill="white"/>
</svg>
