<svg width="348" height="286" viewBox="0 0 348 286" fill="none" xmlns="http://www.w3.org/2000/svg">
<path opacity="0.15" d="M67.5897 209.561C77.9568 216.589 91.3036 220.935 106.1 221.732C106.107 221.794 106.11 221.857 106.117 221.92C110.64 265.65 160.407 293.534 217.274 284.199C271.435 275.309 312.502 235.864 312.38 194.35C335.308 180.768 349.638 158.804 347.34 136.584C345.88 122.468 337.952 110.62 325.976 102.385C332.204 90.2753 335.083 77.2106 333.725 64.0803C329.202 20.3495 279.435 -7.53412 222.568 1.80049C186.51 7.71934 156.261 27.1831 140.101 51.7818C126.2 49.0771 110.929 48.7896 95.1075 51.3867C38.2404 60.7213 -4.19268 103.739 0.330509 147.47C3.6282 179.352 30.9768 202.806 67.5897 209.561Z" fill="#8CE7DF"/>
<circle opacity="0.87" cx="134.246" cy="152.427" r="35.4351" fill="white"/>
<circle cx="128.31" cy="62.1692" r="7.51373" fill="#8CE7DF"/>
<circle cx="311.236" cy="193.52" r="3.80324" fill="#8CE7DF"/>
<circle opacity="0.3" cx="58.3668" cy="220.143" r="7.51373" fill="#8CE7DF"/>
<path d="M211.841 189.301C247.962 197.82 306.943 176.768 276.045 153.6C276.045 153.6 326.894 154.239 298.329 126.369C298.329 126.369 336.081 113.476 302.295 100.477C302.295 100.477 326.089 77.2489 312.596 69.1666C298.086 60.4748 283.812 87.08 283.812 87.08C283.812 87.08 260.371 67.3397 258.141 99.0086C258.141 99.0086 230.84 83.2563 233.313 119.189C233.313 119.189 192.1 104.339 203.108 160.418C208.868 189.763 211.841 189.301 211.841 189.301Z" fill="#8CE7DF"/>
<mask id="mask0_43_1729" style="mask-type:alpha" maskUnits="userSpaceOnUse" x="201" y="67" width="116" height="125">
<path fill-rule="evenodd" clip-rule="evenodd" d="M211.841 189.301C247.962 197.82 306.943 176.768 276.045 153.6C276.045 153.6 326.894 154.239 298.329 126.369C298.329 126.369 336.081 113.476 302.295 100.477C302.295 100.477 326.089 77.2489 312.596 69.1666C298.086 60.4748 283.812 87.08 283.812 87.08C283.812 87.08 260.371 67.3397 258.141 99.0086C258.141 99.0086 230.84 83.2563 233.313 119.189C233.313 119.189 192.1 104.339 203.108 160.418C208.868 189.763 211.841 189.301 211.841 189.301Z" fill="white"/>
</mask>
<g mask="url(#mask0_43_1729)">
<path d="M203.684 -25.7C260.794 -36.7917 281.503 -5.67342 236.863 23.6885C192.224 53.0504 258.124 32.1318 275.699 31.6866C275.699 31.6866 197.362 54.3674 264.593 61.8592C331.824 69.351 246.39 68.7006 262.783 103.091C279.177 137.48 168.845 87.2641 164.348 84.833C159.85 82.4019 196.059 -12.3114 196.059 -12.3114" fill="#008083"/>
<path d="M208.13 193.761C260.61 143.371 297.976 181.408 265.795 223.714C233.613 266.02 288.817 224.559 305.3 218.308C305.3 218.308 238.928 265.547 305.139 250.24C371.349 234.932 290.255 262.687 317.571 289.437C344.887 316.187 223.222 305.809 218.13 305.026C213.038 304.244 214.82 203.561 214.82 203.561" fill="#008083"/>
</g>
<path fill-rule="evenodd" clip-rule="evenodd" d="M211.841 189.301C247.962 197.82 306.943 176.768 276.045 153.6C276.045 153.6 326.894 154.239 298.329 126.369C298.329 126.369 336.081 113.476 302.295 100.477C302.295 100.477 326.089 77.2489 312.596 69.1666C298.086 60.4748 283.812 87.08 283.812 87.08C283.812 87.08 260.371 67.3397 258.141 99.0086C258.141 99.0086 230.84 83.2563 233.313 119.189C233.313 119.189 192.1 104.339 203.108 160.418C208.868 189.763 211.841 189.301 211.841 189.301Z" stroke="#3D3D3C" stroke-width="0.8" stroke-linecap="round" stroke-linejoin="round"/>
<path d="M301.366 79.3981C297.873 87.6144 218.908 185.271 211.841 189.301V189.301C211.841 189.301 291.395 93.5925 301.366 79.3981Z" fill="#008083"/>
<path d="M268.312 87.4813C269.587 101.409 272.379 106.387 272.379 106.387L268.312 87.4813Z" fill="#008083"/>
<path d="M305.101 109.141C290.996 111.257 286.026 114.309 286.026 114.309L305.101 109.141Z" fill="#008083"/>
<path d="M242.419 101.871C250.181 122.025 256.153 128.344 256.153 128.344L242.419 101.871Z" fill="#CFCFD0"/>
<path d="M219.684 129.136C227.447 149.29 233.418 155.609 233.418 155.609L219.684 129.136Z" fill="#CFCFD0"/>
<path d="M269.258 136.596L297.212 138.64C277.501 134.648 269.258 136.596 269.258 136.596Z" fill="#008083"/>
<path d="M245.796 161.68L273.75 163.724C254.039 159.731 245.796 161.68 245.796 161.68Z" fill="#008083"/>
<path d="M219.184 156.651C219.356 157.844 219.89 158.957 220.712 159.839Z" fill="#F5F6F7"/>
<path d="M219.184 156.651C219.356 157.844 219.89 158.957 220.712 159.839" stroke="#3D3D3C" stroke-width="0.8" stroke-linecap="round" stroke-linejoin="round"/>
<path d="M259.471 148.865L266.875 148.333Z" fill="#F5F6F7"/>
<path d="M259.471 148.865L266.875 148.333" stroke="#3D3D3C" stroke-width="0.8" stroke-linecap="round" stroke-linejoin="round"/>
<path d="M277.918 93.3672C278.033 94.5244 277.904 95.693 277.538 96.797Z" fill="#F5F6F7"/>
<path d="M277.918 93.3672C278.033 94.5244 277.904 95.693 277.538 96.797" stroke="#3D3D3C" stroke-width="0.8" stroke-linecap="round" stroke-linejoin="round"/>
<path d="M234.773 188.859C235.392 189.73 236.243 190.41 237.229 190.822Z" fill="#F5F6F7"/>
<path d="M234.773 188.859C235.392 189.73 236.243 190.41 237.229 190.822" stroke="#3D3D3C" stroke-width="0.8" stroke-linecap="round" stroke-linejoin="round"/>
<path d="M240.813 98.7634L240.443 98.6339L185.918 85.7897C185.391 85.6672 184.854 85.599 184.313 85.5861H184C183.459 85.59 182.92 85.6584 182.395 85.7897L127.87 98.6339L127.5 98.7634C119.461 101.58 114.058 109.791 114.058 119.207V182.073C114.058 193.119 117.875 203.739 125.398 213.618C131.115 221.105 138.988 228.185 148.78 234.634C157.299 240.232 165.8 244.365 171.423 246.83C173.987 247.96 176.494 248.98 178.892 249.888C181.934 251.037 182.746 251.334 184.239 251.334C185.377 251.33 186.498 251.071 187.521 250.574C191.468 249.165 205.426 243.901 219.533 234.616C229.343 228.167 237.197 221.105 242.914 213.599C250.438 203.721 254.254 193.119 254.254 182.054V119.207C254.254 109.791 248.852 101.58 240.813 98.7634L240.813 98.7634Z" fill="white" stroke="#3D3D3C" stroke-width="0.8" stroke-linecap="round" stroke-linejoin="round"/>
<path d="M250.438 81.0246L250.006 80.873L186.217 65.8467C185.601 65.7033 184.972 65.6235 184.34 65.6084H183.973C183.34 65.613 182.71 65.693 182.096 65.8467L118.306 80.873L117.874 81.0246C108.469 84.3203 102.148 93.926 102.148 104.941V178.489C102.148 191.412 106.613 203.836 115.415 215.393C122.102 224.153 131.314 232.435 142.769 239.981C152.736 246.529 162.681 251.364 169.26 254.248C172.259 255.57 175.192 256.763 177.997 257.825C181.557 259.17 182.506 259.517 184.253 259.517C185.584 259.513 186.896 259.209 188.093 258.628C192.71 256.98 209.04 250.822 225.544 239.959C237.02 232.414 246.209 224.153 252.897 215.371C261.699 203.815 266.164 191.412 266.164 178.466V104.941C266.164 93.926 259.844 84.3203 250.438 81.0246V81.0246Z" fill="#4F4F5B" stroke="#3D3D3C" stroke-width="0.8" stroke-linecap="round" stroke-linejoin="round"/>
<path d="M250.438 86.9216L250.006 86.7701L186.217 71.7438C185.601 71.6004 184.972 71.5206 184.34 71.5055H183.973C183.34 71.5101 182.71 71.5901 182.096 71.7438L118.306 86.7701L117.874 86.9217C108.469 90.2174 102.148 99.8231 102.148 110.838V184.386C102.148 197.309 106.613 209.733 115.415 221.29C122.102 230.05 131.314 238.332 142.769 245.878C152.736 252.426 162.681 257.261 169.26 260.145C172.259 261.467 175.192 262.661 177.997 263.722C181.557 265.067 182.506 265.414 184.253 265.414C185.584 265.41 186.896 265.106 188.093 264.525C192.71 262.877 209.04 256.719 225.544 245.856C237.02 238.311 246.209 230.05 252.897 221.268C261.699 209.712 266.164 197.309 266.164 184.363V110.838C266.164 99.8231 259.844 90.2174 250.438 86.9217V86.9216Z" fill="white"/>
<mask id="mask1_43_1729" style="mask-type:alpha" maskUnits="userSpaceOnUse" x="102" y="71" width="165" height="195">
<path fill-rule="evenodd" clip-rule="evenodd" d="M250.438 86.9216L250.006 86.7701L186.217 71.7438C185.601 71.6004 184.972 71.5206 184.34 71.5055H183.973C183.34 71.5101 182.71 71.5901 182.096 71.7438L118.306 86.7701L117.874 86.9217C108.469 90.2174 102.148 99.8231 102.148 110.838V184.386C102.148 197.309 106.613 209.733 115.415 221.29C122.102 230.05 131.314 238.332 142.769 245.878C152.736 252.426 162.681 257.261 169.26 260.145C172.259 261.467 175.192 262.661 177.997 263.722C181.557 265.067 182.506 265.414 184.253 265.414C185.584 265.41 186.896 265.106 188.093 264.525C192.71 262.877 209.04 256.719 225.544 245.856C237.02 238.311 246.209 230.05 252.897 221.268C261.699 209.712 266.164 197.309 266.164 184.363V110.838C266.164 99.8231 259.844 90.2174 250.438 86.9217V86.9216Z" fill="white"/>
</mask>
<g mask="url(#mask1_43_1729)">
<path d="M90.0737 159.041C116.263 228.993 177.802 266.587 205.977 271.112C234.153 275.638 169.477 289.797 169.477 289.797L68.3018 221.457L74.7053 173.946" fill="#CFCFD0"/>
<path d="M170.751 69.6472C259.949 93.4951 266.312 91.5622 270.083 155.924C273.855 220.286 280.258 128.892 280.258 128.892C280.258 128.892 250.663 65.7485 254.254 66.7484C257.846 67.7483 207.898 63.2429 207.898 63.2429L145.63 66.7484" fill="#CFCFD0"/>
</g>
<path fill-rule="evenodd" clip-rule="evenodd" d="M250.438 86.9216L250.006 86.7701L186.217 71.7438C185.601 71.6004 184.972 71.5206 184.34 71.5055H183.973C183.34 71.5101 182.71 71.5901 182.096 71.7438L118.306 86.7701L117.874 86.9217C108.469 90.2174 102.148 99.8231 102.148 110.838V184.386C102.148 197.309 106.613 209.733 115.415 221.29C122.102 230.05 131.314 238.332 142.769 245.878C152.736 252.426 162.681 257.261 169.26 260.145C172.259 261.467 175.192 262.661 177.997 263.722C181.557 265.067 182.506 265.414 184.253 265.414C185.584 265.41 186.896 265.106 188.093 264.525C192.71 262.877 209.04 256.719 225.544 245.856C237.02 238.311 246.209 230.05 252.897 221.268C261.699 209.712 266.164 197.309 266.164 184.363V110.838C266.164 99.8231 259.844 90.2174 250.438 86.9217V86.9216Z" stroke="#3D3D3C" stroke-width="0.8" stroke-linecap="round" stroke-linejoin="round"/>
<path d="M240.813 98.7634L240.443 98.6339L185.918 85.7897C185.391 85.6672 184.854 85.599 184.313 85.5861H184C183.459 85.59 182.92 85.6584 182.395 85.7897L127.87 98.6339L127.5 98.7634C119.461 101.58 114.058 109.791 114.058 119.207V182.073C114.058 193.119 117.875 203.739 125.398 213.618C131.115 221.105 138.988 228.185 148.78 234.634C157.299 240.232 165.8 244.365 171.423 246.83C173.987 247.96 176.494 248.98 178.892 249.888C181.934 251.037 182.746 251.334 184.239 251.334C185.377 251.33 186.498 251.071 187.521 250.574C191.468 249.165 205.426 243.901 219.533 234.616C229.343 228.167 237.197 221.105 242.914 213.599C250.438 203.721 254.254 193.119 254.254 182.054V119.207C254.254 109.791 248.852 101.58 240.813 98.7634L240.813 98.7634Z" fill="white"/>
<mask id="mask2_43_1729" style="mask-type:alpha" maskUnits="userSpaceOnUse" x="114" y="85" width="141" height="167">
<path fill-rule="evenodd" clip-rule="evenodd" d="M240.813 98.7634L240.443 98.6339L185.918 85.7897C185.391 85.6672 184.854 85.599 184.313 85.5861H184C183.459 85.59 182.92 85.6584 182.395 85.7897L127.87 98.6339L127.5 98.7634C119.461 101.58 114.058 109.791 114.058 119.207V182.073C114.058 193.119 117.875 203.739 125.398 213.618C131.115 221.105 138.988 228.185 148.78 234.634C157.299 240.232 165.8 244.365 171.423 246.83C173.987 247.96 176.494 248.98 178.892 249.888C181.934 251.037 182.746 251.334 184.239 251.334C185.377 251.33 186.498 251.071 187.521 250.574C191.468 249.165 205.426 243.901 219.533 234.616C229.343 228.167 237.197 221.105 242.914 213.599C250.438 203.721 254.254 193.119 254.254 182.054V119.207C254.254 109.791 248.852 101.58 240.813 98.7634L240.813 98.7634Z" fill="white"/>
</mask>
<g mask="url(#mask2_43_1729)">
<path d="M182.396 85.7897C114.058 119.207 168.197 245.378 216.437 247.528C264.676 249.678 131.06 263.848 126.73 260.923C122.4 257.998 70.8633 111.514 70.8633 111.514L119.957 64.3157L177.589 62.1703" fill="#CFCFD0"/>
</g>
<path fill-rule="evenodd" clip-rule="evenodd" d="M240.813 98.7634L240.443 98.6339L185.918 85.7897C185.391 85.6672 184.854 85.599 184.313 85.5861H184C183.459 85.59 182.92 85.6584 182.395 85.7897L127.87 98.6339L127.5 98.7634C119.461 101.58 114.058 109.791 114.058 119.207V182.073C114.058 193.119 117.875 203.739 125.398 213.618C131.115 221.105 138.988 228.185 148.78 234.634C157.299 240.232 165.8 244.365 171.423 246.83C173.987 247.96 176.494 248.98 178.892 249.888C181.934 251.037 182.746 251.334 184.239 251.334C185.377 251.33 186.498 251.071 187.521 250.574C191.468 249.165 205.426 243.901 219.533 234.616C229.343 228.167 237.197 221.105 242.914 213.599C250.438 203.721 254.254 193.119 254.254 182.054V119.207C254.254 109.791 248.852 101.58 240.813 98.7634L240.813 98.7634Z" stroke="#3D3D3C" stroke-width="0.8" stroke-linecap="round" stroke-linejoin="round"/>
<path d="M196.766 105.813C200.593 105.216 204.511 105.741 208.046 107.325Z" fill="#F5F6F7"/>
<path d="M196.766 105.813C200.593 105.216 204.511 105.741 208.046 107.325" stroke="#3D3D3C" stroke-width="0.8" stroke-linecap="round" stroke-linejoin="round"/>
<path d="M155.696 214.165C162.294 218.691 169.663 221.977 177.44 223.861" stroke="#3D3D3C" stroke-width="0.8" stroke-linecap="round" stroke-linejoin="round"/>
<rect x="52.1938" y="116.158" width="1.84431" height="4.85239" fill="white" stroke="#3D3D3C" stroke-width="0.8" stroke-linecap="round" stroke-linejoin="round"/>
<rect x="49.8865" y="114.328" width="6.45933" height="2.84229" rx="1.42115" fill="white" stroke="#3D3D3C" stroke-width="0.8" stroke-linecap="round" stroke-linejoin="round"/>
<path d="M62.1536 152.268L63.4577 150.958L66.8714 154.389L65.5673 155.7L62.1536 152.268V152.268Z" fill="white" stroke="#3D3D3C" stroke-width="0.8" stroke-linecap="round" stroke-linejoin="round"/>
<path d="M64.2232 155.619L66.791 153.038C67.0555 152.772 67.4154 152.622 67.7908 152.622C68.1663 152.622 68.5261 152.772 68.7906 153.038V153.038C69.3428 153.594 69.3428 154.492 68.7906 155.048L66.2228 157.629C65.9583 157.895 65.5984 158.045 65.223 158.045C64.8476 158.045 64.4877 157.895 64.2232 157.629V157.629C63.671 157.073 63.671 156.175 64.2232 155.619Z" fill="white" stroke="#3D3D3C" stroke-width="0.8" stroke-linecap="round" stroke-linejoin="round"/>
<path d="M69.2252 134.367L68.5161 132.402L73.6338 130.536L74.343 132.501L69.2252 134.367V134.367Z" fill="white" stroke="#3D3D3C" stroke-width="0.8" stroke-linecap="round" stroke-linejoin="round"/>
<path d="M73.6185 133.843L72.2222 129.974C71.9212 129.143 72.3481 128.225 73.1773 127.921V127.921C73.5755 127.776 74.0148 127.796 74.3981 127.976C74.7814 128.156 75.0771 128.482 75.2199 128.881L76.6162 132.75C76.9171 133.58 76.4902 134.498 75.661 134.803V134.803C75.2629 134.947 74.8236 134.927 74.4402 134.747C74.0569 134.567 73.7612 134.242 73.6185 133.843V133.843Z" fill="white" stroke="#3D3D3C" stroke-width="0.8" stroke-linecap="round" stroke-linejoin="round"/>
<path d="M44.1764 151.961L46.1009 153.156L42.9889 158.22L41.0645 157.025L44.1764 151.961V151.961Z" fill="white" stroke="#3D3D3C" stroke-width="0.8" stroke-linecap="round" stroke-linejoin="round"/>
<path d="M40.7812 155.39L44.5706 157.742C45.3861 158.251 45.638 159.323 45.1346 160.141V160.141C44.8943 160.534 44.5072 160.815 44.0591 160.921C43.6111 161.028 43.1391 160.951 42.7478 160.708L38.9585 158.356C38.143 157.847 37.8911 156.775 38.3945 155.957V155.957C38.6348 155.564 39.0219 155.283 39.4699 155.177C39.918 155.07 40.39 155.147 40.7812 155.39V155.39Z" fill="white" stroke="#3D3D3C" stroke-width="0.8" stroke-linecap="round" stroke-linejoin="round"/>
<path d="M69.2175 145.695L69.662 144.789L72.0226 145.958L71.5781 146.864L69.2175 145.695V145.695Z" fill="white" stroke="#3D3D3C" stroke-width="0.8" stroke-linecap="round" stroke-linejoin="round"/>
<path d="M70.8702 147.06L71.7453 145.275C71.835 145.091 71.9944 144.95 72.1881 144.884C72.3818 144.818 72.5939 144.832 72.7774 144.923V144.923C73.1597 145.113 73.3164 145.577 73.128 145.96L72.253 147.745C72.1633 147.929 72.0039 148.069 71.8102 148.135C71.6165 148.202 71.4044 148.188 71.2209 148.097V148.097C70.8386 147.907 70.6819 147.443 70.8702 147.06Z" fill="white" stroke="#3D3D3C" stroke-width="0.8" stroke-linecap="round" stroke-linejoin="round"/>
<path d="M65.2733 125.544L64.4775 124.927L66.0857 122.833L66.8815 123.451L65.2733 125.544V125.544Z" fill="white" stroke="#3D3D3C" stroke-width="0.8" stroke-linecap="round" stroke-linejoin="round"/>
<path d="M66.9313 124.186L65.3643 122.971C65.0272 122.708 64.9651 122.223 65.2251 121.884V121.884C65.3495 121.722 65.5336 121.615 65.7366 121.589C65.9396 121.563 66.1446 121.619 66.3062 121.744L67.8732 122.96C68.2103 123.222 68.2724 123.708 68.0124 124.047V124.047C67.888 124.209 67.7039 124.315 67.5009 124.342C67.298 124.368 67.0929 124.312 66.9313 124.186Z" fill="white" stroke="#3D3D3C" stroke-width="0.8" stroke-linecap="round" stroke-linejoin="round"/>
<path d="M43.2168 124.367L42.4055 124.964L40.8511 122.83L41.6623 122.233L43.2168 124.367V124.367Z" fill="white" stroke="#3D3D3C" stroke-width="0.8" stroke-linecap="round" stroke-linejoin="round"/>
<path d="M42.3796 122.389L40.7823 123.564C40.6175 123.685 40.411 123.736 40.2088 123.704C40.0066 123.673 39.8253 123.562 39.7051 123.396V123.396C39.4537 123.051 39.5281 122.568 39.8717 122.314L41.4691 121.138C41.6339 121.017 41.8403 120.967 42.0425 120.998C42.2448 121.029 42.4261 121.14 42.5463 121.306V121.306C42.7977 121.651 42.7232 122.135 42.3796 122.389Z" fill="white" stroke="#3D3D3C" stroke-width="0.8" stroke-linecap="round" stroke-linejoin="round"/>
<path d="M37.6249 146.718L38.2288 147.526L36.1246 149.114L35.5208 148.307L37.6249 146.718V146.718Z" fill="white" stroke="#3D3D3C" stroke-width="0.8" stroke-linecap="round" stroke-linejoin="round"/>
<path d="M35.6671 147.584L36.8561 149.174C37.1117 149.517 37.0432 150.001 36.7028 150.259V150.259C36.5395 150.382 36.3337 150.436 36.1311 150.407C35.9285 150.378 35.7458 150.269 35.6236 150.105L34.4346 148.514C34.179 148.172 34.2474 147.688 34.5879 147.43V147.43C34.7512 147.306 34.957 147.253 35.1596 147.282C35.3622 147.311 35.5449 147.42 35.6671 147.584Z" fill="white" stroke="#3D3D3C" stroke-width="0.8" stroke-linecap="round" stroke-linejoin="round"/>
<path d="M37.1218 133.916L36.8183 135.984L31.4326 135.185L31.7361 133.117L37.1218 133.916V133.916Z" fill="white" stroke="#3D3D3C" stroke-width="0.8" stroke-linecap="round" stroke-linejoin="round"/>
<path d="M33.0065 132.282L32.4089 136.354C32.3485 136.773 32.1238 137.151 31.7842 137.405C31.4447 137.658 31.0182 137.767 30.5989 137.705V137.705C29.7257 137.573 29.1242 136.759 29.2543 135.886L29.8518 131.814C29.9122 131.395 30.137 131.017 30.4765 130.763C30.8161 130.509 31.2425 130.401 31.6618 130.463V130.463C32.535 130.595 33.1366 131.408 33.0065 132.282Z" fill="white" stroke="#3D3D3C" stroke-width="0.8" stroke-linecap="round" stroke-linejoin="round"/>
<ellipse cx="53.1161" cy="138.38" rx="17.7533" ry="17.8439" fill="#8CE7DF"/>
<mask id="mask3_43_1729" style="mask-type:alpha" maskUnits="userSpaceOnUse" x="35" y="120" width="36" height="37">
<ellipse cx="53.1161" cy="138.38" rx="17.7533" ry="17.8439" fill="white"/>
</mask>
<g mask="url(#mask3_43_1729)">
<path d="M64.5126 118.995C80.1762 154.905 41.5492 155.951 48.6386 157.133C52.6958 157.81 65.6794 166.658 65.6794 166.658L81.244 149.347L76.6196 118.584L64.5126 114.674" fill="#008083"/>
</g>
<ellipse cx="53.1161" cy="138.38" rx="17.7533" ry="17.8439" stroke="#3D3D3C" stroke-width="0.8" stroke-linecap="round" stroke-linejoin="round"/>
<ellipse cx="44.6771" cy="134.084" rx="3.96152" ry="3.98175" fill="#CFCFD0" stroke="#3D3D3C" stroke-width="0.8" stroke-linecap="round" stroke-linejoin="round"/>
<ellipse cx="59.4579" cy="129.261" rx="3.96152" ry="3.98175" fill="#CFCFD0" stroke="#3D3D3C" stroke-width="0.8" stroke-linecap="round" stroke-linejoin="round"/>
<ellipse cx="57.9999" cy="147.396" rx="3.96152" ry="3.98175" fill="#CFCFD0" stroke="#3D3D3C" stroke-width="0.8" stroke-linecap="round" stroke-linejoin="round"/>
<path d="M47.5525 125.264L46.7483 126.073Z" fill="#F5F6F7"/>
<path d="M47.5525 125.264L46.7483 126.073" stroke="#3D3D3C" stroke-width="0.8" stroke-linecap="round" stroke-linejoin="round"/>
<path d="M65.842 141.833C65.5184 142.706 64.9684 143.477 64.2485 144.068Z" fill="#F5F6F7"/>
<path d="M65.842 141.833C65.5184 142.706 64.9684 143.477 64.2485 144.068" stroke="#3D3D3C" stroke-width="0.8" stroke-linecap="round" stroke-linejoin="round"/>
<rect x="74.9424" y="45.3417" width="74.2067" height="74.5855" rx="7.30304" fill="#8CE7DF" stroke="#3D3D3C" stroke-width="0.8" stroke-linecap="round" stroke-linejoin="round"/>
<rect x="74.9424" y="48.6227" width="74.2067" height="74.5855" rx="7.30304" fill="white"/>
<mask id="mask4_43_1729" style="mask-type:alpha" maskUnits="userSpaceOnUse" x="74" y="48" width="76" height="76">
<rect x="74.9424" y="48.6227" width="74.2067" height="74.5855" rx="7.30304" fill="white"/>
</mask>
<g mask="url(#mask4_43_1729)">
<path d="M70.6591 96.5231C76.2483 120.418 103.103 126.313 142.392 123.208C181.681 120.103 95.0854 136.075 95.0854 136.075L67.5852 128.101" fill="#F5F6F7"/>
</g>
<rect x="74.9424" y="48.6227" width="74.2067" height="74.5855" rx="7.30304" stroke="#3D3D3C" stroke-width="0.8" stroke-linecap="round" stroke-linejoin="round"/>
<path fill-rule="evenodd" clip-rule="evenodd" d="M83.3584 85.9151C83.3584 70.0166 96.2277 57.0817 112.046 57.0817C127.864 57.0817 140.733 70.0166 140.733 85.9151C140.733 101.815 127.864 114.75 112.046 114.75C96.2277 114.75 83.3584 101.815 83.3584 85.9151ZM135.285 85.9151C135.27 73.0524 124.844 62.5738 112.046 62.5566C99.2472 62.5738 88.8215 73.0524 88.8057 85.9151C88.8215 98.7792 99.2474 109.258 112.046 109.274C124.844 109.258 135.27 98.7792 135.285 85.9151Z" fill="#8CE7DF"/>
<path d="M112.046 62.5566L112.046 62.1566L112.045 62.1566L112.046 62.5566ZM135.285 85.9151L135.685 85.9156L135.685 85.9146L135.285 85.9151ZM88.8057 85.9151L88.4057 85.9146L88.4057 85.9156L88.8057 85.9151ZM112.046 109.274L112.046 109.674L112.047 109.674L112.046 109.274ZM112.046 56.6817C96.0048 56.6817 82.9584 69.7976 82.9584 85.9151H83.7584C83.7584 70.2356 96.4505 57.4817 112.046 57.4817V56.6817ZM141.133 85.9151C141.133 69.7976 128.087 56.6817 112.046 56.6817V57.4817C127.641 57.4817 140.333 70.2356 140.333 85.9151H141.133ZM112.046 115.15C128.087 115.15 141.133 102.034 141.133 85.9151H140.333C140.333 101.596 127.641 114.35 112.046 114.35V115.15ZM82.9584 85.9151C82.9584 102.034 96.0048 115.15 112.046 115.15V114.35C96.4505 114.35 83.7584 101.596 83.7584 85.9151H82.9584ZM112.045 62.9566C124.621 62.9735 134.87 73.2716 134.885 85.9156L135.685 85.9146C135.669 72.8333 125.067 62.1741 112.046 62.1566L112.045 62.9566ZM89.2057 85.9156C89.2212 73.2716 99.4701 62.9735 112.046 62.9566L112.045 62.1566C99.0243 62.1741 88.4217 72.8333 88.4057 85.9146L89.2057 85.9156ZM112.047 108.874C99.4703 108.858 89.2212 98.56 89.2057 85.9146L88.4057 85.9156C88.4217 98.9983 99.0245 109.657 112.046 109.674L112.047 108.874ZM134.885 85.9146C134.87 98.56 124.621 108.858 112.046 108.874L112.047 109.674C125.067 109.658 135.669 98.9983 135.685 85.9156L134.885 85.9146Z" fill="#3D3D3C"/>
<path d="M109.189 104.336H114.903V78.0356L126.186 89.3772L126.199 81.2713L112.043 67.0457L97.8962 81.2639V89.3803L109.189 78.0293V104.336V104.336Z" fill="#8CE7DF" stroke="#3D3D3C" stroke-width="0.8" stroke-linecap="round" stroke-linejoin="round"/>
<path d="M97.1223 95.7145C97.5824 97.2714 98.235 98.7648 99.0651 100.16Z" fill="#F5F6F7"/>
<path d="M97.1223 95.7145C97.5824 97.2714 98.235 98.7648 99.0651 100.16" stroke="#3D3D3C" stroke-width="0.8" stroke-linecap="round" stroke-linejoin="round"/>
<path d="M140.59 57.0867C142.483 58.4401 143.539 60.8874 143.229 63.2014Z" fill="#F5F6F7"/>
<path d="M140.59 57.0867C142.483 58.4401 143.539 60.8874 143.229 63.2014" stroke="#3D3D3C" stroke-width="0.8" stroke-linecap="round" stroke-linejoin="round"/>
<path d="M208.196 151.709L212.571 149.761L220.731 146.257L231.274 144.979C232.281 146.737 226.188 147.429 223.168 149.878C221.24 151.442 208.196 158.707 208.196 158.707L208.196 151.709Z" fill="white"/>
<mask id="mask5_43_1729" style="mask-type:alpha" maskUnits="userSpaceOnUse" x="208" y="144" width="24" height="15">
<path fill-rule="evenodd" clip-rule="evenodd" d="M208.196 151.709L212.571 149.761L220.731 146.257L231.274 144.979C232.281 146.737 226.188 147.429 223.168 149.878C221.24 151.442 208.196 158.707 208.196 158.707L208.196 151.709Z" fill="white"/>
</mask>
<g mask="url(#mask5_43_1729)">
<path d="M217.544 158.076C216.416 151.206 213.331 149.187 213.331 149.187C213.331 149.187 212.611 155.096 212.682 155.311C212.752 155.526 216.698 157.013 216.698 157.013" fill="#CFCFD0"/>
</g>
<path fill-rule="evenodd" clip-rule="evenodd" d="M208.196 151.709L212.571 149.761L220.731 146.257L231.274 144.979C232.281 146.737 226.188 147.429 223.168 149.878C221.24 151.442 208.196 158.707 208.196 158.707L208.196 151.709Z" stroke="#3D3D3C" stroke-width="0.8" stroke-linecap="round" stroke-linejoin="round"/>
<path d="M183.519 135.94C188.739 135.879 180.703 151.583 187.969 149.425C195.234 147.267 181.152 158.707 181.152 158.707L176.36 147.819L179.249 139.782" fill="#CFCFD0"/>
<path d="M213.33 149.187C213.33 149.187 217.563 156.469 216.344 160.25L200.24 166.39C197.919 167.606 191.742 166.955 190.316 164.469L173.489 140.773L186.403 133.677L199.279 154.294L213.33 149.187Z" fill="white" stroke="#3D3D3C" stroke-width="0.8" stroke-linecap="round" stroke-linejoin="round"/>
<path d="M137.255 152.683C145.913 146.859 157.958 152.491 157.958 152.491L156.845 146.132C156.845 146.132 141.137 141.93 136.588 146.898L137.255 152.683Z" fill="white" stroke="#3D3D3C" stroke-width="0.8" stroke-linecap="round" stroke-linejoin="round"/>
<path d="M133.819 201.067C141.494 212.298 173.652 212.769 180.039 215.504C186.426 218.239 164.861 197.094 185.467 137.346L169.244 136.262L133.819 201.067Z" fill="white" stroke="#3D3D3C" stroke-width="0.8" stroke-linecap="round" stroke-linejoin="round"/>
<path d="M185.239 114.281L174.776 126.919L183.519 135.94L191.453 121.096L185.239 114.281V114.281Z" fill="white"/>
<mask id="mask6_43_1729" style="mask-type:alpha" maskUnits="userSpaceOnUse" x="174" y="114" width="18" height="22">
<path fill-rule="evenodd" clip-rule="evenodd" d="M185.239 114.281L174.776 126.919L183.519 135.94L191.453 121.096L185.239 114.281V114.281Z" fill="white"/>
</mask>
<g mask="url(#mask6_43_1729)">
<path d="M188.739 135.878C179.352 128.321 188.546 124.949 185.724 118.896C182.902 112.843 194.073 121.655 194.073 121.655C194.073 121.655 193.359 126.891 193.166 127.07C192.973 127.249 188.128 133.135 188.128 133.135" fill="#CFCFD0"/>
</g>
<path fill-rule="evenodd" clip-rule="evenodd" d="M185.239 114.281L174.776 126.919L183.519 135.94L191.453 121.096L185.239 114.281V114.281Z" stroke="#3D3D3C" stroke-width="0.8" stroke-linecap="round" stroke-linejoin="round"/>
<path d="M195.25 112.375L196.358 121.747L188.372 123.814L186.821 119.048L181.093 120.043L180.374 111.365L195.25 112.375V112.375Z" fill="white"/>
<mask id="mask7_43_1729" style="mask-type:alpha" maskUnits="userSpaceOnUse" x="180" y="111" width="17" height="13">
<path fill-rule="evenodd" clip-rule="evenodd" d="M195.25 112.375L196.358 121.747L188.372 123.814L186.821 119.048L181.093 120.043L180.374 111.365L195.25 112.375V112.375Z" fill="white"/>
</mask>
<g mask="url(#mask7_43_1729)">
<path d="M194.572 117.376V117.376C194.399 117.438 194.21 117.429 194.044 117.351C193.879 117.273 193.751 117.132 193.69 116.96L193.295 115.86C193.166 115.501 193.351 115.105 193.71 114.974V114.974C193.882 114.912 194.071 114.921 194.237 114.999C194.402 115.077 194.53 115.218 194.591 115.39L194.986 116.49C195.115 116.849 194.93 117.245 194.572 117.376V117.376Z" fill="#4F4F5B"/>
<path d="M193.505 112.587C191.517 113.209 191.374 114.182 192.642 113.875C193.91 113.567 194.804 112.181 193.505 112.587Z" fill="#4F4F5B"/>
<ellipse opacity="0.27" cx="191.367" cy="118.487" rx="2.1868" ry="2.19796" fill="#CFCFD0"/>
</g>
<path fill-rule="evenodd" clip-rule="evenodd" d="M195.25 112.375L196.358 121.747L188.372 123.814L186.821 119.048L181.093 120.043L180.374 111.365L195.25 112.375V112.375Z" stroke="#3D3D3C" stroke-width="0.8" stroke-linecap="round" stroke-linejoin="round"/>
<path d="M187.659 117.088C187.659 117.088 188.677 117.728 189.437 116.795C190.197 115.862 190.422 111.365 190.422 111.365L180.039 110.607L180.374 119.949L186.02 120.685L184.84 116.695L187.659 117.088Z" fill="#ECEDEE" stroke="#3D3D3C" stroke-width="0.8" stroke-linecap="round" stroke-linejoin="round"/>
<path d="M182.97 113.048H190.422C200.805 112.88 203.712 106.291 192.794 105.137C181.909 103.987 179.857 106.736 180.066 111.365" fill="#ECEDEE"/>
<path d="M182.97 113.048H190.422C200.805 112.88 203.712 106.291 192.794 105.137C181.909 103.987 179.857 106.736 180.066 111.365" stroke="#3D3D3C" stroke-width="0.8" stroke-linecap="round" stroke-linejoin="round"/>
<path d="M175.679 123.875C175.679 123.875 176.595 121.969 178.997 120.975C178.997 120.975 184.908 123.565 186.404 133.676L176.314 124.656L175.679 123.875Z" fill="#4F4F5B" stroke="#3D3D3C" stroke-width="0.8" stroke-linecap="round" stroke-linejoin="round"/>
<path d="M211.879 224.569C212.113 224.923 217.268 241.052 217.268 241.052L226.756 236.343L222.304 215.504L211.879 224.569Z" fill="white"/>
<mask id="mask8_43_1729" style="mask-type:alpha" maskUnits="userSpaceOnUse" x="211" y="215" width="16" height="27">
<path fill-rule="evenodd" clip-rule="evenodd" d="M211.879 224.569C212.113 224.923 217.268 241.052 217.268 241.052L226.756 236.343L222.304 215.504L211.879 224.569Z" fill="white"/>
</mask>
<g mask="url(#mask8_43_1729)">
<path d="M210.991 237.606C215.92 236.848 225.965 228.278 225.965 228.278L213.809 225.991L209.441 233.781" fill="#CFCFD0"/>
</g>
<path fill-rule="evenodd" clip-rule="evenodd" d="M211.879 224.569C212.113 224.923 217.268 241.052 217.268 241.052L226.756 236.343L222.304 215.504L211.879 224.569Z" stroke="#3D3D3C" stroke-width="0.8" stroke-linecap="round" stroke-linejoin="round"/>
<path d="M220.547 245.232L219.418 246.553L220.547 248.176L231.266 244.526V241.052" fill="#4F4F5B"/>
<path d="M220.547 245.232L219.418 246.553L220.547 248.176L231.266 244.526V241.052" stroke="#3D3D3C" stroke-width="0.8" stroke-linecap="round" stroke-linejoin="round"/>
<path d="M216.509 238.685C216.509 238.685 215.349 243.461 219.418 246.553L248.188 237.194C249.286 229.592 230.851 239.898 226.952 232.207L216.509 238.685Z" fill="#4F4F5B" stroke="#3D3D3C" stroke-width="0.8" stroke-linecap="round" stroke-linejoin="round"/>
<path d="M104.664 200.198C104.243 200.16 88.5156 194.108 88.5156 194.108L86.2319 204.485L105.171 214.033L104.664 200.198Z" fill="white"/>
<mask id="mask9_43_1729" style="mask-type:alpha" maskUnits="userSpaceOnUse" x="86" y="194" width="20" height="21">
<path fill-rule="evenodd" clip-rule="evenodd" d="M104.664 200.198C104.243 200.16 88.5156 194.108 88.5156 194.108L86.2319 204.485L105.171 214.033L104.664 200.198Z" fill="white"/>
</mask>
<g mask="url(#mask9_43_1729)">
<path d="M98.7726 192.116C88.1111 204.379 99.5292 216.42 99.5292 216.42L105.171 196.908L91.4509 191.431" fill="#CFCFD0"/>
</g>
<path fill-rule="evenodd" clip-rule="evenodd" d="M104.664 200.198C104.243 200.16 88.5156 194.108 88.5156 194.108L86.2319 204.485L105.171 214.033L104.664 200.198Z" stroke="#3D3D3C" stroke-width="0.8" stroke-linecap="round" stroke-linejoin="round"/>
<path d="M83.224 194.063L82.9064 192.352L80.9423 192.222L77.0679 202.899L79.7604 205.071" fill="#4F4F5B"/>
<path d="M83.224 194.063L82.9064 192.352L80.9423 192.222L77.0679 202.899L79.7604 205.071" stroke="#3D3D3C" stroke-width="0.8" stroke-linecap="round" stroke-linejoin="round"/>
<path d="M91.4509 195.235C91.4509 195.235 87.8485 191.099 82.9066 192.352L72.1672 220.737C77.3738 226.352 80.915 205.468 89.3162 207.225L91.4509 195.235Z" fill="#4F4F5B" stroke="#3D3D3C" stroke-width="0.8" stroke-linecap="round" stroke-linejoin="round"/>
<path d="M146.192 192.355L198.429 190.752L213.166 232.165C213.166 232.165 222.903 233.501 229.745 224.417L215.668 179.901C214.461 176.063 211.232 173.206 207.275 172.476L156.85 163.232L146.192 192.355Z" fill="#8CE7DF"/>
<mask id="mask10_43_1729" style="mask-type:alpha" maskUnits="userSpaceOnUse" x="146" y="163" width="84" height="70">
<path fill-rule="evenodd" clip-rule="evenodd" d="M146.192 192.355L198.429 190.752L213.166 232.165C213.166 232.165 222.903 233.501 229.745 224.417L215.668 179.901C214.461 176.063 211.232 173.206 207.275 172.476L156.85 163.232L146.192 192.355Z" fill="white"/>
</mask>
<g mask="url(#mask10_43_1729)">
<path d="M201.027 228.23C213.166 232.165 231.385 215.736 231.385 215.736Z" fill="#4F4F5B"/>
<path d="M201.027 228.23C213.166 232.165 231.385 215.736 231.385 215.736" stroke="#3D3D3C" stroke-width="0.8" stroke-linecap="round" stroke-linejoin="round"/>
</g>
<path fill-rule="evenodd" clip-rule="evenodd" d="M146.192 192.355L198.429 190.752L213.166 232.165C213.166 232.165 222.903 233.501 229.745 224.417L215.668 179.901C214.461 176.063 211.232 173.206 207.275 172.476L156.85 163.232L146.192 192.355Z" stroke="#3D3D3C" stroke-width="0.8" stroke-linecap="round" stroke-linejoin="round"/>
<path d="M98.9729 197.911C98.9729 197.911 93.5495 205.097 96.2612 215.504L138.424 227.327C144.962 229.161 151.767 225.441 153.788 218.928L168.16 165.305L137.923 161.736L134.965 209.062L98.9729 197.911Z" fill="#8CE7DF"/>
<mask id="mask11_43_1729" style="mask-type:alpha" maskUnits="userSpaceOnUse" x="95" y="161" width="74" height="67">
<path fill-rule="evenodd" clip-rule="evenodd" d="M98.9729 197.911C98.9729 197.911 93.5495 205.097 96.2612 215.504L138.424 227.327C144.962 229.161 151.767 225.441 153.788 218.928L168.16 165.305L137.923 161.736L134.965 209.062L98.9729 197.911Z" fill="white"/>
</mask>
<g mask="url(#mask11_43_1729)">
<path d="M116.716 187.182C144.618 195.964 130.526 166.965 158.428 169C186.33 171.036 129.117 151.843 129.117 151.843L125.171 153.756L118.689 163.232" fill="white"/>
<path d="M116.716 187.182C144.618 195.964 130.526 166.965 158.428 169C186.33 171.036 129.117 151.843 129.117 151.843L125.171 153.756L118.689 163.232" stroke="#3D3D3C" stroke-width="0.8" stroke-linecap="round" stroke-linejoin="round"/>
<path d="M129.718 199.998C134.311 205.418 147.893 206.907 147.893 206.907L155.882 190.763L137.103 194.108" fill="white"/>
<path d="M129.718 199.998C134.311 205.418 147.893 206.907 147.893 206.907L155.882 190.763L137.103 194.108" stroke="#3D3D3C" stroke-width="0.8" stroke-linecap="round" stroke-linejoin="round"/>
<path d="M105.171 197.733C109.745 209.834 139.884 220.314 139.884 220.314L124.924 200.801L114.538 195.706" fill="#008083"/>
<path d="M105.171 197.733C99.6851 200.762 102.182 219.833 102.182 219.833Z" fill="#4F4F5B"/>
<path d="M105.171 197.733C99.6851 200.762 102.182 219.833 102.182 219.833" stroke="#3D3D3C" stroke-width="0.8" stroke-linecap="round" stroke-linejoin="round"/>
</g>
<path fill-rule="evenodd" clip-rule="evenodd" d="M98.9729 197.911C98.9729 197.911 93.5495 205.097 96.2612 215.504L138.424 227.327C144.962 229.161 151.767 225.441 153.788 218.928L168.16 165.305L137.923 161.736L134.965 209.062L98.9729 197.911Z" stroke="#3D3D3C" stroke-width="0.8" stroke-linecap="round" stroke-linejoin="round"/>
<path d="M185.614 133.676C185.614 133.676 182.554 123.021 170.712 123.814C155.06 124.862 144.722 142.778 146.192 162.712C146.192 162.712 154.84 173.896 170.098 166.227C166.284 149.933 186.25 148.693 185.614 133.676Z" fill="#4F4F5B"/>
<mask id="mask12_43_1729" style="mask-type:alpha" maskUnits="userSpaceOnUse" x="146" y="123" width="40" height="46">
<path fill-rule="evenodd" clip-rule="evenodd" d="M185.614 133.676C185.614 133.676 182.554 123.021 170.712 123.814C155.06 124.862 144.722 142.778 146.192 162.712C146.192 162.712 154.84 173.896 170.098 166.227C166.284 149.933 186.25 148.693 185.614 133.676Z" fill="white"/>
</mask>
<g mask="url(#mask12_43_1729)">
<path d="M163.213 139.175C169.928 150.039 170.16 168.449 137.848 163.227C105.536 158.005 166.406 177.456 166.406 177.456C166.406 177.456 174.422 174.435 175.679 174.624C176.935 174.812 185.558 162.005 185.558 162.005C185.558 162.005 184.435 151.065 177.593 135.94C173.806 127.569 162.064 134.021 162.064 134.021" fill="#4F4F5B"/>
<path d="M163.213 139.175C169.928 150.039 170.16 168.449 137.848 163.227C105.536 158.005 166.406 177.456 166.406 177.456C166.406 177.456 174.422 174.435 175.679 174.624C176.935 174.812 185.558 162.005 185.558 162.005C185.558 162.005 184.435 151.065 177.593 135.94C173.806 127.569 162.064 134.021 162.064 134.021" stroke="#3D3D3C" stroke-width="0.8" stroke-linecap="round" stroke-linejoin="round"/>
</g>
<path fill-rule="evenodd" clip-rule="evenodd" d="M185.614 133.676C185.614 133.676 182.554 123.021 170.712 123.814C155.06 124.862 144.722 142.778 146.192 162.712C146.192 162.712 154.84 173.896 170.098 166.227C166.284 149.933 186.25 148.693 185.614 133.676Z" stroke="#3D3D3C" stroke-width="0.8" stroke-linecap="round" stroke-linejoin="round"/>
<path d="M105.171 189.826C111.908 197.6 124.819 213.33 144.443 222.504C144.443 222.504 180.992 162.451 182.64 140.694L184.435 132.976L178.918 122.668C126.921 120.975 152.979 179.44 105.171 189.826Z" fill="white"/>
<mask id="mask13_43_1729" style="mask-type:alpha" maskUnits="userSpaceOnUse" x="105" y="122" width="80" height="101">
<path fill-rule="evenodd" clip-rule="evenodd" d="M105.171 189.826C111.908 197.6 124.819 213.33 144.443 222.504C144.443 222.504 180.992 162.451 182.64 140.694L184.435 132.976L178.918 122.668C126.921 120.975 152.979 179.44 105.171 189.826Z" fill="white"/>
</mask>
<g mask="url(#mask13_43_1729)">
<path d="M163.213 139.175C156.886 138.083 191.486 207.678 164.969 196.095C159.332 193.632 180.586 174.241 163.843 197.733C152.129 214.17 181.863 165.971 181.863 165.971L178.919 144.105L166.427 132.29" fill="#CFCFD0"/>
<path d="M108.673 184.307C122.6 212.707 143.971 225.053 143.971 225.053L93.4304 192.222L95.7016 175.999" fill="#CFCFD0"/>
</g>
<path fill-rule="evenodd" clip-rule="evenodd" d="M105.171 189.826C111.908 197.6 124.819 213.33 144.443 222.504C144.443 222.504 180.992 162.451 182.64 140.694L184.435 132.976L178.918 122.668C126.921 120.975 152.979 179.44 105.171 189.826Z" stroke="#3D3D3C" stroke-width="0.8" stroke-linecap="round" stroke-linejoin="round"/>
<path d="M143.793 161.607L133.819 175.919L149.401 185.404L158.912 169.547L143.793 161.607V161.607Z" fill="#ECEDEE" stroke="#3D3D3C" stroke-width="0.8" stroke-linecap="round" stroke-linejoin="round"/>
<path d="M143.258 160.4C142.839 160.892 140.056 164.901 140.056 164.901L156.871 173.952L159.869 169.282L143.258 160.4Z" fill="white" stroke="#3D3D3C" stroke-width="0.8" stroke-linecap="round" stroke-linejoin="round"/>
<path d="M178.212 121.358C178.212 121.358 173.309 120.597 173.489 123.405L182.564 134.046L180.573 148.496C180.573 148.496 190.414 131.506 178.212 121.358Z" fill="white" stroke="#3D3D3C" stroke-width="0.8" stroke-linecap="round" stroke-linejoin="round"/>
<path d="M136.543 146.952C143.013 155.159 153.793 153.197 153.793 153.197L150.798 158.908C150.798 158.908 136.966 158.383 134.148 152.254L136.543 146.952Z" fill="#ECEDEE" stroke="#3D3D3C" stroke-width="0.8" stroke-linecap="round" stroke-linejoin="round"/>
<path d="M145.806 155.041L151.625 148.143C151.625 148.143 182.803 144.999 186.159 132.157L187.047 133.676C181.611 152.937 155.122 156.053 155.122 156.053L145.806 155.041Z" fill="#4F4F5B" stroke="#3D3D3C" stroke-width="0.8" stroke-linecap="round" stroke-linejoin="round"/>
<path d="M227.369 129.25C227.386 129.235 227.405 129.221 227.422 129.206C227.514 129.131 227.611 129.062 227.711 128.999C227.728 128.989 227.744 128.977 227.761 128.967C227.881 128.896 228.006 128.834 228.136 128.782L228.135 128.782L228.136 128.782L220.682 131.749C220.647 131.763 220.612 131.777 220.578 131.793C220.485 131.835 220.395 131.882 220.307 131.934C220.29 131.944 220.274 131.956 220.257 131.966C220.203 132 220.149 132.032 220.098 132.07C220.053 132.102 220.011 132.138 219.968 132.173C219.95 132.188 219.932 132.201 219.914 132.217C219.814 132.303 219.72 132.397 219.633 132.497C219.614 132.518 219.596 132.541 219.577 132.563C219.485 132.672 219.401 132.788 219.325 132.909L201.541 161.682C201.463 161.81 201.394 161.944 201.334 162.082C201.319 162.118 201.304 162.153 201.289 162.189C201.237 162.317 201.193 162.449 201.156 162.582C201.154 162.592 201.149 162.6 201.147 162.61C201.146 162.613 201.146 162.616 201.145 162.619C201.138 162.646 201.134 162.673 201.127 162.7C201.109 162.779 201.091 162.859 201.078 162.94C201.071 162.98 201.067 163.021 201.062 163.061C201.055 163.114 201.046 163.167 201.041 163.22C201.04 163.231 201.041 163.243 201.04 163.254C201.028 163.403 201.024 163.552 201.029 163.701C201.029 163.71 201.028 163.719 201.028 163.729C201.029 163.754 201.034 163.779 201.035 163.803C201.041 163.914 201.052 164.025 201.066 164.135C201.07 164.159 201.069 164.182 201.073 164.205C201.076 164.225 201.082 164.243 201.085 164.262C201.105 164.385 201.131 164.507 201.162 164.628C201.166 164.644 201.167 164.66 201.172 164.675C201.173 164.679 201.174 164.682 201.175 164.685C201.215 164.831 201.263 164.974 201.318 165.115C201.324 165.13 201.327 165.146 201.333 165.161C201.34 165.179 201.351 165.195 201.358 165.213C201.427 165.38 201.505 165.543 201.594 165.701C201.596 165.703 201.597 165.706 201.598 165.708C201.63 165.764 201.666 165.816 201.7 165.87C201.728 165.914 201.753 165.958 201.782 166.001C201.823 166.06 201.868 166.116 201.912 166.174C201.941 166.211 201.968 166.25 201.998 166.287C202.049 166.349 202.104 166.407 202.159 166.466C202.186 166.495 202.211 166.526 202.239 166.555C202.324 166.64 202.413 166.723 202.506 166.801L222.264 183.439C223.23 184.252 224.403 184.441 225.374 184.054L232.828 181.087C231.857 181.474 230.684 181.285 229.718 180.472L209.96 163.834C209.867 163.756 209.778 163.674 209.694 163.588C209.665 163.558 209.639 163.526 209.611 163.496C209.557 163.438 209.502 163.381 209.452 163.32C209.422 163.283 209.395 163.244 209.366 163.206C209.322 163.149 209.277 163.093 209.236 163.034C209.208 162.992 209.183 162.948 209.156 162.905C209.119 162.848 209.082 162.792 209.048 162.734C208.96 162.576 208.881 162.413 208.812 162.246C208.799 162.213 208.785 162.181 208.772 162.148C208.717 162.007 208.669 161.864 208.629 161.718C208.624 161.699 208.621 161.68 208.616 161.662C208.585 161.54 208.56 161.418 208.539 161.295C208.532 161.253 208.526 161.211 208.521 161.169C208.505 161.058 208.495 160.947 208.489 160.836C208.487 160.802 208.484 160.768 208.483 160.734C208.478 160.585 208.482 160.436 208.494 160.287C208.5 160.223 208.508 160.159 208.516 160.095C208.521 160.054 208.525 160.013 208.532 159.973C208.545 159.892 208.563 159.813 208.581 159.734C208.588 159.707 208.592 159.679 208.599 159.652C208.602 159.64 208.607 159.628 208.61 159.615C208.647 159.482 208.691 159.351 208.743 159.222C208.758 159.186 208.773 159.151 208.788 159.115C208.848 158.977 208.917 158.843 208.995 158.715L226.779 129.942C226.855 129.821 226.939 129.706 227.031 129.596C227.05 129.574 227.068 129.551 227.087 129.53C227.174 129.43 227.268 129.336 227.369 129.25Z" fill="#8CE7DF"/>
<path fill-rule="evenodd" clip-rule="evenodd" d="M227.369 129.25C227.386 129.235 227.405 129.221 227.422 129.206C227.514 129.131 227.611 129.062 227.711 128.999C227.728 128.989 227.744 128.977 227.761 128.967C227.881 128.896 228.006 128.834 228.136 128.782L228.135 128.782L228.136 128.782L220.682 131.749C220.647 131.763 220.612 131.777 220.578 131.793C220.485 131.835 220.395 131.882 220.307 131.934C220.29 131.944 220.274 131.956 220.257 131.966C220.203 132 220.149 132.032 220.098 132.07C220.053 132.102 220.011 132.138 219.968 132.173C219.95 132.188 219.932 132.201 219.914 132.217C219.814 132.303 219.72 132.397 219.633 132.497C219.614 132.518 219.596 132.541 219.577 132.563C219.485 132.672 219.401 132.788 219.325 132.909L201.541 161.682C201.463 161.81 201.394 161.944 201.334 162.082C201.319 162.118 201.304 162.153 201.289 162.189C201.237 162.317 201.193 162.449 201.156 162.582C201.154 162.592 201.149 162.6 201.147 162.61C201.146 162.613 201.146 162.616 201.145 162.619C201.138 162.646 201.134 162.673 201.127 162.7C201.109 162.779 201.091 162.859 201.078 162.94C201.071 162.98 201.067 163.021 201.062 163.061C201.055 163.114 201.046 163.167 201.041 163.22C201.04 163.231 201.041 163.243 201.04 163.254C201.028 163.403 201.024 163.552 201.029 163.701C201.029 163.71 201.028 163.719 201.028 163.729C201.029 163.754 201.034 163.779 201.035 163.803C201.041 163.914 201.052 164.025 201.066 164.135C201.07 164.159 201.069 164.182 201.073 164.205C201.076 164.225 201.082 164.243 201.085 164.262C201.105 164.385 201.131 164.507 201.162 164.628C201.166 164.644 201.167 164.66 201.172 164.675C201.173 164.679 201.174 164.682 201.175 164.685C201.215 164.831 201.263 164.974 201.318 165.115C201.324 165.13 201.327 165.146 201.333 165.161C201.34 165.179 201.351 165.195 201.358 165.213C201.427 165.38 201.505 165.543 201.594 165.701C201.596 165.703 201.597 165.706 201.598 165.708C201.63 165.764 201.666 165.816 201.7 165.87C201.728 165.914 201.753 165.958 201.782 166.001C201.823 166.06 201.868 166.116 201.912 166.174C201.941 166.211 201.968 166.25 201.998 166.287C202.049 166.349 202.104 166.407 202.159 166.466C202.186 166.495 202.211 166.526 202.239 166.555C202.324 166.64 202.413 166.723 202.506 166.801L222.264 183.439C223.23 184.252 224.403 184.441 225.374 184.054L232.828 181.087C231.857 181.474 230.684 181.285 229.718 180.472L209.96 163.834C209.867 163.756 209.778 163.674 209.694 163.588C209.665 163.558 209.639 163.526 209.611 163.496C209.557 163.438 209.502 163.381 209.452 163.32C209.422 163.283 209.395 163.244 209.366 163.206C209.322 163.149 209.277 163.093 209.236 163.034C209.208 162.992 209.183 162.948 209.156 162.905C209.119 162.848 209.082 162.792 209.048 162.734C208.96 162.576 208.881 162.413 208.812 162.246C208.799 162.213 208.785 162.181 208.772 162.148C208.717 162.007 208.669 161.864 208.629 161.718C208.624 161.699 208.621 161.68 208.616 161.662C208.585 161.54 208.56 161.418 208.539 161.295C208.532 161.253 208.526 161.211 208.521 161.169C208.505 161.058 208.495 160.947 208.489 160.836C208.487 160.802 208.484 160.768 208.483 160.734C208.478 160.585 208.482 160.436 208.494 160.287C208.5 160.223 208.508 160.159 208.516 160.095C208.521 160.054 208.525 160.013 208.532 159.973C208.545 159.892 208.563 159.813 208.581 159.734C208.588 159.707 208.592 159.679 208.599 159.652C208.602 159.64 208.607 159.628 208.61 159.615C208.647 159.482 208.691 159.351 208.743 159.222C208.758 159.186 208.773 159.151 208.788 159.115C208.848 158.977 208.917 158.843 208.995 158.715L226.779 129.942C226.855 129.821 226.939 129.706 227.031 129.596C227.05 129.574 227.068 129.551 227.087 129.53C227.174 129.43 227.268 129.336 227.369 129.25Z" stroke="#3D3D3C" stroke-width="0.8" stroke-linecap="round" stroke-linejoin="round"/>
<path d="M226.779 129.942C227.746 128.377 229.746 128.134 231.246 129.397L251.004 146.035C252.503 147.298 252.936 149.589 251.969 151.154L234.185 179.927C233.218 181.492 231.218 181.735 229.719 180.472L209.96 163.834C208.461 162.572 208.028 160.28 208.995 158.715L226.779 129.942Z" fill="white"/>
<path fill-rule="evenodd" clip-rule="evenodd" d="M226.779 129.942C227.746 128.377 229.746 128.134 231.246 129.397L251.004 146.035C252.503 147.298 252.936 149.589 251.969 151.154L234.185 179.927C233.218 181.492 231.218 181.735 229.719 180.472L209.96 163.834C208.461 162.572 208.028 160.28 208.995 158.715L226.779 129.942Z" stroke="#3D3D3C" stroke-width="0.8" stroke-linecap="round" stroke-linejoin="round"/>
<path d="M213.207 137.739C212.845 137.434 212.407 137.364 212.045 137.508L210.093 138.285C210.455 138.141 210.893 138.211 211.255 138.516L214.116 140.926C214.171 140.972 214.216 141.026 214.252 141.088C214.252 141.089 214.253 141.091 214.254 141.092C214.257 141.096 214.258 141.1 214.26 141.105C214.274 141.13 214.287 141.156 214.297 141.184C214.3 141.191 214.302 141.199 214.304 141.206C214.312 141.23 214.319 141.255 214.324 141.28C214.326 141.287 214.328 141.294 214.329 141.301C214.334 141.331 214.337 141.362 214.338 141.393C214.338 141.399 214.338 141.406 214.338 141.412C214.338 141.436 214.336 141.459 214.333 141.483C214.331 141.496 214.329 141.51 214.326 141.523C214.323 141.539 214.319 141.553 214.314 141.568C214.302 141.612 214.284 141.654 214.261 141.693L210.078 148.46L212.031 147.683L216.214 140.916C216.237 140.877 216.254 140.835 216.266 140.791C216.268 140.786 216.272 140.781 216.273 140.776C216.275 140.766 216.276 140.756 216.278 140.746C216.281 140.733 216.283 140.719 216.285 140.706C216.286 140.698 216.288 140.692 216.289 140.684C216.29 140.668 216.29 140.651 216.29 140.635C216.29 140.628 216.291 140.622 216.291 140.616C216.291 140.613 216.291 140.611 216.291 140.608C216.29 140.585 216.288 140.561 216.284 140.537C216.283 140.533 216.282 140.528 216.281 140.524C216.28 140.517 216.278 140.51 216.277 140.503C216.274 140.491 216.272 140.479 216.269 140.467C216.266 140.454 216.261 140.442 216.257 140.429C216.254 140.422 216.252 140.414 216.249 140.406C216.248 140.403 216.247 140.399 216.245 140.395C216.236 140.372 216.225 140.349 216.213 140.328C216.21 140.324 216.209 140.319 216.207 140.315L216.206 140.313C216.205 140.312 216.204 140.312 216.204 140.311C216.169 140.249 216.123 140.194 216.069 140.149L213.207 137.739Z" fill="#4F4F5B" stroke="#3D3D3C" stroke-width="0.8" stroke-linecap="round" stroke-linejoin="round"/>
<path d="M210.525 135.623C210.591 135.548 210.661 135.478 210.737 135.412C210.75 135.401 210.764 135.391 210.778 135.38C210.827 135.339 210.88 135.304 210.933 135.268C211.008 135.218 211.085 135.174 211.166 135.134C211.215 135.11 211.262 135.081 211.313 135.061L209.361 135.838C209.334 135.849 209.308 135.86 209.282 135.871C209.258 135.882 209.237 135.899 209.213 135.911C209.133 135.951 209.055 135.996 208.981 136.045C208.962 136.058 208.94 136.066 208.921 136.08C208.888 136.104 208.857 136.131 208.825 136.157C208.812 136.168 208.798 136.178 208.784 136.189C208.709 136.255 208.638 136.325 208.573 136.4C208.559 136.416 208.546 136.432 208.532 136.449C208.463 136.531 208.4 136.617 208.343 136.708L204.16 143.476C204.101 143.572 204.05 143.672 204.005 143.776C203.993 143.802 203.982 143.829 203.971 143.856C203.933 143.951 203.9 144.049 203.872 144.148C203.87 144.156 203.867 144.163 203.865 144.17C203.864 144.172 203.864 144.174 203.864 144.176C203.829 144.312 203.805 144.452 203.792 144.592C203.79 144.604 203.786 144.616 203.785 144.629C203.785 144.637 203.785 144.646 203.785 144.655C203.775 144.767 203.773 144.88 203.776 144.992C203.776 144.999 203.775 145.005 203.775 145.012C203.776 145.03 203.78 145.049 203.781 145.067C203.785 145.151 203.793 145.235 203.804 145.319C203.807 145.337 203.807 145.354 203.809 145.371C203.812 145.386 203.816 145.4 203.818 145.414C203.834 145.507 203.853 145.599 203.876 145.69C203.879 145.702 203.881 145.714 203.884 145.726C203.885 145.728 203.886 145.731 203.886 145.733C203.917 145.843 203.952 145.951 203.994 146.057C203.998 146.068 204.001 146.08 204.006 146.092C204.011 146.105 204.019 146.118 204.024 146.131C204.076 146.257 204.135 146.38 204.202 146.498C204.203 146.5 204.204 146.503 204.205 146.505C204.229 146.546 204.256 146.585 204.282 146.626C204.302 146.658 204.321 146.692 204.343 146.724C204.373 146.767 204.406 146.808 204.437 146.849C204.46 146.879 204.482 146.91 204.505 146.939C204.543 146.985 204.584 147.028 204.625 147.071C204.646 147.094 204.665 147.118 204.687 147.14C204.75 147.204 204.817 147.266 204.887 147.325L208.356 150.246C208.689 150.534 209.092 150.73 209.524 150.815C209.917 150.891 210.324 150.854 210.696 150.707L212.649 149.93C211.917 150.221 211.034 150.08 210.308 149.469L206.839 146.548C206.769 146.489 206.702 146.427 206.639 146.363C206.617 146.341 206.598 146.317 206.578 146.295C206.537 146.251 206.496 146.208 206.458 146.162C206.434 146.133 206.413 146.102 206.391 146.073C206.358 146.031 206.325 145.99 206.296 145.946C206.274 145.915 206.255 145.882 206.234 145.849C206.207 145.807 206.179 145.765 206.154 145.721C206.088 145.603 206.028 145.48 205.977 145.354C205.967 145.329 205.956 145.305 205.946 145.28C205.905 145.174 205.869 145.066 205.839 144.956C205.835 144.942 205.832 144.927 205.829 144.913C205.805 144.822 205.786 144.73 205.771 144.637C205.765 144.606 205.761 144.574 205.757 144.542C205.745 144.458 205.737 144.374 205.733 144.29C205.731 144.265 205.729 144.24 205.728 144.215C205.725 144.102 205.728 143.99 205.737 143.878C205.739 143.857 205.742 143.836 205.744 143.815C205.757 143.674 205.782 143.535 205.816 143.399C205.819 143.389 205.822 143.38 205.825 143.37C205.852 143.271 205.885 143.174 205.924 143.079C205.934 143.052 205.945 143.025 205.957 142.999C206.002 142.895 206.053 142.795 206.112 142.699L210.295 135.931C210.352 135.84 210.415 135.753 210.484 135.671C210.498 135.655 210.511 135.638 210.525 135.623Z" fill="#4F4F5B"/>
<path fill-rule="evenodd" clip-rule="evenodd" d="M210.525 135.623C210.591 135.548 210.661 135.478 210.737 135.412C210.75 135.401 210.764 135.391 210.778 135.38C210.827 135.339 210.88 135.304 210.933 135.268C211.008 135.218 211.085 135.174 211.166 135.134C211.215 135.11 211.262 135.081 211.313 135.061L209.361 135.838C209.334 135.849 209.308 135.86 209.282 135.871C209.258 135.882 209.237 135.899 209.213 135.911C209.133 135.951 209.055 135.996 208.981 136.045C208.962 136.058 208.94 136.066 208.921 136.08C208.888 136.104 208.857 136.131 208.825 136.157C208.812 136.168 208.798 136.178 208.784 136.189C208.709 136.255 208.638 136.325 208.573 136.4C208.559 136.416 208.546 136.432 208.532 136.449C208.463 136.531 208.4 136.617 208.343 136.708L204.16 143.476C204.101 143.572 204.05 143.672 204.005 143.776C203.993 143.802 203.982 143.829 203.971 143.856C203.933 143.951 203.9 144.049 203.872 144.148C203.87 144.156 203.867 144.163 203.865 144.17C203.864 144.172 203.864 144.174 203.864 144.176C203.829 144.312 203.805 144.452 203.792 144.592C203.79 144.604 203.786 144.616 203.785 144.629C203.785 144.637 203.785 144.646 203.785 144.655C203.775 144.767 203.773 144.88 203.776 144.992C203.776 144.999 203.775 145.005 203.775 145.012C203.776 145.03 203.78 145.049 203.781 145.067C203.785 145.151 203.793 145.235 203.804 145.319C203.807 145.337 203.807 145.354 203.809 145.371C203.812 145.386 203.816 145.4 203.818 145.414C203.834 145.507 203.853 145.599 203.876 145.69C203.879 145.702 203.881 145.714 203.884 145.726C203.885 145.728 203.886 145.731 203.886 145.733C203.917 145.843 203.952 145.951 203.994 146.057C203.998 146.068 204.001 146.08 204.006 146.092C204.011 146.105 204.019 146.118 204.024 146.131C204.076 146.257 204.135 146.38 204.202 146.498C204.203 146.5 204.204 146.503 204.205 146.505C204.229 146.546 204.256 146.585 204.282 146.626C204.302 146.658 204.321 146.692 204.343 146.724C204.373 146.767 204.406 146.808 204.437 146.849C204.46 146.879 204.482 146.91 204.505 146.939C204.543 146.985 204.584 147.028 204.625 147.071C204.646 147.094 204.665 147.118 204.687 147.14C204.75 147.204 204.817 147.266 204.887 147.325L208.356 150.246C208.689 150.534 209.092 150.73 209.524 150.815C209.917 150.891 210.324 150.854 210.696 150.707L212.649 149.93C211.917 150.221 211.034 150.08 210.308 149.469L206.839 146.548C206.769 146.489 206.702 146.427 206.639 146.363C206.617 146.341 206.598 146.317 206.578 146.295C206.537 146.251 206.496 146.208 206.458 146.162C206.434 146.133 206.413 146.102 206.391 146.073C206.358 146.031 206.325 145.99 206.296 145.946C206.274 145.915 206.255 145.882 206.234 145.849C206.207 145.807 206.179 145.765 206.154 145.721C206.088 145.603 206.028 145.48 205.977 145.354C205.967 145.329 205.956 145.305 205.946 145.28C205.905 145.174 205.869 145.066 205.839 144.956C205.835 144.942 205.832 144.927 205.829 144.913C205.805 144.822 205.786 144.73 205.771 144.637C205.765 144.606 205.761 144.574 205.757 144.542C205.745 144.458 205.737 144.374 205.733 144.29C205.731 144.265 205.729 144.24 205.728 144.215C205.725 144.102 205.728 143.99 205.737 143.878C205.739 143.857 205.742 143.836 205.744 143.815C205.757 143.674 205.782 143.535 205.816 143.399C205.819 143.389 205.822 143.38 205.825 143.37C205.852 143.271 205.885 143.174 205.924 143.079C205.934 143.052 205.945 143.025 205.957 142.999C206.002 142.895 206.053 142.795 206.112 142.699L210.295 135.931C210.352 135.84 210.415 135.753 210.484 135.671C210.498 135.655 210.511 135.638 210.525 135.623Z" stroke="#3D3D3C" stroke-width="0.8" stroke-linecap="round" stroke-linejoin="round"/>
<path d="M210.078 148.46C210.05 148.505 210.014 148.545 209.971 148.577C209.942 148.601 209.909 148.621 209.874 148.636L211.827 147.859C211.832 147.856 211.837 147.854 211.842 147.852C211.867 147.841 211.891 147.827 211.914 147.811C211.917 147.808 211.92 147.803 211.923 147.8C211.966 147.768 212.002 147.728 212.031 147.683L210.078 148.46Z" fill="#4F4F5B" stroke="#3D3D3C" stroke-width="0.8" stroke-linecap="round" stroke-linejoin="round"/>
<path fill-rule="evenodd" clip-rule="evenodd" d="M213.653 135.523C212.527 134.574 211.02 134.758 210.295 135.931L206.112 142.699C205.386 143.872 205.713 145.6 206.839 146.548L210.308 149.469C211.434 150.418 212.941 150.234 213.666 149.061L217.849 142.293C218.575 141.119 218.249 139.392 217.122 138.444L213.653 135.523ZM213.207 137.739L216.069 140.149C216.294 140.337 216.355 140.658 216.214 140.916L212.031 147.683C211.885 147.919 211.588 147.956 211.361 147.765L208.499 145.355C207.939 144.882 207.777 144.028 208.137 143.446L211.541 137.939C211.901 137.357 212.646 137.266 213.207 137.739Z" fill="#4F4F5B"/>
<path d="M210.295 135.931L209.954 135.721L209.954 135.721L210.295 135.931ZM213.653 135.523L213.396 135.829L213.396 135.829L213.653 135.523ZM206.112 142.699L206.452 142.909L206.452 142.909L206.112 142.699ZM206.839 146.548L206.581 146.854L206.581 146.854L206.839 146.548ZM210.308 149.469L210.565 149.163L210.565 149.163L210.308 149.469ZM213.666 149.061L214.007 149.271L214.007 149.271L213.666 149.061ZM217.849 142.293L218.19 142.503L218.19 142.503L217.849 142.293ZM217.122 138.444L217.38 138.138L217.38 138.138L217.122 138.444ZM216.069 140.149L215.811 140.455L215.812 140.456L216.069 140.149ZM213.207 137.739L213.465 137.433L213.465 137.433L213.207 137.739ZM216.214 140.916L216.554 141.126C216.558 141.12 216.561 141.114 216.564 141.108L216.214 140.916ZM212.031 147.683L211.69 147.473L211.69 147.473L212.031 147.683ZM211.361 147.765L211.619 147.459L211.619 147.459L211.361 147.765ZM208.499 145.355L208.242 145.661L208.242 145.661L208.499 145.355ZM208.137 143.446L208.477 143.657L208.477 143.657L208.137 143.446ZM211.541 137.939L211.201 137.728L211.201 137.728L211.541 137.939ZM210.635 136.142C211.216 135.201 212.432 135.017 213.396 135.829L213.911 135.217C212.622 134.131 210.824 134.314 209.954 135.721L210.635 136.142ZM206.452 142.909L210.635 136.142L209.954 135.721L205.772 142.489L206.452 142.909ZM207.096 146.242C206.107 145.408 205.841 143.897 206.452 142.909L205.772 142.489C204.932 143.847 205.319 145.791 206.581 146.854L207.096 146.242ZM210.565 149.163L207.096 146.242L206.581 146.854L210.05 149.775L210.565 149.163ZM213.326 148.85C212.745 149.791 211.529 149.974 210.565 149.163L210.05 149.775C211.339 150.861 213.137 150.678 214.007 149.271L213.326 148.85ZM217.509 142.083L213.326 148.85L214.007 149.271L218.19 142.503L217.509 142.083ZM216.865 138.75C217.855 139.583 218.12 141.094 217.509 142.083L218.19 142.503C219.03 141.144 218.643 139.201 217.38 138.138L216.865 138.75ZM213.396 135.829L216.865 138.75L217.38 138.138L213.911 135.217L213.396 135.829ZM216.326 139.843L213.465 137.433L212.949 138.045L215.811 140.455L216.326 139.843ZM216.564 141.108C216.797 140.683 216.697 140.152 216.325 139.842L215.812 140.456C215.891 140.521 215.912 140.633 215.863 140.723L216.564 141.108ZM212.371 147.893L216.554 141.126L215.873 140.705L211.69 147.473L212.371 147.893ZM211.104 148.071C211.293 148.23 211.533 148.311 211.775 148.281C212.019 148.251 212.236 148.112 212.371 147.893L211.69 147.473C211.684 147.484 211.679 147.487 211.679 147.487C211.679 147.487 211.679 147.487 211.678 147.487C211.677 147.487 211.672 147.488 211.663 147.485C211.653 147.482 211.638 147.475 211.619 147.459L211.104 148.071ZM208.242 145.661L211.104 148.071L211.619 147.459L208.757 145.049L208.242 145.661ZM207.797 143.236C207.322 144.004 207.545 145.074 208.242 145.661L208.757 145.049C208.332 144.691 208.232 144.053 208.477 143.657L207.797 143.236ZM211.201 137.728L207.797 143.236L208.477 143.657L211.881 138.149L211.201 137.728ZM213.465 137.433C212.742 136.824 211.705 136.913 211.201 137.728L211.881 138.149C212.096 137.801 212.551 137.709 212.949 138.045L213.465 137.433Z" fill="#3D3D3C"/>
<path d="M233.675 145.136C233.689 145.125 233.704 145.115 233.718 145.105C233.748 145.085 233.78 145.067 233.812 145.051C233.832 145.041 233.851 145.029 233.872 145.021L233.871 145.022L233.872 145.021L232.984 145.375C232.974 145.379 232.963 145.383 232.953 145.388C232.943 145.392 232.934 145.399 232.925 145.404C232.892 145.42 232.861 145.438 232.831 145.458C232.823 145.463 232.815 145.466 232.807 145.472C232.8 145.477 232.794 145.484 232.788 145.489C232.759 145.512 232.732 145.535 232.707 145.561C232.695 145.573 232.683 145.584 232.671 145.596C232.634 145.637 232.601 145.681 232.572 145.727L230.137 149.667L231.024 149.314L233.46 145.374C233.489 145.327 233.522 145.284 233.559 145.243C233.57 145.23 233.582 145.22 233.594 145.208C233.62 145.182 233.647 145.158 233.675 145.136V145.136Z" fill="white" stroke="#3D3D3C" stroke-width="0.8" stroke-linecap="round" stroke-linejoin="round"/>
<path d="M225.889 146.295C226.182 145.82 226.787 145.746 227.243 146.13L231.024 149.314L233.46 145.374C233.753 144.899 234.358 144.825 234.812 145.207L237.774 147.701C238.227 148.083 238.358 148.777 238.064 149.252L235.629 153.192L239.413 156.378C239.866 156.76 239.997 157.453 239.703 157.928L237.797 161.012C237.505 161.485 236.9 161.559 236.447 161.177L232.663 157.991L230.226 161.933C229.934 162.406 229.329 162.48 228.876 162.098L225.914 159.604C225.46 159.222 225.329 158.528 225.621 158.056L228.058 154.113L224.277 150.929C223.821 150.545 223.69 149.852 223.982 149.379L225.889 146.295Z" fill="#8CE7DF"/>
<path fill-rule="evenodd" clip-rule="evenodd" d="M225.889 146.295C226.182 145.82 226.787 145.746 227.243 146.13L231.024 149.314L233.46 145.374C233.753 144.899 234.358 144.825 234.812 145.207L237.774 147.701C238.227 148.083 238.358 148.777 238.064 149.252L235.629 153.192L239.413 156.378C239.866 156.76 239.997 157.453 239.703 157.928L237.797 161.012C237.505 161.485 236.9 161.559 236.447 161.177L232.663 157.991L230.226 161.933C229.934 162.406 229.329 162.48 228.876 162.098L225.914 159.604C225.46 159.222 225.329 158.528 225.621 158.056L228.058 154.113L224.277 150.929C223.821 150.545 223.69 149.852 223.982 149.379L225.889 146.295Z" stroke="#3D3D3C" stroke-width="0.8" stroke-linecap="round" stroke-linejoin="round"/>
<path d="M236.447 161.177L232.663 157.991L231.776 158.344L235.559 161.53C235.814 161.762 236.176 161.834 236.5 161.716L237.387 161.363C237.064 161.481 236.701 161.409 236.447 161.177V161.177Z" fill="white" stroke="#3D3D3C" stroke-width="0.8" stroke-linecap="round" stroke-linejoin="round"/>
<path d="M226.104 146.057C226.118 146.046 226.132 146.036 226.147 146.026C226.177 146.006 226.208 145.988 226.24 145.972C226.26 145.962 226.28 145.951 226.3 145.943L226.299 145.943L226.3 145.943L225.413 146.296C225.402 146.3 225.392 146.304 225.381 146.309C225.371 146.313 225.363 146.321 225.353 146.325C225.321 146.341 225.29 146.359 225.259 146.379C225.252 146.385 225.243 146.388 225.236 146.393C225.229 146.398 225.223 146.405 225.216 146.41C225.188 146.433 225.161 146.457 225.135 146.482C225.124 146.494 225.111 146.505 225.1 146.517C225.063 146.558 225.03 146.602 225.001 146.648L223.095 149.732C223.063 149.785 223.036 149.842 223.014 149.9C223.008 149.917 223.002 149.934 222.997 149.951C222.99 149.971 222.981 149.991 222.976 150.012C222.971 150.032 222.969 150.053 222.965 150.074C222.96 150.101 222.955 150.128 222.951 150.155C222.949 150.169 222.945 150.182 222.944 150.196C222.941 150.231 222.941 150.266 222.941 150.302C222.941 150.314 222.94 150.325 222.94 150.338C222.941 150.342 222.94 150.346 222.94 150.35C222.942 150.398 222.946 150.446 222.954 150.494C222.955 150.504 222.958 150.513 222.96 150.523C222.963 150.538 222.966 150.553 222.969 150.568C222.974 150.59 222.978 150.613 222.984 150.636C222.991 150.663 223.001 150.689 223.01 150.716C223.015 150.731 223.02 150.746 223.025 150.761C223.028 150.769 223.03 150.776 223.033 150.783C223.052 150.831 223.075 150.878 223.1 150.923C223.104 150.931 223.107 150.939 223.112 150.947L223.113 150.949C223.137 150.989 223.164 151.027 223.192 151.064C223.207 151.084 223.219 151.106 223.235 151.126C223.282 151.182 223.333 151.235 223.39 151.282L227.171 154.466L224.734 158.409C224.702 158.462 224.674 158.518 224.653 158.577C224.646 158.593 224.641 158.61 224.636 158.628C224.629 158.648 224.62 158.668 224.615 158.689C224.61 158.709 224.608 158.73 224.604 158.75C224.599 158.778 224.593 158.804 224.59 158.832C224.588 158.846 224.584 158.859 224.583 158.873C224.58 158.908 224.58 158.943 224.58 158.977C224.58 158.99 224.579 159.002 224.579 159.015C224.579 159.019 224.579 159.023 224.579 159.027C224.581 159.075 224.585 159.124 224.593 159.171C224.594 159.181 224.597 159.19 224.598 159.2C224.601 159.215 224.605 159.229 224.608 159.244C224.613 159.267 224.616 159.291 224.622 159.314C224.629 159.34 224.64 159.366 224.648 159.392C224.654 159.407 224.658 159.423 224.664 159.438C224.667 159.445 224.668 159.453 224.671 159.461C224.69 159.507 224.712 159.551 224.736 159.595C224.741 159.604 224.745 159.614 224.75 159.623C224.75 159.624 224.751 159.625 224.751 159.626C224.775 159.665 224.801 159.703 224.829 159.739C224.844 159.759 224.856 159.781 224.873 159.801C224.919 159.858 224.97 159.91 225.026 159.957L227.988 162.451C228.183 162.624 228.439 162.71 228.699 162.692C228.778 162.685 228.855 162.666 228.929 162.637L229.816 162.284C229.492 162.402 229.13 162.33 228.875 162.098L225.913 159.604C225.858 159.556 225.806 159.504 225.76 159.448C225.745 159.43 225.733 159.409 225.72 159.39C225.69 159.351 225.662 159.311 225.637 159.27C225.632 159.261 225.629 159.251 225.624 159.243C225.596 159.192 225.572 159.139 225.551 159.085C225.545 159.07 225.541 159.054 225.536 159.039C225.519 158.99 225.506 158.941 225.495 158.891C225.492 158.876 225.488 158.861 225.486 158.847C225.475 158.785 225.468 158.723 225.467 158.661C225.466 158.649 225.467 158.637 225.467 158.624C225.468 158.576 225.471 158.527 225.477 158.479C225.481 158.451 225.486 158.424 225.491 158.397C225.5 158.356 225.51 158.315 225.523 158.274C225.528 158.257 225.534 158.24 225.54 158.223C225.562 158.165 225.589 158.109 225.621 158.055L228.058 154.113L224.277 150.929C224.221 150.882 224.169 150.829 224.122 150.772C224.107 150.754 224.095 150.732 224.081 150.713C224.051 150.674 224.024 150.635 223.999 150.593C223.995 150.586 223.992 150.578 223.988 150.571C223.959 150.518 223.934 150.464 223.913 150.408C223.907 150.393 223.903 150.378 223.897 150.363C223.881 150.314 223.867 150.265 223.857 150.214C223.853 150.2 223.85 150.185 223.847 150.17C223.836 150.109 223.83 150.047 223.828 149.984C223.827 149.972 223.829 149.961 223.829 149.949C223.829 149.9 223.832 149.851 223.838 149.802C223.842 149.775 223.847 149.748 223.853 149.721C223.861 149.679 223.871 149.638 223.884 149.598C223.89 149.581 223.895 149.563 223.901 149.547C223.923 149.488 223.95 149.432 223.982 149.379L225.888 146.295C225.917 146.249 225.95 146.205 225.987 146.164C225.999 146.152 226.011 146.141 226.023 146.129C226.048 146.103 226.075 146.079 226.104 146.057V146.057Z" fill="white" stroke="#3D3D3C" stroke-width="0.8" stroke-linecap="round" stroke-linejoin="round"/>
<path d="M194.187 150.039C194.187 150.039 198.743 147.305 200.156 146.134C201.569 144.962 204.5 141.803 205.136 141.625C205.772 141.448 209.869 140.028 210.646 140.383C211.423 140.738 216.297 141.572 216.297 141.572C216.916 143.489 211.211 142.371 211.211 142.371C211.211 142.371 213.966 144.075 214.002 144.43C214.037 144.785 213.896 144.856 213.896 144.856L214.946 145.3C215.688 146.897 210.337 146.125 210.337 146.125L204.995 150.944L192.88 155.311L194.187 150.039Z" fill="white"/>
<mask id="mask14_43_1729" style="mask-type:alpha" maskUnits="userSpaceOnUse" x="192" y="140" width="25" height="16">
<path fill-rule="evenodd" clip-rule="evenodd" d="M194.187 150.039C194.187 150.039 198.743 147.305 200.156 146.134C201.569 144.962 204.5 141.803 205.136 141.625C205.772 141.448 209.869 140.028 210.646 140.383C211.423 140.738 216.297 141.572 216.297 141.572C216.916 143.489 211.211 142.371 211.211 142.371C211.211 142.371 213.966 144.075 214.002 144.43C214.037 144.785 213.896 144.856 213.896 144.856L214.946 145.3C215.688 146.897 210.337 146.125 210.337 146.125L204.995 150.944L192.88 155.311L194.187 150.039Z" fill="white"/>
</mask>
<g mask="url(#mask14_43_1729)">
<path d="M200.704 156.053C202.254 153.661 200.561 147.584 198.824 147.105C197.087 146.626 196.57 155.833 196.57 155.833L200.563 156.683" fill="#CFCFD0"/>
</g>
<path fill-rule="evenodd" clip-rule="evenodd" d="M194.187 150.039C194.187 150.039 198.743 147.305 200.156 146.134C201.569 144.962 204.5 141.803 205.136 141.625C205.772 141.448 209.869 140.028 210.646 140.383C211.423 140.738 216.297 141.572 216.297 141.572C216.916 143.489 211.211 142.371 211.211 142.371C211.211 142.371 213.966 144.075 214.002 144.43C214.037 144.785 213.896 144.856 213.896 144.856L214.946 145.3C215.688 146.897 210.337 146.125 210.337 146.125L204.995 150.944L192.88 155.311L194.187 150.039Z" stroke="#3D3D3C" stroke-width="0.8" stroke-linecap="round" stroke-linejoin="round"/>
<path d="M198.824 147.105C198.824 147.105 201.242 151.589 199.758 158.707L184.308 164.308C181.862 165.247 174.777 167.648 173.489 162.253L163.213 139.175C161.03 135.644 162.043 131.018 165.502 128.722V128.722C169.593 126.019 175.122 127.834 176.837 132.443L183.115 150.002L198.824 147.105Z" fill="white" stroke="#3D3D3C" stroke-width="0.8" stroke-linecap="round" stroke-linejoin="round"/>
<ellipse cx="162.909" cy="186.047" rx="1.73151" ry="1.74035" fill="white" stroke="#3D3D3C" stroke-width="0.8" stroke-linecap="round" stroke-linejoin="round"/>
<ellipse cx="173.02" cy="166.323" rx="1.73151" ry="1.74035" fill="white" stroke="#3D3D3C" stroke-width="0.8" stroke-linecap="round" stroke-linejoin="round"/>
<path d="M185.467 119.894L185.588 119.647L188.094 123.038C190.125 122.119 190.484 120.109 190.387 118.871L187.514 116.675L187.467 116.231L190.293 118.238C190.23 117.759 190.198 117.753 190.198 117.753C190.198 117.753 191.898 119.447 196.043 118.178C197.472 123.012 195.845 125.137 194.111 126.072C192.699 126.834 190.945 126.506 189.785 125.394L187.527 123.229C187.683 123.186 187.387 123.282 187.527 123.229L185.467 119.894Z" fill="white" stroke="#3D3D3C" stroke-width="0.8" stroke-linecap="round" stroke-linejoin="round"/>
<path d="M188.366 117.71C183.847 109.704 181.093 120.043 188.372 122.889Z" fill="white"/>
<path d="M188.366 117.71C183.847 109.704 181.093 120.043 188.372 122.889" stroke="#3D3D3C" stroke-width="0.8" stroke-linecap="round" stroke-linejoin="round"/>
<path d="M183.083 150.107C182.321 151.362 181.401 152.516 180.347 153.538Z" fill="#F5F6F7"/>
<path d="M183.083 150.107C182.321 151.362 181.401 152.516 180.347 153.538" stroke="#3D3D3C" stroke-width="0.8" stroke-linecap="round" stroke-linejoin="round"/>
<path d="M198.182 190.822C199.896 190.619 201.381 189.149 201.609 187.429" stroke="#3D3D3C" stroke-width="0.8" stroke-linecap="round" stroke-linejoin="round"/>
<path d="M220.235 158.344C220.735 159.058 220.723 160.037 220.421 160.855C220.118 161.674 219.562 162.369 219.016 163.049" fill="#F5F6F7"/>
<path d="M220.235 158.344C220.735 159.058 220.723 160.037 220.421 160.855C220.118 161.674 219.562 162.369 219.016 163.049" stroke="#3D3D3C" stroke-width="0.8" stroke-linecap="round" stroke-linejoin="round"/>
</svg>
