<svg width="348" height="286" viewBox="0 0 348 286" fill="none" xmlns="http://www.w3.org/2000/svg">
<path opacity="0.15" d="M67.5897 209.561C77.9568 216.589 91.3036 220.935 106.1 221.732C106.107 221.794 106.11 221.857 106.117 221.92C110.64 265.65 160.407 293.534 217.274 284.199C271.435 275.309 312.502 235.864 312.38 194.35C335.308 180.768 349.638 158.804 347.34 136.584C345.88 122.468 337.952 110.62 325.976 102.385C332.204 90.2753 335.083 77.2106 333.725 64.0803C329.202 20.3495 279.435 -7.53412 222.568 1.80049C186.51 7.71934 156.261 27.1831 140.101 51.7818C126.2 49.0771 110.929 48.7896 95.1075 51.3867C38.2404 60.7213 -4.19268 103.739 0.330509 147.47C3.6282 179.352 30.9768 202.806 67.5897 209.561Z" fill="#8CE7DF"/>
<ellipse opacity="0.87" cx="134.454" cy="144.022" rx="35.2452" ry="34.3359" fill="white"/>
<ellipse cx="128.549" cy="56.5639" rx="7.47345" ry="7.28066" fill="#8CE7DF"/>
<ellipse cx="310.495" cy="183.84" rx="3.78286" ry="3.68527" fill="#8CE7DF"/>
<ellipse opacity="0.3" cx="58.981" cy="209.637" rx="7.47345" ry="7.28066" fill="#8CE7DF"/>
<path d="M168.303 197.29C209.317 193.119 262.673 150.256 221.405 137.446C221.405 137.446 274.721 119.868 234.057 101.372C234.057 101.372 268.435 74.5372 228.112 73.2498C228.112 73.2498 243.899 40.7627 226.67 37.2675C208.142 33.5086 203.606 66.064 203.606 66.064C203.606 66.064 171.455 54.1152 181.461 87.5724C181.461 87.5724 146.834 81.1205 163.409 117.287C163.409 117.287 114.616 116.756 147.942 170.637C165.381 198.832 168.303 197.29 168.303 197.29Z" fill="#ECEDEE"/>
<mask id="mask0_43_1728" style="mask-type:alpha" maskUnits="userSpaceOnUse" x="136" y="36" width="114" height="162">
<path fill-rule="evenodd" clip-rule="evenodd" d="M168.303 197.29C209.317 193.119 262.673 150.256 221.405 137.446C221.405 137.446 274.721 119.868 234.057 101.372C234.057 101.372 268.435 74.5372 228.112 73.2498C228.112 73.2498 243.899 40.7627 226.67 37.2675C208.142 33.5086 203.606 66.064 203.606 66.064C203.606 66.064 171.455 54.1152 181.461 87.5724C181.461 87.5724 146.834 81.1205 163.409 117.287C163.409 117.287 114.616 116.756 147.942 170.637C165.381 198.832 168.303 197.29 168.303 197.29Z" fill="white"/>
</mask>
<g mask="url(#mask0_43_1728)">
<path d="M76.0632 -21.4969C131.345 -53.4183 165.076 -28.7564 129.923 17.5329C94.771 63.8221 155.399 18.6142 173.567 11.8516C173.567 11.8516 100.646 63.3374 173.727 46.9492C246.809 30.5611 157.395 60.5331 187.895 90.1166C218.396 119.7 83.6967 107.489 78.056 106.595C72.4153 105.701 73.3203 -4.95581 73.3203 -4.95581" fill="#CFCFD0"/>
<path d="M166.168 203.22C201.313 132.434 255.123 158.256 238.012 213.425C220.902 268.594 262.367 206.04 277.135 193.681C277.135 193.681 226.265 266.2 289.402 226.668C352.54 187.135 278.717 244.842 317.642 262.63C356.566 280.417 225.552 313.353 219.934 314.372C214.315 315.391 176.966 210.926 176.966 210.926" fill="#CFCFD0"/>
</g>
<path fill-rule="evenodd" clip-rule="evenodd" d="M168.303 197.29C209.317 193.119 262.673 150.256 221.405 137.446C221.405 137.446 274.721 119.868 234.057 101.372C234.057 101.372 268.435 74.5372 228.112 73.2498C228.112 73.2498 243.899 40.7627 226.67 37.2675C208.142 33.5086 203.606 66.064 203.606 66.064C203.606 66.064 171.455 54.1152 181.461 87.5724C181.461 87.5724 146.834 81.1205 163.409 117.287C163.409 117.287 114.616 116.756 147.942 170.637C165.381 198.832 168.303 197.29 168.303 197.29Z" stroke="#3D3D3C" stroke-width="0.8" stroke-linecap="round" stroke-linejoin="round"/>
<path d="M218.935 51.8462C218.489 61.5716 174.11 190.599 168.304 197.29V197.29C168.304 197.29 214.057 70.0599 218.935 51.8462Z" fill="#CFCFD0"/>
<path d="M187.586 72.0374C194.341 85.942 199.194 90.0745 199.194 90.0745L187.586 72.0374Z" fill="#CFCFD0"/>
<path d="M234.416 81.1782C220.519 88.4188 216.521 93.3489 216.521 93.3489L234.416 81.1782Z" fill="#CFCFD0"/>
<path d="M166.168 96.1632C182.117 114.162 190.811 118.536 190.811 118.536L166.168 96.1632Z" fill="#CFCFD0"/>
<path d="M153.06 132.434C169.009 150.433 177.702 154.807 177.702 154.807L153.06 132.434Z" fill="#CFCFD0"/>
<path d="M207.701 122.346L237.67 114.427C215.544 117.38 207.701 122.346 207.701 122.346Z" fill="#CFCFD0"/>
<path d="M192.984 156.627L222.953 148.709C200.827 151.662 192.984 156.627 192.984 156.627Z" fill="#CFCFD0"/>
<path d="M163.252 160.986C163.896 162.155 164.884 163.109 166.089 163.726Z" fill="#F5F6F7"/>
<path d="M163.252 160.986C163.896 162.155 164.884 163.109 166.089 163.726" stroke="#3D3D3C" stroke-width="0.8" stroke-linecap="round" stroke-linejoin="round"/>
<path d="M202.265 138.508L209.784 135.304Z" fill="#F5F6F7"/>
<path d="M202.265 138.508L209.784 135.304" stroke="#3D3D3C" stroke-width="0.8" stroke-linecap="round" stroke-linejoin="round"/>
<path d="M199.904 74.6613C200.474 75.8094 200.794 77.0599 200.844 78.3343Z" fill="#F5F6F7"/>
<path d="M199.904 74.6613C200.474 75.8094 200.794 77.0599 200.844 78.3343" stroke="#3D3D3C" stroke-width="0.8" stroke-linecap="round" stroke-linejoin="round"/>
<path d="M175.597 243.598C146.392 227.284 134.094 237.109 153.795 245.01C173.496 252.91 170.729 249.354 170.729 249.354" fill="white"/>
<path d="M175.597 243.598C146.392 227.284 134.094 237.109 153.795 245.01C173.496 252.91 170.729 249.354 170.729 249.354" stroke="#3D3D3C" stroke-width="0.8" stroke-linecap="round" stroke-linejoin="round"/>
<path d="M219.211 177.257C206.497 202.305 181.85 239.398 181.85 239.398Z" fill="white"/>
<path d="M219.211 177.257C206.497 202.305 181.85 239.398 181.85 239.398" stroke="#3D3D3C" stroke-width="0.8" stroke-linecap="round" stroke-linejoin="round"/>
<path d="M225.666 204.408C214.464 217.761 183.733 243.598 183.733 243.598Z" fill="white"/>
<path d="M225.666 204.408C214.464 217.761 183.733 243.598 183.733 243.598" stroke="#3D3D3C" stroke-width="0.8" stroke-linecap="round" stroke-linejoin="round"/>
<path d="M171.186 252.248C277.943 191.612 284.575 239.021 168.623 255.17L171.186 252.248Z" fill="white" stroke="#3D3D3C" stroke-width="0.8" stroke-linecap="round" stroke-linejoin="round"/>
<path d="M247.501 228.118C230.318 236.193 185.958 250.495 185.958 250.495Z" fill="white"/>
<path d="M247.501 228.118C230.318 236.193 185.958 250.495 185.958 250.495" stroke="#3D3D3C" stroke-width="0.8" stroke-linecap="round" stroke-linejoin="round"/>
<path d="M198.08 200.169L195.347 204.411Z" fill="#F5F6F7"/>
<path d="M198.08 200.169L195.347 204.411" stroke="#3D3D3C" stroke-width="0.8" stroke-linecap="round" stroke-linejoin="round"/>
<path d="M207.342 227.279C208.258 227.159 209.065 226.63 209.523 225.847Z" fill="#F5F6F7"/>
<path d="M207.342 227.279C208.258 227.159 209.065 226.63 209.523 225.847" stroke="#3D3D3C" stroke-width="0.8" stroke-linecap="round" stroke-linejoin="round"/>
<path d="M224.118 234.407L224.362 234.169Z" fill="#F5F6F7"/>
<path d="M224.118 234.407L224.362 234.169" stroke="#3D3D3C" stroke-width="0.8" stroke-linecap="round" stroke-linejoin="round"/>
<path d="M156.275 242.017C156.736 242.698 157.426 243.201 158.227 243.439Z" fill="#F5F6F7"/>
<path d="M156.275 242.017C156.736 242.698 157.426 243.201 158.227 243.439" stroke="#3D3D3C" stroke-width="0.8" stroke-linecap="round" stroke-linejoin="round"/>
<path d="M82.7349 227.402C93.3766 243.133 124.36 191.094 121.321 171.242C121.321 171.242 71.0502 210.129 82.7349 227.402Z" fill="#8CE7DF" stroke="#3D3D3C" stroke-width="0.8" stroke-linecap="round" stroke-linejoin="round"/>
<path d="M124.021 225.283C134.663 241.014 143.165 188.609 136.597 168.7C136.597 168.7 112.336 208.01 124.021 225.283Z" fill="white" stroke="#3D3D3C" stroke-width="0.8" stroke-linecap="round" stroke-linejoin="round"/>
<path d="M149.031 196.561C156.526 207.64 167.771 185.013 150.873 162.224C150.873 162.224 140.801 184.396 149.031 196.561Z" fill="white" stroke="#3D3D3C" stroke-width="0.8" stroke-linecap="round" stroke-linejoin="round"/>
<path d="M49.107 203.466C41.5026 220.798 100.848 189.882 110.292 172.057C110.292 172.057 58.0265 183.136 49.107 203.466Z" fill="white" stroke="#3D3D3C" stroke-width="0.8" stroke-linecap="round" stroke-linejoin="round"/>
<path d="M95.5425 168.119C95.5425 168.119 50.2546 201.539 30.0427 179.246C30.0427 179.246 46.8856 156.44 95.5425 168.119Z" fill="#8CE7DF" stroke="#3D3D3C" stroke-width="0.8" stroke-linecap="round" stroke-linejoin="round"/>
<path d="M172.641 146.874C172.525 146.994 160.886 158.977 143.989 166.594C128.302 173.666 104.76 178.345 81.6838 160.474L82.3818 159.612C100.266 173.462 121.045 174.807 143.115 164.875C159.68 157.42 171.098 145.678 171.211 145.56L172.641 146.874Z" fill="#CFCFD0" stroke="#3D3D3C" stroke-width="0.8" stroke-linecap="round" stroke-linejoin="round"/>
<path d="M99.1452 169.818C99.1452 169.818 92.651 163.616 86.6444 148.684C79.2526 130.309 62.4583 125.825 62.4583 125.825C62.4583 125.825 71.8598 150.341 99.1452 169.818Z" fill="white" stroke="#3D3D3C" stroke-width="0.8" stroke-linecap="round" stroke-linejoin="round"/>
<path d="M113.213 171.863C113.213 171.863 90.8327 163.008 83.009 129.447C83.009 129.447 93.5366 132.001 102.668 149.671C111.799 167.341 113.213 171.863 113.213 171.863Z" fill="white" stroke="#3D3D3C" stroke-width="0.8" stroke-linecap="round" stroke-linejoin="round"/>
<path d="M132.312 169.831C132.312 169.831 109.23 168.064 101.406 134.503C101.406 134.503 112.636 129.969 121.767 147.638C130.898 165.308 132.312 169.831 132.312 169.831Z" fill="white" stroke="#3D3D3C" stroke-width="0.8" stroke-linecap="round" stroke-linejoin="round"/>
<path d="M148.241 163.69C148.241 163.69 125.159 161.923 117.335 128.363C117.335 128.363 128.565 123.828 137.696 141.498C146.827 159.167 148.241 163.69 148.241 163.69Z" fill="white" stroke="#3D3D3C" stroke-width="0.8" stroke-linecap="round" stroke-linejoin="round"/>
<path d="M83.83 161.186C83.83 161.186 47.0562 160.505 42.0681 135.569C42.0681 135.569 66.0108 132.139 83.83 161.186Z" fill="white" stroke="#3D3D3C" stroke-width="0.8" stroke-linecap="round" stroke-linejoin="round"/>
<path d="M56.1318 174.745L57.8656 175.319Z" fill="#F5F6F7"/>
<path d="M56.1318 174.745L57.8656 175.319" stroke="#3D3D3C" stroke-width="0.8" stroke-linecap="round" stroke-linejoin="round"/>
<path d="M69.7261 149.167C69.9751 149.612 70.3212 149.998 70.7401 150.298Z" fill="#F5F6F7"/>
<path d="M69.7261 149.167C69.9751 149.612 70.3212 149.998 70.7401 150.298" stroke="#3D3D3C" stroke-width="0.8" stroke-linecap="round" stroke-linejoin="round"/>
<path d="M85.7971 154.822L85.9453 155.246Z" fill="#F5F6F7"/>
<path d="M85.7971 154.822L85.9453 155.246" stroke="#3D3D3C" stroke-width="0.8" stroke-linecap="round" stroke-linejoin="round"/>
<path d="M96.0631 146.904C95.9873 147.637 96.1404 148.376 96.5026 149.023Z" fill="#F5F6F7"/>
<path d="M96.0631 146.904C95.9873 147.637 96.1404 148.376 96.5026 149.023" stroke="#3D3D3C" stroke-width="0.8" stroke-linecap="round" stroke-linejoin="round"/>
<path d="M117.916 154.542C117.897 155.2 118.1 155.846 118.493 156.383Z" fill="#F5F6F7"/>
<path d="M117.916 154.542C117.897 155.2 118.1 155.846 118.493 156.383" stroke="#3D3D3C" stroke-width="0.8" stroke-linecap="round" stroke-linejoin="round"/>
<path d="M135.126 150.164L135.989 151.3Z" fill="#F5F6F7"/>
<path d="M135.126 150.164L135.989 151.3" stroke="#3D3D3C" stroke-width="0.8" stroke-linecap="round" stroke-linejoin="round"/>
<path d="M85.6577 188.649L86.8156 187.8Z" fill="#F5F6F7"/>
<path d="M85.6577 188.649L86.8156 187.8" stroke="#3D3D3C" stroke-width="0.8" stroke-linecap="round" stroke-linejoin="round"/>
<path d="M106.172 204.177L107.625 202.2Z" fill="#F5F6F7"/>
<path d="M106.172 204.177L107.625 202.2" stroke="#3D3D3C" stroke-width="0.8" stroke-linecap="round" stroke-linejoin="round"/>
<path d="M131.664 197.119V196.553Z" fill="#F5F6F7"/>
<path d="M131.664 197.119V196.553" stroke="#3D3D3C" stroke-width="0.8" stroke-linecap="round" stroke-linejoin="round"/>
<path d="M150.17 186.932L150.809 183.548Z" fill="#F5F6F7"/>
<path d="M150.17 186.932L150.809 183.548" stroke="#3D3D3C" stroke-width="0.8" stroke-linecap="round" stroke-linejoin="round"/>
<rect x="99.052" y="116.571" width="8.80716" height="11.7654" rx="3.90767" fill="white" stroke="#3D3D3C" stroke-width="0.8" stroke-linecap="round" stroke-linejoin="round"/>
<rect x="99.052" y="130.087" width="8.80716" height="11.7654" rx="3.90767" fill="white" stroke="#3D3D3C" stroke-width="0.8" stroke-linecap="round" stroke-linejoin="round"/>
<rect x="101.342" y="84.297" width="96.4559" height="176.998" rx="13.4594" fill="white" stroke="#3D3D3C" stroke-width="0.8" stroke-linecap="round" stroke-linejoin="round"/>
<path d="M181.518 88.6271H175.205C173.172 88.6271 171.523 90.2681 171.523 92.2923V92.2923C171.523 94.3166 169.875 95.9576 167.841 95.9576H131.298C129.265 95.9576 127.616 94.3166 127.616 92.2923V92.2923C127.616 90.2681 125.968 88.6271 123.935 88.6271H117.621C111.379 88.6271 106.318 93.6651 106.318 99.8797V243.096C106.318 249.31 111.379 254.349 117.621 254.349H181.518C187.761 254.349 192.821 249.311 192.821 243.096V99.8797C192.821 93.665 187.761 88.6271 181.518 88.6271Z" fill="#8CE7DF"/>
<path fill-rule="evenodd" clip-rule="evenodd" d="M181.518 88.6271H175.205C173.172 88.6271 171.523 90.2681 171.523 92.2923V92.2923C171.523 94.3166 169.875 95.9576 167.841 95.9576H131.298C129.265 95.9576 127.616 94.3166 127.616 92.2923V92.2923C127.616 90.2681 125.968 88.6271 123.935 88.6271H117.621C111.379 88.6271 106.318 93.6651 106.318 99.8797V243.096C106.318 249.31 111.379 254.349 117.621 254.349H181.518C187.761 254.349 192.821 249.311 192.821 243.096V99.8797C192.821 93.665 187.761 88.6271 181.518 88.6271Z" stroke="#3D3D3C" stroke-width="0.8" stroke-linecap="round" stroke-linejoin="round"/>
<rect x="112.691" y="110.25" width="73.759" height="72.0979" rx="7.29178" fill="white" stroke="#3D3D3C" stroke-width="0.8" stroke-linecap="round" stroke-linejoin="round"/>
<path fill-rule="evenodd" clip-rule="evenodd" d="M147.785 144.554H119.215V116.628H147.785V144.554ZM140.642 123.609H126.357L126.357 137.572H140.642V123.609ZM151.356 116.628V144.554H179.925V116.628L151.356 116.628ZM158.498 137.572H172.782V123.609H158.498V137.572ZM129.929 134.082H137.071V127.1H129.929V134.082ZM147.785 175.971H119.215V148.045H147.785V175.971ZM126.357 155.026H140.642V168.989H126.357L126.357 155.026ZM162.069 127.1H169.211V134.082H162.069V127.1ZM151.356 175.971H158.498V168.989H165.64V155.026L158.498 155.026V168.989H151.356V175.971ZM158.498 168.989V168.989H158.498V168.989H158.498ZM172.783 168.989H165.641V175.971H179.925V162.008H172.783L172.783 168.989ZM179.925 155.026H172.782V148.045H179.925V155.026ZM151.356 148.045V155.026H158.498V148.045H151.356ZM137.071 165.498H129.929V158.517H137.071V165.498Z" fill="#8CE7DF"/>
<path d="M119.215 144.554H118.815C118.815 144.775 118.994 144.954 119.215 144.954V144.554ZM147.785 144.554V144.954C148.006 144.954 148.185 144.775 148.185 144.554H147.785ZM119.215 116.628V116.228C118.994 116.228 118.815 116.407 118.815 116.628H119.215ZM147.785 116.628H148.185C148.185 116.407 148.006 116.228 147.785 116.228V116.628ZM126.357 123.609V123.209C126.251 123.209 126.149 123.252 126.074 123.327C125.999 123.402 125.957 123.503 125.957 123.609L126.357 123.609ZM140.642 123.609H141.042C141.042 123.389 140.863 123.209 140.642 123.209V123.609ZM126.357 137.572L125.957 137.572C125.957 137.793 126.136 137.972 126.357 137.972V137.572ZM140.642 137.572V137.972C140.863 137.972 141.042 137.793 141.042 137.572H140.642ZM151.356 144.554H150.956C150.956 144.775 151.135 144.954 151.356 144.954V144.554ZM151.356 116.628L151.356 116.228C151.135 116.228 150.956 116.407 150.956 116.628H151.356ZM179.925 144.554V144.954C180.146 144.954 180.325 144.775 180.325 144.554H179.925ZM179.925 116.628H180.325C180.325 116.522 180.283 116.42 180.208 116.345C180.133 116.27 180.031 116.228 179.925 116.228L179.925 116.628ZM172.782 137.572V137.972C173.003 137.972 173.182 137.793 173.182 137.572H172.782ZM158.498 137.572H158.098C158.098 137.793 158.277 137.972 158.498 137.972V137.572ZM172.782 123.609H173.182C173.182 123.389 173.003 123.209 172.782 123.209V123.609ZM158.498 123.609V123.209C158.277 123.209 158.098 123.389 158.098 123.609H158.498ZM137.071 134.082V134.482C137.292 134.482 137.471 134.303 137.471 134.082H137.071ZM129.929 134.082H129.529C129.529 134.303 129.708 134.482 129.929 134.482V134.082ZM137.071 127.1H137.471C137.471 126.879 137.292 126.7 137.071 126.7V127.1ZM129.929 127.1V126.7C129.708 126.7 129.529 126.879 129.529 127.1H129.929ZM119.215 175.971H118.815C118.815 176.191 118.994 176.371 119.215 176.371V175.971ZM147.785 175.971V176.371C148.005 176.371 148.185 176.191 148.185 175.971H147.785ZM119.215 148.045V147.645C118.994 147.645 118.815 147.824 118.815 148.045H119.215ZM147.785 148.045H148.185C148.185 147.824 148.005 147.645 147.785 147.645V148.045ZM140.642 155.026H141.042C141.042 154.805 140.863 154.626 140.642 154.626V155.026ZM126.357 155.026V154.626C126.251 154.626 126.149 154.668 126.074 154.743C125.999 154.818 125.957 154.92 125.957 155.026L126.357 155.026ZM140.642 168.989V169.389C140.863 169.389 141.042 169.21 141.042 168.989H140.642ZM126.357 168.989L125.957 168.989C125.957 169.21 126.136 169.389 126.357 169.389V168.989ZM169.211 127.1H169.611C169.611 126.879 169.432 126.7 169.211 126.7V127.1ZM162.069 127.1V126.7C161.848 126.7 161.669 126.879 161.669 127.1H162.069ZM169.211 134.082V134.482C169.432 134.482 169.611 134.303 169.611 134.082H169.211ZM162.069 134.082H161.669C161.669 134.303 161.848 134.482 162.069 134.482V134.082ZM158.498 175.971V176.371C158.719 176.371 158.898 176.191 158.898 175.971H158.498ZM151.356 175.971H150.956C150.956 176.191 151.135 176.371 151.356 176.371V175.971ZM165.64 168.989V169.389C165.861 169.389 166.04 169.21 166.04 168.989H165.64ZM165.64 155.026H166.04C166.04 154.805 165.861 154.626 165.64 154.626L165.64 155.026ZM158.498 155.026L158.498 154.626C158.392 154.626 158.29 154.668 158.215 154.743C158.14 154.818 158.098 154.92 158.098 155.026H158.498ZM151.356 168.989V168.589C151.135 168.589 150.956 168.768 150.956 168.989H151.356ZM158.498 168.989H158.098C158.098 169.21 158.277 169.389 158.498 169.389V168.989ZM158.498 168.989H158.898C158.898 168.768 158.719 168.589 158.498 168.589V168.989ZM165.641 168.989V168.589C165.42 168.589 165.241 168.768 165.241 168.989H165.641ZM172.783 168.989V169.389C172.889 169.389 172.991 169.347 173.066 169.272C173.141 169.197 173.183 169.095 173.183 168.989L172.783 168.989ZM165.641 175.971H165.241C165.241 176.192 165.42 176.371 165.641 176.371V175.971ZM179.925 175.971V176.371C180.146 176.371 180.325 176.192 180.325 175.971H179.925ZM179.925 162.008H180.325C180.325 161.787 180.146 161.608 179.925 161.608V162.008ZM172.783 162.008V161.608C172.677 161.608 172.575 161.65 172.5 161.725C172.425 161.8 172.383 161.901 172.383 162.008L172.783 162.008ZM172.782 155.026H172.382C172.382 155.247 172.562 155.426 172.782 155.426V155.026ZM179.925 155.026V155.426C180.146 155.426 180.325 155.247 180.325 155.026H179.925ZM172.782 148.045V147.645C172.562 147.645 172.382 147.824 172.382 148.045H172.782ZM179.925 148.045H180.325C180.325 147.824 180.146 147.645 179.925 147.645V148.045ZM151.356 155.026H150.956C150.956 155.247 151.135 155.426 151.356 155.426V155.026ZM151.356 148.045V147.645C151.135 147.645 150.956 147.824 150.956 148.045H151.356ZM158.498 155.026V155.426C158.719 155.426 158.898 155.247 158.898 155.026H158.498ZM158.498 148.045H158.898C158.898 147.824 158.719 147.645 158.498 147.645V148.045ZM129.929 165.498H129.529C129.529 165.719 129.708 165.898 129.929 165.898V165.498ZM137.071 165.498V165.898C137.292 165.898 137.471 165.719 137.471 165.498H137.071ZM129.929 158.517V158.117C129.708 158.117 129.529 158.296 129.529 158.517H129.929ZM137.071 158.517H137.471C137.471 158.296 137.292 158.117 137.071 158.117V158.517ZM119.215 144.954H147.785V144.154H119.215V144.954ZM118.815 116.628V144.554H119.615V116.628H118.815ZM147.785 116.228H119.215V117.028H147.785V116.228ZM148.185 144.554V116.628H147.385V144.554H148.185ZM126.357 124.009H140.642V123.209H126.357V124.009ZM126.757 137.572L126.757 123.609L125.957 123.609L125.957 137.572L126.757 137.572ZM140.642 137.172H126.357V137.972H140.642V137.172ZM140.242 123.609V137.572H141.042V123.609H140.242ZM151.756 144.554V116.628H150.956V144.554H151.756ZM179.925 144.154H151.356V144.954H179.925V144.154ZM179.525 116.628V144.554H180.325V116.628H179.525ZM151.356 117.028L179.925 117.028L179.925 116.228L151.356 116.228L151.356 117.028ZM172.782 137.172H158.498V137.972H172.782V137.172ZM172.382 123.609V137.572H173.182V123.609H172.382ZM158.498 124.009H172.782V123.209H158.498V124.009ZM158.898 137.572V123.609H158.098V137.572H158.898ZM137.071 133.682H129.929V134.482H137.071V133.682ZM136.671 127.1V134.082H137.471V127.1H136.671ZM129.929 127.5H137.071V126.7H129.929V127.5ZM130.329 134.082V127.1H129.529V134.082H130.329ZM119.215 176.371H147.785V175.571H119.215V176.371ZM118.815 148.045V175.971H119.615V148.045H118.815ZM147.785 147.645H119.215V148.445H147.785V147.645ZM148.185 175.971V148.045H147.385V175.971H148.185ZM140.642 154.626H126.357V155.426H140.642V154.626ZM141.042 168.989V155.026H140.242V168.989H141.042ZM126.357 169.389H140.642V168.589H126.357V169.389ZM125.957 155.026L125.957 168.989L126.757 168.989L126.757 155.026L125.957 155.026ZM169.211 126.7H162.069V127.5H169.211V126.7ZM169.611 134.082V127.1H168.811V134.082H169.611ZM162.069 134.482H169.211V133.682H162.069V134.482ZM161.669 127.1V134.082H162.469V127.1H161.669ZM158.498 175.571H151.356V176.371H158.498V175.571ZM158.098 168.989V175.971H158.898V168.989H158.098ZM158.498 169.389H165.64V168.589H158.498V169.389ZM166.04 168.989V155.026H165.24V168.989H166.04ZM165.64 154.626L158.498 154.626L158.498 155.426L165.64 155.426L165.64 154.626ZM158.098 155.026V168.989H158.898V155.026H158.098ZM151.356 169.389H158.498V168.589H151.356V169.389ZM151.756 175.971V168.989H150.956V175.971H151.756ZM158.098 168.989V168.989H158.898V168.989H158.098ZM158.498 169.389H158.498V168.589H158.498V169.389ZM158.098 168.989V168.989H158.898V168.989H158.098ZM158.498 169.389H158.498V168.589H158.498V169.389ZM165.641 169.389H172.783V168.589H165.641V169.389ZM166.041 175.971V168.989H165.241V175.971H166.041ZM179.925 175.571H165.641V176.371H179.925V175.571ZM179.525 162.008V175.971H180.325V162.008H179.525ZM172.783 162.408H179.925V161.608H172.783V162.408ZM173.183 168.989L173.183 162.008L172.383 162.008L172.383 168.989L173.183 168.989ZM172.782 155.426H179.925V154.626H172.782V155.426ZM172.382 148.045V155.026H173.182V148.045H172.382ZM179.925 147.645H172.782V148.445H179.925V147.645ZM180.325 155.026V148.045H179.525V155.026H180.325ZM151.756 155.026V148.045H150.956V155.026H151.756ZM158.498 154.626H151.356V155.426H158.498V154.626ZM158.098 148.045V155.026H158.898V148.045H158.098ZM151.356 148.445H158.498V147.645H151.356V148.445ZM129.929 165.898H137.071V165.098H129.929V165.898ZM129.529 158.517V165.498H130.329V158.517H129.529ZM137.071 158.117H129.929V158.917H137.071V158.117ZM137.471 165.498V158.517H136.671V165.498H137.471Z" fill="#3D3D3C"/>
<rect x="112.691" y="190.074" width="73.759" height="15.2587" rx="7.62936" fill="white" stroke="#3D3D3C" stroke-width="0.8" stroke-linecap="round" stroke-linejoin="round"/>
<rect x="112.691" y="211.194" width="73.759" height="15.2587" rx="7.62936" fill="#8CE7DF"/>
<rect x="112.691" y="211.194" width="73.759" height="15.2587" rx="7.62936" fill="white" stroke="#3D3D3C" stroke-width="0.8" stroke-linecap="round" stroke-linejoin="round"/>
<path d="M117.157 100.761C115.307 101.44 113.763 102.735 112.801 104.417" stroke="#3D3D3C" stroke-width="0.8" stroke-linecap="round" stroke-linejoin="round"/>
<path d="M125.026 104.682L127.165 108.255C127.165 108.255 130.812 104.853 131.395 104.682C131.978 104.511 137.307 102.485 137.742 100.007C138.11 97.9092 137.509 98.1256 137.509 98.1256C137.509 98.1256 139.181 95.1418 138.014 94.3056C138.014 94.3056 139.142 93.0133 138.753 91.797C138.364 90.5807 136.381 92.6332 136.381 92.6332L135.098 94.0016L132.298 99.513L128.954 101.756L125.026 104.682Z" fill="white" stroke="#3D3D3C" stroke-width="0.8" stroke-linecap="round" stroke-linejoin="round"/>
<path d="M134.441 100.376L134.896 100.488C135.095 100.537 135.354 100.196 135.472 99.7287L147.915 50.5857C148.031 50.1258 147.967 49.7169 147.772 49.6686V49.6686C147.576 49.6204 147.322 49.9509 147.201 50.4097L134.303 99.4404C134.181 99.9063 134.243 100.327 134.441 100.376Z" fill="#4F4F5B" stroke="#3D3D3C" stroke-width="0.8" stroke-linecap="round" stroke-linejoin="round"/>
<path d="M125.765 104.682L125.438 101.868C129.815 99.6175 129.247 96.7806 131.93 95.3363C134.613 93.8919 135.72 91.569 135.72 91.569C135.72 91.569 138.115 92.7967 135.37 95.2559C133.191 97.2079 133.814 99.2089 133.814 99.2089L134.108 101.332" fill="white"/>
<path d="M125.765 104.682L125.438 101.868C129.815 99.6175 129.247 96.7806 131.93 95.3363C134.613 93.8919 135.72 91.569 135.72 91.569C135.72 91.569 138.115 92.7967 135.37 95.2559C133.191 97.2079 133.814 99.2089 133.814 99.2089L134.108 101.332" stroke="#3D3D3C" stroke-width="0.8" stroke-linecap="round" stroke-linejoin="round"/>
<path d="M126.24 111.215L130.284 108.751L127.424 99.5638L122.924 102.901L126.24 111.215V111.215Z" fill="white" stroke="#3D3D3C" stroke-width="0.8" stroke-linecap="round" stroke-linejoin="round"/>
<path d="M124.9 100.513C127.573 104.863 129.475 113.912 129.475 113.912C129.475 113.912 104.938 127.669 98.3417 125.533C93.5036 123.966 81.8347 100.455 81.8347 100.455C81.8347 100.455 86.1455 80.1964 87.655 80.5609C92.5634 81.746 105.357 110.438 105.357 110.438L124.9 100.513Z" fill="white"/>
<mask id="mask1_43_1728" style="mask-type:alpha" maskUnits="userSpaceOnUse" x="81" y="80" width="49" height="46">
<path fill-rule="evenodd" clip-rule="evenodd" d="M124.9 100.513C127.573 104.863 129.475 113.912 129.475 113.912C129.475 113.912 104.938 127.669 98.3417 125.533C93.5036 123.966 81.8347 100.455 81.8347 100.455C81.8347 100.455 86.1455 80.1964 87.655 80.5609C92.5634 81.746 105.357 110.438 105.357 110.438L124.9 100.513Z" fill="white"/>
</mask>
<g mask="url(#mask1_43_1728)">
<path d="M86.9685 92.9053C90.4914 88.2223 92.5289 125.877 102.381 126.824C112.233 127.771 74.644 121.557 74.644 121.557L79.5616 95.0408" fill="#CFCFD0"/>
</g>
<path fill-rule="evenodd" clip-rule="evenodd" d="M124.9 100.513C127.573 104.863 129.475 113.912 129.475 113.912C129.475 113.912 104.938 127.669 98.3417 125.533C93.5036 123.966 81.8347 100.455 81.8347 100.455C81.8347 100.455 86.1455 80.1964 87.655 80.5609C92.5634 81.746 105.357 110.438 105.357 110.438L124.9 100.513Z" stroke="#3D3D3C" stroke-width="0.8" stroke-linecap="round" stroke-linejoin="round"/>
<path d="M76.185 245.89C76.7679 247.491 76.5424 251.314 79.7301 251.767C82.9204 252.22 80.2672 248.875 80.2672 248.875C80.2672 248.875 82.2035 254.719 82.7008 245.703C83.1898 236.837 90.993 192.25 91.2697 187.163C91.7791 177.801 88.6919 159.751 88.6919 159.751L74.0752 158.39C74.0752 158.39 76.5953 187.229 76.5546 187.939C76.5139 188.65 76.185 245.89 76.185 245.89Z" fill="white"/>
<mask id="mask2_43_1728" style="mask-type:alpha" maskUnits="userSpaceOnUse" x="74" y="158" width="18" height="94">
<path fill-rule="evenodd" clip-rule="evenodd" d="M76.185 245.89C76.7679 247.491 76.5424 251.314 79.7301 251.767C82.9204 252.22 80.2672 248.875 80.2672 248.875C80.2672 248.875 82.2035 254.719 82.7008 245.703C83.1898 236.837 90.993 192.25 91.2697 187.163C91.7791 177.801 88.6919 159.751 88.6919 159.751L74.0752 158.39C74.0752 158.39 76.5953 187.229 76.5546 187.939C76.5139 188.65 76.185 245.89 76.185 245.89Z" fill="white"/>
</mask>
<g mask="url(#mask2_43_1728)">
<path d="M69.3562 215.18C74.8104 215.766 85.9659 212.661 87.9441 209.493C89.9222 206.324 76.3005 208.447 76.3005 208.447" fill="#CFCFD0"/>
</g>
<path fill-rule="evenodd" clip-rule="evenodd" d="M76.185 245.89C76.7679 247.491 76.5424 251.314 79.7301 251.767C82.9204 252.22 80.2672 248.875 80.2672 248.875C80.2672 248.875 82.2035 254.719 82.7008 245.703C83.1898 236.837 90.993 192.25 91.2697 187.163C91.7791 177.801 88.6919 159.751 88.6919 159.751L74.0752 158.39C74.0752 158.39 76.5953 187.229 76.5546 187.939C76.5139 188.65 76.185 245.89 76.185 245.89Z" stroke="#3D3D3C" stroke-width="0.8" stroke-linecap="round" stroke-linejoin="round"/>
<path d="M58.1919 244.641C58.7469 246.239 58.9337 255.575 62.1123 256.027C65.2934 256.48 63.9744 252.544 63.9744 252.544C64.1376 256.178 65.2128 246.899 65.5112 230.032C65.6683 221.158 73.6809 191.097 74.0456 186.039C75.3653 167.735 74.0908 144.066 74.0908 144.066L57.1521 157.989C57.1521 157.989 59.1782 186.804 59.1255 187.513C59.0726 188.224 58.1919 244.641 58.1919 244.641Z" fill="white"/>
<mask id="mask3_43_1728" style="mask-type:alpha" maskUnits="userSpaceOnUse" x="57" y="144" width="18" height="113">
<path fill-rule="evenodd" clip-rule="evenodd" d="M58.1919 244.641C58.7469 246.239 58.9337 255.575 62.1123 256.027C65.2934 256.48 63.9744 252.544 63.9744 252.544C64.1376 256.178 65.2128 246.899 65.5112 230.032C65.6683 221.158 73.6809 191.097 74.0456 186.039C75.3653 167.735 74.0908 144.066 74.0908 144.066L57.1521 157.989C57.1521 157.989 59.1782 186.804 59.1255 187.513C59.0726 188.224 58.1919 244.641 58.1919 244.641Z" fill="white"/>
</mask>
<g mask="url(#mask3_43_1728)">
<path d="M69.4309 209.251C69.5483 212.35 41.4375 217.246 41.4375 217.246C41.4375 217.246 53.1083 200.872 58.8623 201.79L64.6163 202.708" fill="#CFCFD0"/>
</g>
<path fill-rule="evenodd" clip-rule="evenodd" d="M58.1919 244.641C58.7469 246.239 58.9337 255.575 62.1123 256.027C65.2934 256.48 63.9744 252.544 63.9744 252.544C64.1376 256.178 65.2128 246.899 65.5112 230.032C65.6683 221.158 73.6809 191.097 74.0456 186.039C75.3653 167.735 74.0908 144.066 74.0908 144.066L57.1521 157.989C57.1521 157.989 59.1782 186.804 59.1255 187.513C59.0726 188.224 58.1919 244.641 58.1919 244.641Z" stroke="#3D3D3C" stroke-width="0.8" stroke-linecap="round" stroke-linejoin="round"/>
<path d="M82.1012 62.1494C83.5508 55.2111 83.6618 48.1953 71.0377 47.0503C58.0654 45.8739 60.5574 57.4161 56.5485 63.3906C50.5136 72.3844 43.4624 99.3843 69.7737 93.5161C93.5373 88.2159 80.6514 69.0875 82.1012 62.1494Z" fill="#4F4F5B" stroke="#3D3D3C" stroke-width="0.8" stroke-linecap="round" stroke-linejoin="round"/>
<path d="M76.7519 69.0035C74.9344 72.3461 75.6204 81.6042 75.6204 81.6042L72.8612 88.4404L65.5533 81.2457C65.5533 81.2457 66.7209 68.1171 65.418 65.1949C64.115 62.2727 76.7519 69.0035 76.7519 69.0035Z" fill="white"/>
<mask id="mask4_43_1728" style="mask-type:alpha" maskUnits="userSpaceOnUse" x="65" y="64" width="12" height="25">
<path fill-rule="evenodd" clip-rule="evenodd" d="M76.7519 69.0035C74.9344 72.3461 75.6204 81.6042 75.6204 81.6042L72.8612 88.4404L65.5533 81.2457C65.5533 81.2457 66.7209 68.1171 65.418 65.1949C64.115 62.2727 76.7519 69.0035 76.7519 69.0035Z" fill="white"/>
</mask>
<g mask="url(#mask4_43_1728)">
<path d="M77.0016 77.3131C71.0379 80.0036 68.7292 66.9033 68.7292 66.9033L76.752 68.3568L77.0016 77.3131" fill="#CFCFD0"/>
</g>
<path fill-rule="evenodd" clip-rule="evenodd" d="M76.7519 69.0035C74.9344 72.3461 75.6204 81.6042 75.6204 81.6042L72.8612 88.4404L65.5533 81.2457C65.5533 81.2457 66.7209 68.1171 65.418 65.1949C64.115 62.2727 76.7519 69.0035 76.7519 69.0035Z" stroke="#3D3D3C" stroke-width="0.8" stroke-linecap="round" stroke-linejoin="round"/>
<path d="M69.0428 68.3492C70.4067 69.0249 79.1695 76.45 80.4337 62.7237C80.6299 60.5934 80.2443 58.7689 79.923 57.22C78.5673 55.5318 77.1044 52.4441 76.4758 51.0467C76.4547 51.0321 76.4321 51.021 76.4107 51.0068C75.8272 56.8743 67.7837 55.4813 65.0386 65.4211" fill="white"/>
<mask id="mask5_43_1728" style="mask-type:alpha" maskUnits="userSpaceOnUse" x="65" y="51" width="16" height="20">
<path fill-rule="evenodd" clip-rule="evenodd" d="M69.0428 68.3492C70.4067 69.0249 79.1695 76.45 80.4337 62.7237C80.6299 60.5934 80.2443 58.7689 79.923 57.22C78.5673 55.5318 77.1044 52.4441 76.4758 51.0467C76.4547 51.0321 76.4321 51.021 76.4107 51.0068C75.8272 56.8743 67.7837 55.4813 65.0386 65.4211" fill="white"/>
</mask>
<g mask="url(#mask5_43_1728)">
<ellipse opacity="0.27" rx="1.54007" ry="2.06862" transform="matrix(0.0693771 -0.99759 0.997829 0.0658595 80.233 64.122)" fill="#CFCFD0"/>
<ellipse opacity="0.27" rx="1.54007" ry="2.06862" transform="matrix(0.0695804 -0.997576 0.997842 0.065667 70.485 63.4842)" fill="#CFCFD0"/>
<path d="M78.1995 61.9599V61.9599C77.7933 61.9619 77.4624 61.6427 77.4603 61.2469L77.454 60.0279C77.452 59.6321 77.7796 59.3097 78.1858 59.3077V59.3077C78.5921 59.3057 78.923 59.6249 78.9251 60.0207L78.9314 61.2397C78.9334 61.6355 78.6058 61.9579 78.1995 61.9599L78.1995 61.9599Z" fill="#4F4F5B"/>
<path d="M72.7318 61.5825V61.5825C72.3255 61.5844 71.9946 61.2652 71.9925 60.8695L71.9863 59.6504C71.9842 59.2547 72.3119 58.9323 72.7181 58.9303V58.9303C73.1243 58.9283 73.4553 59.2475 73.4573 59.6432L73.4636 60.8623C73.4656 61.258 73.138 61.5805 72.7318 61.5825L72.7318 61.5825Z" fill="#4F4F5B"/>
<path d="M78.3607 57.6123C79.8639 58.0329 79.4546 58.8347 78.4974 58.6317C77.5402 58.4287 77.3786 57.3375 78.3607 57.6123Z" fill="#4F4F5B"/>
<path d="M72.7534 57.1792C71.2546 57.6145 71.558 58.3514 72.5132 58.139C73.4683 57.9267 73.7327 56.8948 72.7534 57.1792Z" fill="#4F4F5B"/>
<path d="M74.9663 61.8726C74.9126 62.3559 75.3572 62.2093 75.8794 62.2647C76.4016 62.3202 76.8036 62.5567 76.8573 62.0734C76.8863 61.5803 76.5137 61.1516 76.0097 61.0981C75.5057 61.0445 75.0471 61.3851 74.9663 61.8726Z" fill="#CFCFD0"/>
<path d="M77.6738 64.7492C76.6968 68.1829 73.4598 66.4377 73.5923 64.2637C73.601 64.1514 73.6806 64.0563 73.7918 64.0257C74.2605 63.8914 75.6104 63.6394 77.5123 64.4259C77.6411 64.4796 77.7098 64.6173 77.6738 64.7492V64.7492Z" fill="#CFCFD0"/>
<mask id="mask6_43_1728" style="mask-type:alpha" maskUnits="userSpaceOnUse" x="73" y="63" width="5" height="4">
<path fill-rule="evenodd" clip-rule="evenodd" d="M77.6738 64.7492C76.6968 68.1829 73.4598 66.4377 73.5923 64.2637C73.601 64.1514 73.6806 64.0563 73.7918 64.0257C74.2605 63.8914 75.6104 63.6394 77.5123 64.4259C77.6411 64.4796 77.7098 64.6173 77.6738 64.7492V64.7492Z" fill="white"/>
</mask>
<g mask="url(#mask6_43_1728)">
<ellipse rx="1.60128" ry="1.82071" transform="matrix(0.428333 -0.903621 0.911964 0.410271 74.9476 66.4568)" fill="#4F4F5B"/>
<path d="M77.0973 64.1334C77.0709 64.3637 77.0129 64.6743 76.945 64.7247C76.5267 65.0349 74.707 64.6829 74.4783 64.4556C74.4146 64.3923 74.4883 63.6484 74.4883 63.6484L76.8318 63.9783" fill="white"/>
</g>
</g>
<path d="M69.0428 68.3492C70.4067 69.0249 79.1695 76.45 80.4337 62.7237C80.6299 60.5934 80.2443 58.7689 79.923 57.22C78.5673 55.5318 77.1044 52.4441 76.4758 51.0467C76.4547 51.0321 76.4321 51.021 76.4107 51.0068C75.8272 56.8743 67.7837 55.4813 65.0386 65.4211" stroke="#3D3D3C" stroke-width="0.8" stroke-linecap="round" stroke-linejoin="round"/>
<path d="M63.3658 76.4499L63.05 76.037C63.0824 76.81 63.3658 76.4499 63.3658 76.4499Z" fill="#4F4F5B" stroke="#3D3D3C" stroke-width="0.8" stroke-linecap="round" stroke-linejoin="round"/>
<path d="M68.3186 62.0971C63.5627 57.7066 60.7444 62.1832 66.2929 66.6885Z" fill="white"/>
<path d="M68.3186 62.0971C63.5627 57.7066 60.7444 62.1832 66.2929 66.6885" stroke="#3D3D3C" stroke-width="0.8" stroke-linecap="round" stroke-linejoin="round"/>
<path d="M76.0736 241.132C76.0736 241.132 79.0731 243.295 83.6652 242.099C83.6652 242.099 83.7892 248.154 86.2001 251.245C88.6109 254.335 94.2363 258.024 94.4659 261.015C94.4659 261.015 94.4659 261.862 91.8828 261.962C91.8828 261.962 82.182 259.968 81.5506 259.171C80.9192 258.373 80.1684 252.757 77.8769 251.743V256.297C77.8769 256.7 77.5007 257.027 77.0366 257.027V257.027C76.5864 257.027 76.2142 256.719 76.1975 256.328C75.9578 250.722 74.186 249.576 74.9494 245.362C75.465 242.517 76.0736 241.132 76.0736 241.132Z" fill="#4F4F5B" stroke="#3D3D3C" stroke-width="0.8" stroke-linecap="round" stroke-linejoin="round"/>
<path d="M58.2858 241.353C58.2858 241.353 61.8328 242.673 65.6535 240.437C65.6535 240.437 65.4919 242.526 66.0733 243.996C66.6547 245.465 65.7623 245.712 65.347 249.896C64.9317 254.079 67.0912 257.47 64.1011 259.922C61.1109 262.374 58.2869 262.879 58.2869 262.879C58.2869 262.879 55.2137 263.024 54.4661 262.158C53.7186 261.293 51.6421 257.037 54.9645 252.925C58.2869 248.814 58.2858 241.353 58.2858 241.353Z" fill="#4F4F5B" stroke="#3D3D3C" stroke-width="0.8" stroke-linecap="round" stroke-linejoin="round"/>
<path d="M87.9835 80.69C87.9835 80.69 82.1769 78.3022 77.0896 78.3276L73.0262 89.2484L64.8718 197.284L74.0754 210.139C87.3824 213.02 96.0988 205.1 96.0988 205.1C98.0517 133.494 88.0567 125.294 87.8289 90.0072" fill="white"/>
<mask id="mask7_43_1728" style="mask-type:alpha" maskUnits="userSpaceOnUse" x="64" y="78" width="33" height="133">
<path fill-rule="evenodd" clip-rule="evenodd" d="M87.9835 80.69C87.9835 80.69 82.1769 78.3022 77.0896 78.3276L73.0262 89.2484L64.8718 197.284L74.0754 210.139C87.3824 213.02 96.0988 205.1 96.0988 205.1C98.0517 133.494 88.0567 125.294 87.8289 90.0072" fill="white"/>
</mask>
<g mask="url(#mask7_43_1728)">
<path d="M104.516 151.148H84.675L84.9889 134.754H104.83L104.516 151.148V151.148Z" fill="#ECEDEE" stroke="#3D3D3C" stroke-width="0.8" stroke-linecap="round" stroke-linejoin="round"/>
<path d="M106.518 136.581L84.2588 136.814L84.6578 131.068H105.302L106.518 136.581V136.581Z" fill="#ECEDEE" stroke="#3D3D3C" stroke-width="0.8" stroke-linecap="round" stroke-linejoin="round"/>
<path d="M81.7609 189.099C88.7913 176.433 87.5981 237.308 92.4759 237.308C97.3537 237.308 69.0232 237.767 69.0232 237.767L72.3858 205.49" fill="#CFCFD0"/>
</g>
<path d="M87.9835 80.69C87.9835 80.69 82.1769 78.3022 77.0896 78.3276L73.0262 89.2484L64.8718 197.284L74.0754 210.139C87.3824 213.02 96.0988 205.1 96.0988 205.1C98.0517 133.494 88.0567 125.294 87.8289 90.0072" stroke="#3D3D3C" stroke-width="0.8" stroke-linecap="round" stroke-linejoin="round"/>
<path d="M50.3863 203.615C63.2654 211.153 84.2587 211.42 84.2587 211.42C84.2587 211.42 81.318 103.227 74.4623 91.5431L64.3939 78.3275C64.3939 78.3275 57.2637 79.5725 54.5769 81.5266C65.1513 130.106 46.2025 133.481 50.3863 203.615Z" fill="white"/>
<mask id="mask8_43_1728" style="mask-type:alpha" maskUnits="userSpaceOnUse" x="49" y="78" width="36" height="134">
<path fill-rule="evenodd" clip-rule="evenodd" d="M50.3863 203.615C63.2654 211.153 84.2587 211.42 84.2587 211.42C84.2587 211.42 81.318 103.227 74.4623 91.5431L64.3939 78.3275C64.3939 78.3275 57.2637 79.5725 54.5769 81.5266C65.1513 130.106 46.2025 133.481 50.3863 203.615Z" fill="white"/>
</mask>
<g mask="url(#mask8_43_1728)">
<path d="M41.591 191.619C63.1541 208.558 84.2588 211.42 84.2588 211.42H29.5476" fill="#CFCFD0"/>
</g>
<path fill-rule="evenodd" clip-rule="evenodd" d="M50.3863 203.615C63.2654 211.153 84.2587 211.42 84.2587 211.42C84.2587 211.42 81.318 103.227 74.4623 91.5431L64.3939 78.3275C64.3939 78.3275 57.2637 79.5725 54.5769 81.5266C65.1513 130.106 46.2025 133.481 50.3863 203.615Z" stroke="#3D3D3C" stroke-width="0.8" stroke-linecap="round" stroke-linejoin="round"/>
<path d="M59.2981 91.5431C70.7683 111.043 50.6858 127.741 65.8984 137.97C81.111 148.199 50.3867 142.559 50.3867 142.559V99.0523L51.8301 97.2018" fill="#CFCFD0"/>
<path d="M75.9147 133.634C75.8914 134.51 76.2199 160.067 76.2199 160.067L39.5798 157.677L36.6602 132.638L75.9147 133.634Z" fill="white" stroke="#3D3D3C" stroke-width="0.8" stroke-linecap="round" stroke-linejoin="round"/>
<path d="M73.6215 135.62C73.5982 136.495 73.9266 162.053 73.9266 162.053L37.2866 159.663L34.3669 134.624L73.6215 135.62Z" fill="#8CE7DF"/>
<mask id="mask9_43_1728" style="mask-type:alpha" maskUnits="userSpaceOnUse" x="34" y="134" width="40" height="29">
<path fill-rule="evenodd" clip-rule="evenodd" d="M73.6215 135.62C73.5982 136.495 73.9266 162.053 73.9266 162.053L37.2866 159.663L34.3669 134.624L73.6215 135.62Z" fill="white"/>
</mask>
<g mask="url(#mask9_43_1728)">
<path d="M50.3865 143.943C45.0055 141.873 42.4944 160.161 29.6359 160.067C16.7775 159.973 51.8418 164.482 51.8418 164.482L58.6067 162.053L57.1522 148.204L53.0636 144.549" fill="#008083"/>
</g>
<path fill-rule="evenodd" clip-rule="evenodd" d="M73.6215 135.62C73.5982 136.495 73.9266 162.053 73.9266 162.053L37.2866 159.663L34.3669 134.624L73.6215 135.62Z" stroke="#3D3D3C" stroke-width="0.8" stroke-linecap="round" stroke-linejoin="round"/>
<path d="M58.6343 148.683C59.566 152.364 59.7878 156.048 61.144 156.633C63.4807 157.642 64.9496 159.631 65.359 160.741C65.4017 160.856 65.3879 160.985 65.3215 161.089C65.255 161.194 65.1433 161.263 65.018 161.277C64.4221 161.346 63.4727 161.374 63.2478 160.905C63.2478 160.905 64.7393 163.149 60.9674 163.285C57.1954 163.422 53.6364 163.254 53.2726 159.065C52.9087 154.876 50.3867 144.874 50.3867 144.874L58.6343 148.683Z" fill="white"/>
<mask id="mask10_43_1728" style="mask-type:alpha" maskUnits="userSpaceOnUse" x="50" y="144" width="16" height="20">
<path fill-rule="evenodd" clip-rule="evenodd" d="M58.6343 148.683C59.566 152.364 59.7878 156.048 61.144 156.633C63.4807 157.642 64.9496 159.631 65.359 160.741C65.4017 160.856 65.3879 160.985 65.3215 161.089C65.255 161.194 65.1433 161.263 65.018 161.277C64.4221 161.346 63.4727 161.374 63.2478 160.905C63.2478 160.905 64.7393 163.149 60.9674 163.285C57.1954 163.422 53.6364 163.254 53.2726 159.065C52.9087 154.876 50.3867 144.874 50.3867 144.874L58.6343 148.683Z" fill="white"/>
</mask>
<g mask="url(#mask10_43_1728)">
<path d="M51.8298 150.146C51.3906 150.74 56.9293 151.687 59.7965 150.309C62.6638 148.932 56.2346 148.544 56.2346 148.544" fill="#CFCFD0"/>
</g>
<path fill-rule="evenodd" clip-rule="evenodd" d="M58.6343 148.683C59.566 152.364 59.7878 156.048 61.144 156.633C63.4807 157.642 64.9496 159.631 65.359 160.741C65.4017 160.856 65.3879 160.985 65.3215 161.089C65.255 161.194 65.1433 161.263 65.018 161.277C64.4221 161.346 63.4727 161.374 63.2478 160.905C63.2478 160.905 64.7393 163.149 60.9674 163.285C57.1954 163.422 53.6364 163.254 53.2726 159.065C52.9087 154.876 50.3867 144.874 50.3867 144.874L58.6343 148.683Z" stroke="#3D3D3C" stroke-width="0.8" stroke-linecap="round" stroke-linejoin="round"/>
<path d="M58.6069 143.066C58.7465 143.434 59.7968 149.535 59.7968 149.535C59.7968 149.535 54.0411 150.847 52.0323 149.628L50.3867 142.559L58.6069 143.066Z" fill="white" stroke="#3D3D3C" stroke-width="0.8" stroke-linecap="round" stroke-linejoin="round"/>
<path d="M63.05 95.5165C62.6838 98.076 60.6764 102.528 59.4562 105.802C55.0914 117.513 62.0654 147.912 62.0654 147.912C58.2232 149.333 49.0979 148.519 49.0979 148.519C49.0979 148.519 40.1658 124.562 41.7877 113.566C42.9455 105.717 50.0388 82.7478 55.1467 81.1599" fill="white"/>
<path d="M63.05 95.5165C62.6838 98.076 60.6764 102.528 59.4562 105.802C55.0914 117.513 62.0654 147.912 62.0654 147.912C58.2232 149.333 49.0979 148.519 49.0979 148.519C49.0979 148.519 40.1658 124.562 41.7877 113.566C42.9455 105.717 50.0388 82.7478 55.1467 81.1599" stroke="#3D3D3C" stroke-width="0.8" stroke-linecap="round" stroke-linejoin="round"/>
<path d="M62.2647 79.2426L61.2988 84.0214L67.2098 84.9389L77.1002 102.103L78.2703 84.6355L83.2035 84.4687L79.7023 78.5953L75.61 77.134L74.1237 86.1958L66.1705 77.5642L62.2647 79.2426V79.2426Z" fill="#ECEDEE" stroke="#3D3D3C" stroke-width="0.8" stroke-linecap="round" stroke-linejoin="round"/>
<ellipse cx="76.2199" cy="105.435" rx="1.82781" ry="1.78665" fill="#4F4F5B" stroke="#3D3D3C" stroke-width="0.8" stroke-linecap="round" stroke-linejoin="round"/>
<ellipse cx="78.7839" cy="135.027" rx="1.82781" ry="1.78665" fill="#4F4F5B" stroke="#3D3D3C" stroke-width="0.8" stroke-linecap="round" stroke-linejoin="round"/>
<path d="M284.237 230.976L289.531 260.309L283.644 260.069L276.571 231.627L284.237 230.976V230.976Z" fill="white"/>
<mask id="mask11_43_1728" style="mask-type:alpha" maskUnits="userSpaceOnUse" x="276" y="230" width="14" height="31">
<path fill-rule="evenodd" clip-rule="evenodd" d="M284.237 230.976L289.531 260.309L283.644 260.069L276.571 231.627L284.237 230.976V230.976Z" fill="white"/>
</mask>
<g mask="url(#mask11_43_1728)">
<path d="M279.301 253.927C283.472 254.132 287.913 251.343 287.913 251.343L281.428 250.297L280.461 251.029" fill="#CFCFD0"/>
</g>
<path fill-rule="evenodd" clip-rule="evenodd" d="M284.237 230.976L289.531 260.309L283.644 260.069L276.571 231.627L284.237 230.976V230.976Z" stroke="#3D3D3C" stroke-width="0.8" stroke-linecap="round" stroke-linejoin="round"/>
<path d="M232.376 231.202L211.342 249.383L208.011 245.269L226.703 223.856L232.376 231.202V231.202Z" fill="white"/>
<mask id="mask12_43_1728" style="mask-type:alpha" maskUnits="userSpaceOnUse" x="208" y="223" width="25" height="27">
<path fill-rule="evenodd" clip-rule="evenodd" d="M232.376 231.202L211.342 249.383L208.011 245.269L226.703 223.856L232.376 231.202V231.202Z" fill="white"/>
</mask>
<g mask="url(#mask12_43_1728)">
<path d="M215.03 238.382C211.705 237.504 216.761 242.893 216.429 246.786C216.098 250.678 221.153 244.091 221.153 244.091L217.589 239.085" fill="#CFCFD0"/>
</g>
<path fill-rule="evenodd" clip-rule="evenodd" d="M232.376 231.202L211.342 249.383L208.011 245.269L226.703 223.856L232.376 231.202V231.202Z" stroke="#3D3D3C" stroke-width="0.8" stroke-linecap="round" stroke-linejoin="round"/>
<path d="M213.96 238.305C213.96 238.305 220.097 247.636 226.696 245.978C226.696 245.978 252.299 211.214 256.038 206.423C259.778 201.633 290.281 160.385 290.281 160.385L273.879 144.941L213.96 238.305Z" fill="#8CE7DF"/>
<path fill-rule="evenodd" clip-rule="evenodd" d="M213.96 238.305C213.96 238.305 220.097 247.636 226.696 245.978C226.696 245.978 252.299 211.214 256.038 206.423C259.778 201.633 290.281 160.385 290.281 160.385L273.879 144.941L213.96 238.305Z" stroke="#3D3D3C" stroke-width="0.8" stroke-linecap="round" stroke-linejoin="round"/>
<path d="M195.983 240.603C199.93 242.111 207.483 244.636 210.025 242.962C210.025 242.962 211.536 246.547 215.03 246.196L209.102 253.236L191.578 241.608V241.608C192.745 240.406 194.453 240.018 195.983 240.603Z" fill="#4F4F5B" stroke="#3D3D3C" stroke-width="0.8" stroke-linecap="round" stroke-linejoin="round"/>
<path d="M268.989 166.608C265.14 179.938 261.373 195.785 263.524 200.702C267.453 209.68 277.729 251.81 277.729 251.81C277.729 251.81 283.051 252.833 293.18 249.583C293.18 249.583 281.339 203.538 277.927 198.215C277.927 198.215 296.445 168.579 295.331 144.62L275.401 146.306" fill="#8CE7DF"/>
<mask id="mask13_43_1728" style="mask-type:alpha" maskUnits="userSpaceOnUse" x="262" y="144" width="34" height="108">
<path fill-rule="evenodd" clip-rule="evenodd" d="M268.989 166.608C265.14 179.938 261.373 195.785 263.524 200.702C267.453 209.68 277.729 251.81 277.729 251.81C277.729 251.81 283.051 252.833 293.18 249.583C293.18 249.583 281.339 203.537 277.927 198.215C277.927 198.215 296.445 168.579 295.331 144.62L275.401 146.306" fill="white"/>
</mask>
<g mask="url(#mask13_43_1728)">
<path d="M283.598 139.228C252.253 150.143 306.063 138.941 284.683 185.603C268.125 221.743 303.427 192.693 303.427 192.693L303.528 151.172L293.098 147.425" fill="#008083"/>
</g>
<path d="M268.989 166.608C265.14 179.938 261.373 195.785 263.524 200.702C267.453 209.68 277.729 251.81 277.729 251.81C277.729 251.81 283.051 252.833 293.18 249.583C293.18 249.583 281.339 203.538 277.927 198.215C277.927 198.215 296.445 168.579 295.331 144.62L275.401 146.306" stroke="#3D3D3C" stroke-width="0.8" stroke-linecap="round" stroke-linejoin="round"/>
<path d="M272.519 262.343C275.871 260.965 281.697 258.202 282.478 255.378C282.478 255.378 286.732 259.99 289.015 257.448L290.28 263.296L269.984 266V266C270.089 264.362 271.075 262.936 272.519 262.343Z" fill="#4F4F5B" stroke="#3D3D3C" stroke-width="0.8" stroke-linecap="round" stroke-linejoin="round"/>
<path d="M263.688 72.0857C264.765 73.0873 261.768 76.8369 260.179 78.8474C260.179 78.8474 255.441 99.5078 257.255 103.081C257.255 103.081 276.436 112.751 276.653 114.678C276.869 116.604 271.45 124.315 271.45 124.315C271.45 124.315 248.059 111.088 247.444 107.507C246.829 103.926 256.793 79.627 256.707 77.8621C256.621 76.0971 256.633 64.8371 263.688 72.0857Z" fill="white"/>
<mask id="mask14_43_1728" style="mask-type:alpha" maskUnits="userSpaceOnUse" x="247" y="69" width="30" height="56">
<path fill-rule="evenodd" clip-rule="evenodd" d="M263.688 72.0857C264.765 73.0873 261.768 76.8369 260.179 78.8474C260.179 78.8474 255.441 99.5078 257.255 103.081C257.255 103.081 276.436 112.751 276.653 114.678C276.869 116.604 271.45 124.315 271.45 124.315C271.45 124.315 248.059 111.088 247.444 107.507C246.829 103.926 256.793 79.627 256.707 77.8621C256.621 76.0971 256.633 64.8371 263.688 72.0857Z" fill="white"/>
</mask>
<g mask="url(#mask14_43_1728)">
<path d="M260.542 107.047C264.648 109.496 254.664 113.343 255.711 118.066C256.758 122.788 262.635 120.191 262.635 120.191" fill="#CFCFD0"/>
</g>
<path fill-rule="evenodd" clip-rule="evenodd" d="M263.688 72.0857C264.765 73.0873 261.768 76.8369 260.179 78.8474C260.179 78.8474 255.441 99.5078 257.255 103.081C257.255 103.081 276.436 112.751 276.653 114.678C276.869 116.604 271.45 124.315 271.45 124.315C271.45 124.315 248.059 111.088 247.444 107.507C246.829 103.926 256.793 79.627 256.707 77.8621C256.621 76.0971 256.633 64.8371 263.688 72.0857Z" stroke="#3D3D3C" stroke-width="0.8" stroke-linecap="round" stroke-linejoin="round"/>
<path d="M263.86 105.378C263.86 105.378 260.3 107.204 257.827 118.174L269.94 126.591L279.151 113.503L263.86 105.378Z" fill="white"/>
<mask id="mask15_43_1728" style="mask-type:alpha" maskUnits="userSpaceOnUse" x="257" y="105" width="23" height="22">
<path fill-rule="evenodd" clip-rule="evenodd" d="M263.86 105.378C263.86 105.378 260.3 107.204 257.827 118.174L269.94 126.591L279.151 113.503L263.86 105.378Z" fill="white"/>
</mask>
<g mask="url(#mask15_43_1728)">
<path d="M259.346 124.315C259.681 123.31 262.816 107.909 266.062 107.713Z" fill="white"/>
<path d="M259.346 124.315C259.681 123.31 262.816 107.909 266.062 107.713" stroke="#3D3D3C" stroke-width="0.8" stroke-linecap="round" stroke-linejoin="round"/>
</g>
<path fill-rule="evenodd" clip-rule="evenodd" d="M263.86 105.378C263.86 105.378 260.3 107.204 257.827 118.174L269.94 126.591L279.151 113.503L263.86 105.378Z" stroke="#3D3D3C" stroke-width="0.8" stroke-linecap="round" stroke-linejoin="round"/>
<path d="M278.292 32.3647L285.493 51.4963C286.3 53.6437 288.139 55.2668 290.413 55.8363L310.619 60.8834C316.336 62.3117 317.897 69.5287 313.259 73.0962L296.87 85.703C295.027 87.1227 294.017 89.3333 294.168 91.6175L295.501 111.961C295.878 117.718 289.338 121.399 284.434 118.19L267.104 106.85C265.158 105.576 262.692 105.32 260.514 106.165L241.132 113.691C235.647 115.821 230.045 110.879 231.652 105.328L237.33 85.7126C237.968 83.509 237.456 81.1406 235.96 79.375L222.648 63.6825C218.881 59.2418 221.958 52.5066 227.856 52.285L248.695 51.5022C251.04 51.4129 253.188 50.2037 254.438 48.2699L265.593 31.0453C268.75 26.1712 276.254 26.9508 278.292 32.3647Z" fill="#8CE7DF"/>
<mask id="mask16_43_1728" style="mask-type:alpha" maskUnits="userSpaceOnUse" x="220" y="27" width="96" height="93">
<path fill-rule="evenodd" clip-rule="evenodd" d="M278.292 32.3647L285.493 51.4963C286.3 53.6437 288.139 55.2668 290.413 55.8363L310.619 60.8834C316.336 62.3117 317.897 69.5287 313.259 73.0962L296.87 85.703C295.027 87.1227 294.017 89.3333 294.168 91.6175L295.501 111.961C295.878 117.718 289.338 121.399 284.434 118.19L267.104 106.85C265.158 105.576 262.692 105.32 260.514 106.165L241.132 113.691C235.647 115.821 230.045 110.879 231.652 105.328L237.33 85.7126C237.968 83.509 237.456 81.1406 235.96 79.375L222.648 63.6825C218.881 59.2418 221.958 52.5066 227.856 52.285L248.695 51.5022C251.04 51.4129 253.188 50.2037 254.438 48.2699L265.593 31.0453C268.75 26.1712 276.254 26.9508 278.292 32.3647Z" fill="white"/>
</mask>
<g mask="url(#mask16_43_1728)">
<path d="M267.48 86.4111C257.819 85.2108 263.988 104.933 251.192 111.439C238.396 117.945 274.334 116.908 274.334 116.908L277.984 124.371" fill="#008083"/>
</g>
<path fill-rule="evenodd" clip-rule="evenodd" d="M278.292 32.3647L285.493 51.4963C286.3 53.6437 288.139 55.2668 290.413 55.8363L310.619 60.8834C316.336 62.3117 317.897 69.5287 313.259 73.0962L296.87 85.703C295.027 87.1227 294.017 89.3333 294.168 91.6175L295.501 111.961C295.878 117.718 289.338 121.399 284.434 118.19L267.104 106.85C265.158 105.576 262.692 105.32 260.514 106.165L241.132 113.691C235.647 115.821 230.045 110.879 231.652 105.328L237.33 85.7126C237.968 83.509 237.456 81.1406 235.96 79.375L222.648 63.6825C218.881 59.2418 221.958 52.5066 227.856 52.285L248.695 51.5022C251.04 51.4129 253.188 50.2037 254.438 48.2699L265.593 31.0453C268.75 26.1712 276.254 26.9508 278.292 32.3647Z" stroke="#3D3D3C" stroke-width="0.8" stroke-linecap="round" stroke-linejoin="round"/>
<ellipse cx="284.683" cy="86.827" rx="8.47863" ry="8.28768" fill="#ECEDEE"/>
<mask id="mask17_43_1728" style="mask-type:alpha" maskUnits="userSpaceOnUse" x="276" y="78" width="18" height="18">
<ellipse cx="284.683" cy="86.827" rx="8.47863" ry="8.28768" fill="white"/>
</mask>
<g mask="url(#mask17_43_1728)">
<ellipse cx="277.335" cy="92.2884" rx="8.69753" ry="8.50165" fill="#4F4F5B" stroke="#3D3D3C" stroke-width="0.8" stroke-linecap="round" stroke-linejoin="round"/>
</g>
<ellipse cx="284.683" cy="86.827" rx="8.47863" ry="8.28768" stroke="#3D3D3C" stroke-width="0.8" stroke-linecap="round" stroke-linejoin="round"/>
<path d="M269.974 102.462C269.987 102.433 271.825 105.808 267.414 114.854L269.787 119.438L277.984 124.371C277.984 124.371 276.528 108.022 281.2 99.9668L268.059 99.4585L269.974 102.462Z" fill="white"/>
<mask id="mask18_43_1728" style="mask-type:alpha" maskUnits="userSpaceOnUse" x="267" y="99" width="15" height="26">
<path fill-rule="evenodd" clip-rule="evenodd" d="M269.974 102.462C269.987 102.433 271.825 105.808 267.414 114.854L269.787 119.438L277.984 124.371C277.984 124.371 276.528 108.022 281.2 99.9668L268.059 99.4585L269.974 102.462Z" fill="white"/>
</mask>
<g mask="url(#mask18_43_1728)">
<path d="M265.751 110.319C274.764 109.828 269.093 105.587 273.703 103.714C278.313 101.84 270.513 101.385 270.513 101.385C270.513 101.385 268.688 102.446 268.719 102.8C268.749 103.153 266.556 106.778 266.556 106.778" fill="#CFCFD0"/>
</g>
<path fill-rule="evenodd" clip-rule="evenodd" d="M269.974 102.462C269.987 102.433 271.825 105.808 267.414 114.854L269.787 119.438L277.984 124.371C277.984 124.371 276.528 108.022 281.2 99.9668L268.059 99.4585L269.974 102.462Z" stroke="#3D3D3C" stroke-width="0.8" stroke-linecap="round" stroke-linejoin="round"/>
<path d="M268.486 86.7083C266.796 88.5804 265.869 90.8722 267.164 95.4137C268.46 99.9551 270.882 91.1185 270.882 91.1185L268.486 86.7083Z" fill="#4F4F5B" stroke="#3D3D3C" stroke-width="0.8" stroke-linecap="round" stroke-linejoin="round"/>
<path d="M274.766 104.1C268.884 106.628 263.856 105.003 266.451 94.5826C269.608 81.9087 276.221 87.7592 276.221 87.7592L281.655 93.9508L278.634 101.923" fill="white"/>
<mask id="mask19_43_1728" style="mask-type:alpha" maskUnits="userSpaceOnUse" x="265" y="86" width="17" height="20">
<path fill-rule="evenodd" clip-rule="evenodd" d="M274.766 104.1C268.884 106.628 263.856 105.003 266.451 94.5826C269.608 81.9087 276.221 87.7592 276.221 87.7592L281.655 93.9508L278.634 101.923" fill="white"/>
</mask>
<g mask="url(#mask19_43_1728)">
<ellipse opacity="0.27" cx="272.683" cy="97.6798" rx="2.58522" ry="2.527" fill="#CFCFD0"/>
</g>
<path d="M274.766 104.1C268.884 106.628 263.856 105.003 266.451 94.5826C269.608 81.9087 276.221 87.7592 276.221 87.7592L281.655 93.9508L278.634 101.923" stroke="#3D3D3C" stroke-width="0.8" stroke-linecap="round" stroke-linejoin="round"/>
<path d="M277.982 98.7263C272.029 98.5168 262.434 92.4044 267.48 86.4111C271.632 81.479 291.871 85.112 280.548 103.125C280.548 103.125 281.021 103.519 277.982 98.7263Z" fill="#ECEDEE" stroke="#3D3D3C" stroke-width="0.8" stroke-linecap="round" stroke-linejoin="round"/>
<path d="M278.966 103.714C279.851 103.644 280.78 103.232 281.529 102.501C282.978 101.084 283.202 99.0061 282.029 97.8594C280.856 96.7127 278.73 96.9315 277.281 98.348C276.86 98.7556 276.528 99.2415 276.304 99.7767" fill="white"/>
<path d="M278.966 103.714C279.851 103.644 280.78 103.232 281.529 102.501C282.978 101.084 283.202 99.0061 282.029 97.8594C280.856 96.7127 278.73 96.9315 277.281 98.348C276.86 98.7556 276.528 99.2415 276.304 99.7767" stroke="#3D3D3C" stroke-width="0.8" stroke-linecap="round" stroke-linejoin="round"/>
<path d="M268.747 109.203L268.774 113.783L278.366 107.825C278.366 107.825 296.928 110.709 298.731 153.654C298.731 153.654 270.242 152.792 270.843 147.938C271.253 144.62 271.516 138.391 267.549 133.079C263.496 127.654 264.498 120.818 266.084 115.984" fill="white"/>
<mask id="mask20_43_1728" style="mask-type:alpha" maskUnits="userSpaceOnUse" x="264" y="107" width="35" height="47">
<path fill-rule="evenodd" clip-rule="evenodd" d="M268.747 109.203L268.774 113.783L278.366 107.825C278.366 107.825 296.928 110.709 298.731 153.654C298.731 153.654 270.242 152.792 270.843 147.938C271.253 144.62 271.516 138.391 267.549 133.079C263.496 127.654 264.498 120.818 266.084 115.984" fill="white"/>
</mask>
<g mask="url(#mask20_43_1728)">
<path d="M285.34 122.555C267.143 156.257 302.534 153.516 302.534 153.516L274.12 154.541L264.981 151.962L271.647 135.495L281.091 121.21L285.34 122.555Z" fill="#CFCFD0"/>
</g>
<path d="M268.747 109.203L268.774 113.783L278.366 107.825C278.366 107.825 296.928 110.709 298.731 153.654C298.731 153.654 270.242 152.792 270.843 147.938C271.253 144.62 271.516 138.391 267.549 133.079C263.496 127.654 264.498 120.818 266.084 115.984" stroke="#3D3D3C" stroke-width="0.8" stroke-linecap="round" stroke-linejoin="round"/>
<path d="M241.576 129.062C228.938 115.658 229.601 131.768 240.217 132.71C240.217 132.71 263.913 145.704 271.253 144.62C278.593 143.536 281.869 128.074 283.452 125.699C285.034 123.325 273.255 119.815 273.255 119.815C273.255 119.815 269.431 132.209 266.684 133.412C262.193 135.38 241.576 129.062 241.576 129.062Z" fill="white"/>
<mask id="mask21_43_1728" style="mask-type:alpha" maskUnits="userSpaceOnUse" x="232" y="119" width="52" height="26">
<path fill-rule="evenodd" clip-rule="evenodd" d="M241.576 129.062C228.938 115.658 229.601 131.768 240.217 132.71C240.217 132.71 263.913 145.704 271.253 144.62C278.593 143.536 281.869 128.074 283.452 125.699C285.034 123.325 273.255 119.815 273.255 119.815C273.255 119.815 269.431 132.209 266.684 133.412C262.193 135.38 241.576 129.062 241.576 129.062Z" fill="white"/>
</mask>
<g mask="url(#mask21_43_1728)">
<path d="M270.526 127.51C264.568 127.274 278.479 132.185 277.224 139.158C275.969 146.131 285.183 135.535 285.183 135.535L283.48 131.019" fill="#CFCFD0"/>
</g>
<path fill-rule="evenodd" clip-rule="evenodd" d="M241.576 129.062C228.938 115.658 229.601 131.768 240.217 132.71C240.217 132.71 263.913 145.704 271.253 144.62C278.593 143.536 281.869 128.074 283.452 125.699C285.034 123.325 273.255 119.815 273.255 119.815C273.255 119.815 269.431 132.209 266.684 133.412C262.193 135.38 241.576 129.062 241.576 129.062Z" stroke="#3D3D3C" stroke-width="0.8" stroke-linecap="round" stroke-linejoin="round"/>
<path d="M274.334 116.908C270.948 121.445 268.99 128.365 268.99 128.365L282.277 134.464C282.277 134.464 285.691 127.78 286.266 122.052" fill="white"/>
<mask id="mask22_43_1728" style="mask-type:alpha" maskUnits="userSpaceOnUse" x="268" y="116" width="19" height="19">
<path fill-rule="evenodd" clip-rule="evenodd" d="M274.334 116.908C270.948 121.445 268.99 128.365 268.99 128.365L282.277 134.464C282.277 134.464 285.691 127.78 286.266 122.052" fill="white"/>
</mask>
<g mask="url(#mask22_43_1728)">
<path d="M264.13 125.029C278.435 126.175 284.448 133.586 284.448 133.586Z" fill="white"/>
<path d="M264.13 125.029C278.435 126.175 284.448 133.586 284.448 133.586" stroke="#3D3D3C" stroke-width="0.8" stroke-linecap="round" stroke-linejoin="round"/>
</g>
<path d="M274.334 116.908C270.948 121.445 268.99 128.365 268.99 128.365L282.277 134.464C282.277 134.464 285.691 127.78 286.266 122.052" stroke="#3D3D3C" stroke-width="0.8" stroke-linecap="round" stroke-linejoin="round"/>
<path d="M216.529 233.479L213.96 238.305C213.96 238.305 216.537 247.318 226.696 245.978L230.492 241.221C230.492 241.221 223.784 243.627 216.529 233.479Z" fill="white" stroke="#3D3D3C" stroke-width="0.8" stroke-linecap="round" stroke-linejoin="round"/>
<path d="M276.035 246.417L277.393 252.023C277.393 252.023 280.132 255.378 293.508 249.561L292.634 243.589C292.634 243.589 279.557 247.837 276.035 246.417Z" fill="white" stroke="#3D3D3C" stroke-width="0.8" stroke-linecap="round" stroke-linejoin="round"/>
<path d="M279.138 158.09C272.574 167.092 285.34 172.329 285.34 172.329" stroke="#3D3D3C" stroke-width="0.8" stroke-linecap="round" stroke-linejoin="round"/>
<path d="M268.256 97.7402V97.7402C268.451 97.8014 268.662 97.7847 268.844 97.6937C269.026 97.6028 269.163 97.4451 269.225 97.2555L269.625 96.0462C269.756 95.6513 269.534 95.2276 269.129 95.0989V95.0989C268.935 95.0377 268.723 95.0544 268.541 95.1453C268.359 95.2363 268.222 95.394 268.16 95.5836L267.76 96.7928C267.629 97.1878 267.851 97.6115 268.256 97.7402V97.7402Z" fill="#4F4F5B"/>
<path d="M269.269 92.4978C271.513 93.1006 271.709 94.1527 270.281 93.8653C268.853 93.5779 267.803 92.104 269.269 92.4978Z" fill="#4F4F5B"/>
<path d="M266.842 95.4564C263.747 96.7472 264.285 99.7929 266.341 99.4284Z" fill="white"/>
<path d="M266.842 95.4564C263.747 96.7472 264.285 99.7929 266.341 99.4284" stroke="#3D3D3C" stroke-width="0.8" stroke-linecap="round" stroke-linejoin="round"/>
<path d="M270.127 99.986C269.109 101.099 268.03 100.475 268.03 100.475Z" fill="white"/>
<path d="M270.127 99.986C269.109 101.099 268.03 100.475 268.03 100.475" stroke="#3D3D3C" stroke-width="0.8" stroke-linecap="round" stroke-linejoin="round"/>
<path d="M215.73 157.128C229.202 154.057 242.213 156.813 253.469 164.071C255.879 206.52 244.079 245.065 224.943 262.007C203.648 254.28 185.664 222.523 180.668 180.663C190.24 168.658 202.257 160.198 215.73 157.128Z" fill="#ECEDEE" stroke="#3D3D3C" stroke-width="0.8" stroke-linecap="round" stroke-linejoin="round"/>
<path d="M217.564 165.122C228.518 162.626 239.098 164.866 248.251 170.768C250.211 205.285 240.616 236.627 225.056 250.404C207.739 244.12 193.116 218.298 189.054 184.26C196.837 174.498 206.609 167.619 217.564 165.122Z" fill="#8CE7DF"/>
<path fill-rule="evenodd" clip-rule="evenodd" d="M217.564 165.122C228.518 162.626 239.098 164.866 248.251 170.768C250.211 205.285 240.616 236.627 225.056 250.404C207.739 244.12 193.116 218.298 189.054 184.26C196.837 174.498 206.609 167.619 217.564 165.122Z" stroke="#3D3D3C" stroke-width="0.8" stroke-linecap="round" stroke-linejoin="round"/>
<path d="M217.664 168.599C227.715 166.308 237.421 168.364 245.819 173.779C247.617 205.448 238.814 234.204 224.538 246.844C208.65 241.079 195.233 217.387 191.506 186.158C198.647 177.201 207.613 170.889 217.664 168.599Z" fill="white"/>
<path fill-rule="evenodd" clip-rule="evenodd" d="M217.664 168.599C227.715 166.308 237.421 168.364 245.819 173.779C247.617 205.448 238.814 234.204 224.538 246.844C208.65 241.079 195.233 217.387 191.506 186.158C198.647 177.201 207.613 170.889 217.664 168.599Z" stroke="#3D3D3C" stroke-width="0.8" stroke-linecap="round" stroke-linejoin="round"/>
<path d="M183.292 196.629C182.207 191.503 181.325 186.17 180.668 180.663L167.556 179.913C168.213 185.42 169.095 190.752 170.18 195.878C177.341 229.713 193.337 254.546 211.831 261.257L224.943 262.007C206.449 255.296 190.453 230.463 183.292 196.629Z" fill="white"/>
<mask id="mask23_43_1728" style="mask-type:alpha" maskUnits="userSpaceOnUse" x="167" y="179" width="58" height="84">
<path fill-rule="evenodd" clip-rule="evenodd" d="M183.292 196.629C182.207 191.503 181.325 186.17 180.668 180.663L167.556 179.913C168.213 185.42 169.095 190.752 170.18 195.878C177.341 229.713 193.337 254.546 211.831 261.257L224.943 262.007C206.449 255.296 190.453 230.463 183.292 196.629Z" fill="white"/>
</mask>
<g mask="url(#mask23_43_1728)">
<path d="M172.028 207.259C202.432 260.465 232.541 262.007 232.541 262.007L207.039 280.182L169.955 258.343L170.416 216.015" fill="#F5F6F7"/>
</g>
<path fill-rule="evenodd" clip-rule="evenodd" d="M183.292 196.629C182.207 191.503 181.325 186.17 180.668 180.663L167.556 179.913C168.213 185.42 169.095 190.752 170.18 195.878C177.341 229.713 193.337 254.546 211.831 261.257L224.943 262.007C206.449 255.296 190.453 230.463 183.292 196.629Z" stroke="#3D3D3C" stroke-width="0.8" stroke-linecap="round" stroke-linejoin="round"/>
<path d="M224.943 262.007L211.831 261.257C190.535 253.529 172.551 221.773 167.556 179.913L180.668 180.663C185.664 222.523 203.647 254.279 224.943 262.007Z" fill="white" stroke="#3D3D3C" stroke-width="0.8" stroke-linecap="round" stroke-linejoin="round"/>
<path d="M180.668 180.663L167.556 179.913C177.127 167.907 189.145 159.448 202.617 156.377L215.729 157.128C202.257 160.198 190.24 168.658 180.668 180.663Z" fill="#4F4F5B"/>
<path fill-rule="evenodd" clip-rule="evenodd" d="M180.668 180.663L167.556 179.913C177.127 167.907 189.145 159.448 202.617 156.377L215.729 157.128C202.257 160.198 190.24 168.658 180.668 180.663Z" stroke="#3D3D3C" stroke-width="0.8" stroke-linecap="round" stroke-linejoin="round"/>
<path d="M222.523 156.064C222.597 156.058 222.67 156.057 222.744 156.051C223.682 155.975 224.616 155.933 225.546 155.913C225.802 155.907 226.057 155.903 226.312 155.901C227.306 155.895 228.298 155.909 229.282 155.965V155.965L223.089 155.611L216.17 155.215C216.168 155.215 216.165 155.215 216.163 155.215C215.182 155.159 214.194 155.145 213.203 155.151C212.946 155.152 212.688 155.157 212.431 155.162C211.503 155.183 210.572 155.225 209.637 155.3C209.561 155.306 209.485 155.308 209.409 155.314C208.622 155.382 207.833 155.468 207.043 155.574C206.823 155.604 206.601 155.646 206.381 155.679C206.144 155.714 205.908 155.752 205.671 155.791C204.656 155.958 203.638 156.145 202.617 156.377C200.03 156.969 197.493 157.754 195.031 158.727C189.175 161.032 183.66 164.379 178.578 168.593C174.627 171.869 170.939 175.67 167.556 179.913L180.668 180.664C184.051 176.42 187.74 172.62 191.69 169.344C196.772 165.129 202.287 161.782 208.143 159.477C210.606 158.505 213.142 157.719 215.729 157.128C216.75 156.895 217.767 156.708 218.782 156.542C219.02 156.503 219.258 156.464 219.495 156.429C220.507 156.278 221.518 156.151 222.523 156.064Z" fill="#4F4F5B" stroke="#3D3D3C" stroke-width="0.8" stroke-linecap="round" stroke-linejoin="round"/>
<path d="M228.598 183.868C231.604 184.052 234.368 186.26 235.153 189.103Z" fill="#F5F6F7"/>
<path d="M228.598 183.868C231.604 184.052 234.368 186.26 235.153 189.103" stroke="#3D3D3C" stroke-width="0.8" stroke-linecap="round" stroke-linejoin="round"/>
<path d="M221.551 221.369L223.559 223.799Z" fill="#F5F6F7"/>
<path d="M221.551 221.369L223.559 223.799" stroke="#3D3D3C" stroke-width="0.8" stroke-linecap="round" stroke-linejoin="round"/>
</svg>
