<svg width="348" height="286" viewBox="0 0 348 286" fill="none" xmlns="http://www.w3.org/2000/svg">
<path opacity="0.15" d="M67.5897 209.561C77.9568 216.589 91.3036 220.935 106.1 221.732C106.107 221.794 106.11 221.857 106.117 221.92C110.64 265.65 160.407 293.534 217.274 284.199C271.435 275.309 312.502 235.864 312.38 194.35C335.308 180.768 349.638 158.804 347.34 136.584C345.88 122.468 337.952 110.62 325.976 102.385C332.204 90.2753 335.083 77.2106 333.725 64.0803C329.202 20.3495 279.435 -7.53412 222.568 1.80049C186.51 7.71934 156.261 27.1831 140.101 51.7818C126.2 49.0771 110.929 48.7896 95.1075 51.3867C38.2404 60.7213 -4.19268 103.739 0.330509 147.47C3.6282 179.352 30.9768 202.806 67.5897 209.561Z" fill="#8CE7DF"/>
<circle opacity="0.87" cx="134.254" cy="158.467" r="35.428" fill="white"/>
<circle cx="128.319" cy="68.2274" r="7.51221" fill="#8CE7DF"/>
<circle cx="311.208" cy="199.552" r="3.80248" fill="#8CE7DF"/>
<circle opacity="0.3" cx="58.3899" cy="226.169" r="7.51221" fill="#8CE7DF"/>
<path d="M221.423 241.016C194.765 225.736 183.539 234.938 201.522 242.338C219.505 249.738 216.979 246.407 216.979 246.407" fill="white"/>
<path d="M221.423 241.016C194.765 225.736 183.539 234.938 201.522 242.338C219.505 249.738 216.979 246.407 216.979 246.407" stroke="#3D3D3C" stroke-width="0.8" stroke-linecap="round" stroke-linejoin="round"/>
<path d="M261.233 178.881C249.627 202.34 227.13 237.082 227.13 237.082Z" fill="#8CE7DF"/>
<path d="M261.233 178.881C249.627 202.34 227.13 237.082 227.13 237.082" stroke="#3D3D3C" stroke-width="0.8" stroke-linecap="round" stroke-linejoin="round"/>
<path d="M267.125 204.31C256.901 216.817 228.849 241.016 228.849 241.016Z" fill="#8CE7DF"/>
<path d="M267.125 204.31C256.901 216.817 228.849 241.016 228.849 241.016" stroke="#3D3D3C" stroke-width="0.8" stroke-linecap="round" stroke-linejoin="round"/>
<path d="M217.396 249.117C314.842 192.326 320.896 236.729 215.057 251.854L217.396 249.117Z" fill="#8CE7DF" stroke="#3D3D3C" stroke-width="0.8" stroke-linecap="round" stroke-linejoin="round"/>
<path d="M287.055 226.517C271.371 234.08 230.88 247.476 230.88 247.476Z" fill="#8CE7DF"/>
<path d="M287.055 226.517C271.371 234.08 230.88 247.476 230.88 247.476" stroke="#3D3D3C" stroke-width="0.8" stroke-linecap="round" stroke-linejoin="round"/>
<path d="M241.945 200.34L239.45 204.313Z" fill="#F5F6F7"/>
<path d="M241.945 200.34L239.45 204.313" stroke="#3D3D3C" stroke-width="0.8" stroke-linecap="round" stroke-linejoin="round"/>
<path d="M250.399 225.732C251.235 225.619 251.972 225.123 252.39 224.39Z" fill="#8CE7DF"/>
<path d="M250.399 225.732C251.235 225.619 251.972 225.123 252.39 224.39" stroke="#3D3D3C" stroke-width="0.8" stroke-linecap="round" stroke-linejoin="round"/>
<path d="M265.712 232.407L265.934 232.185Z" fill="#F5F6F7"/>
<path d="M265.712 232.407L265.934 232.185" stroke="#3D3D3C" stroke-width="0.8" stroke-linecap="round" stroke-linejoin="round"/>
<path d="M203.786 239.535C204.207 240.173 204.837 240.645 205.568 240.867Z" fill="#F5F6F7"/>
<path d="M203.786 239.535C204.207 240.173 204.837 240.645 205.568 240.867" stroke="#3D3D3C" stroke-width="0.8" stroke-linecap="round" stroke-linejoin="round"/>
<path d="M136.66 225.847C146.373 240.581 174.655 191.841 171.88 173.247C171.88 173.247 125.994 209.669 136.66 225.847Z" fill="#8CE7DF" stroke="#3D3D3C" stroke-width="0.8" stroke-linecap="round" stroke-linejoin="round"/>
<path d="M174.345 223.862C184.059 238.596 191.82 189.513 185.824 170.866C185.824 170.866 163.679 207.684 174.345 223.862Z" fill="#8CE7DF" stroke="#3D3D3C" stroke-width="0.8" stroke-linecap="round" stroke-linejoin="round"/>
<path d="M197.174 196.961C204.015 207.338 214.279 186.145 198.855 164.8C198.855 164.8 189.662 185.567 197.174 196.961Z" fill="#8CE7DF" stroke="#3D3D3C" stroke-width="0.8" stroke-linecap="round" stroke-linejoin="round"/>
<path d="M105.965 203.428C99.0235 219.662 153.193 190.705 161.813 174.01C161.813 174.01 114.106 184.387 105.965 203.428Z" fill="#8CE7DF" stroke="#3D3D3C" stroke-width="0.8" stroke-linecap="round" stroke-linejoin="round"/>
<path d="M148.35 170.322C148.35 170.322 107.012 201.623 88.5632 180.743C88.5632 180.743 103.937 159.384 148.35 170.322Z" fill="#8CE7DF" stroke="#3D3D3C" stroke-width="0.8" stroke-linecap="round" stroke-linejoin="round"/>
<path d="M218.725 150.424C218.619 150.536 207.995 161.759 192.571 168.894C178.253 175.517 156.764 179.899 135.7 163.161L136.338 162.354C152.662 175.326 171.629 176.586 191.774 167.283C206.894 160.301 217.316 149.303 217.419 149.193L218.725 150.424Z" fill="#8CE7DF" stroke="#3D3D3C" stroke-width="0.8" stroke-linecap="round" stroke-linejoin="round"/>
<path d="M151.639 171.913C151.639 171.913 145.711 166.104 140.228 152.119C133.481 134.909 118.151 130.709 118.151 130.709C118.151 130.709 126.733 153.671 151.639 171.913Z" fill="#8CE7DF" stroke="#3D3D3C" stroke-width="0.8" stroke-linecap="round" stroke-linejoin="round"/>
<path d="M164.48 173.829C164.48 173.829 144.051 165.535 136.91 134.102C136.91 134.102 146.52 136.494 154.854 153.043C163.189 169.593 164.48 173.829 164.48 173.829Z" fill="#8CE7DF" stroke="#3D3D3C" stroke-width="0.8" stroke-linecap="round" stroke-linejoin="round"/>
<path d="M181.913 171.925C181.913 171.925 160.844 170.27 153.703 138.837C153.703 138.837 163.953 134.59 172.288 151.14C180.622 167.689 181.913 171.925 181.913 171.925Z" fill="#8CE7DF" stroke="#3D3D3C" stroke-width="0.8" stroke-linecap="round" stroke-linejoin="round"/>
<path d="M196.452 166.173C196.452 166.173 175.383 164.519 168.242 133.086C168.242 133.086 178.492 128.839 186.827 145.388C195.162 161.938 196.452 166.173 196.452 166.173Z" fill="#8CE7DF" stroke="#3D3D3C" stroke-width="0.8" stroke-linecap="round" stroke-linejoin="round"/>
<path d="M137.659 163.828C137.659 163.828 104.093 163.19 99.5398 139.835C99.5398 139.835 121.394 136.622 137.659 163.828Z" fill="#8CE7DF" stroke="#3D3D3C" stroke-width="0.8" stroke-linecap="round" stroke-linejoin="round"/>
<path d="M112.377 176.528L113.959 177.065Z" fill="#8CE7DF"/>
<path d="M112.377 176.528L113.959 177.065" stroke="#3D3D3C" stroke-width="0.8" stroke-linecap="round" stroke-linejoin="round"/>
<path d="M124.785 152.571C125.013 152.988 125.328 153.349 125.71 153.631Z" fill="#8CE7DF"/>
<path d="M124.785 152.571C125.013 152.988 125.328 153.349 125.71 153.631" stroke="#3D3D3C" stroke-width="0.8" stroke-linecap="round" stroke-linejoin="round"/>
<path d="M139.455 157.868L139.59 158.264Z" fill="#8CE7DF"/>
<path d="M139.455 157.868L139.59 158.264" stroke="#3D3D3C" stroke-width="0.8" stroke-linecap="round" stroke-linejoin="round"/>
<path d="M148.825 150.451C148.756 151.138 148.896 151.83 149.226 152.436Z" fill="#8CE7DF"/>
<path d="M148.825 150.451C148.756 151.138 148.896 151.83 149.226 152.436" stroke="#3D3D3C" stroke-width="0.8" stroke-linecap="round" stroke-linejoin="round"/>
<path d="M168.772 157.605C168.755 158.222 168.94 158.827 169.298 159.329Z" fill="#8CE7DF"/>
<path d="M168.772 157.605C168.755 158.222 168.94 158.827 169.298 159.329" stroke="#3D3D3C" stroke-width="0.8" stroke-linecap="round" stroke-linejoin="round"/>
<path d="M184.481 153.505L185.269 154.569Z" fill="#8CE7DF"/>
<path d="M184.481 153.505L185.269 154.569" stroke="#3D3D3C" stroke-width="0.8" stroke-linecap="round" stroke-linejoin="round"/>
<path d="M139.328 189.551L140.384 188.755Z" fill="#8CE7DF"/>
<path d="M139.328 189.551L140.384 188.755" stroke="#3D3D3C" stroke-width="0.8" stroke-linecap="round" stroke-linejoin="round"/>
<path d="M158.053 204.094L159.379 202.243Z" fill="#8CE7DF"/>
<path d="M158.053 204.094L159.379 202.243" stroke="#3D3D3C" stroke-width="0.8" stroke-linecap="round" stroke-linejoin="round"/>
<path d="M181.32 197.484V196.954Z" fill="#8CE7DF"/>
<path d="M181.32 197.484V196.954" stroke="#3D3D3C" stroke-width="0.8" stroke-linecap="round" stroke-linejoin="round"/>
<path d="M198.214 187.942L198.796 184.772Z" fill="#8CE7DF"/>
<path d="M198.214 187.942L198.796 184.772" stroke="#3D3D3C" stroke-width="0.8" stroke-linecap="round" stroke-linejoin="round"/>
<rect x="151.554" y="122.042" width="8.03904" height="11.0195" rx="3.54779" fill="white" stroke="#3D3D3C" stroke-width="0.8" stroke-linecap="round" stroke-linejoin="round"/>
<rect x="151.554" y="134.701" width="8.03904" height="11.0195" rx="3.54779" fill="white" stroke="#3D3D3C" stroke-width="0.8" stroke-linecap="round" stroke-linejoin="round"/>
<rect x="153.644" y="91.8137" width="88.0434" height="165.778" rx="12.2198" fill="white" stroke="#3D3D3C" stroke-width="0.8" stroke-linecap="round" stroke-linejoin="round"/>
<path d="M226.828 95.8693H221.065C219.209 95.8693 217.704 97.4062 217.704 99.3022V99.3022C217.704 101.198 216.2 102.735 214.344 102.735H180.988C179.131 102.735 177.627 101.198 177.627 99.3022V99.3022C177.627 97.4062 176.122 95.8693 174.266 95.8693H168.504C162.806 95.8693 158.186 100.588 158.186 106.409V240.546C158.186 246.366 162.806 251.085 168.504 251.085H226.828C232.526 251.085 237.145 246.366 237.145 240.546V106.409C237.145 100.588 232.526 95.8693 226.828 95.8693Z" fill="#8CE7DF"/>
<path fill-rule="evenodd" clip-rule="evenodd" d="M226.828 95.8693H221.065C219.209 95.8693 217.704 97.4062 217.704 99.3022V99.3022C217.704 101.198 216.2 102.735 214.344 102.735H180.988C179.131 102.735 177.627 101.198 177.627 99.3022V99.3022C177.627 97.4062 176.122 95.8693 174.266 95.8693H168.504C162.806 95.8693 158.186 100.588 158.186 106.409V240.546C158.186 246.366 162.806 251.085 168.504 251.085H226.828C232.526 251.085 237.145 246.366 237.145 240.546V106.409C237.145 100.588 232.526 95.8693 226.828 95.8693Z" stroke="#3D3D3C" stroke-width="0.8" stroke-linecap="round" stroke-linejoin="round"/>
<rect x="164.003" y="116.122" width="67.326" height="67.5274" rx="6.62025" fill="white" stroke="#3D3D3C" stroke-width="0.8" stroke-linecap="round" stroke-linejoin="round"/>
<path fill-rule="evenodd" clip-rule="evenodd" d="M199.296 122.095V148.251H225.373V122.095H199.296ZM196.036 148.251H169.958V122.095H196.036V148.251ZM189.517 128.634H176.478V141.712H189.517V128.634ZM205.815 141.712H218.854V128.634H205.815V141.712ZM179.737 138.442H186.257V131.903H179.737L179.737 138.442ZM196.036 177.676H169.958L169.958 151.52H196.036V177.676ZM176.478 158.059H189.517V171.137H176.478L176.478 158.059ZM209.075 131.903H215.594V138.442H209.075V131.903ZM199.296 177.676H205.815V171.137H199.296V177.676ZM205.815 171.137V158.059L212.335 158.059V171.137H205.815ZM218.854 171.137H212.335V177.676H225.373V164.598H218.854L218.854 171.137ZM225.373 158.059H218.854L218.854 151.52H225.373V158.059ZM199.296 151.52V158.059H205.815V151.52H199.296ZM186.257 167.867H179.737L179.737 161.328H186.257V167.867Z" fill="#8CE7DF"/>
<path d="M199.296 148.251H198.896C198.896 148.472 199.075 148.651 199.296 148.651V148.251ZM199.296 122.095V121.695C199.075 121.695 198.896 121.874 198.896 122.095H199.296ZM225.373 148.251V148.651C225.594 148.651 225.773 148.472 225.773 148.251H225.373ZM225.373 122.095H225.773C225.773 121.874 225.594 121.695 225.373 121.695V122.095ZM169.958 148.251H169.558C169.558 148.472 169.737 148.651 169.958 148.651V148.251ZM196.036 148.251V148.651C196.257 148.651 196.436 148.472 196.436 148.251H196.036ZM169.958 122.095V121.695C169.737 121.695 169.558 121.874 169.558 122.095H169.958ZM196.036 122.095H196.436C196.436 121.874 196.257 121.695 196.036 121.695V122.095ZM176.478 128.634V128.234C176.257 128.234 176.078 128.413 176.078 128.634H176.478ZM189.517 128.634H189.917C189.917 128.413 189.737 128.234 189.517 128.234V128.634ZM176.478 141.712H176.078C176.078 141.933 176.257 142.112 176.478 142.112V141.712ZM189.517 141.712V142.112C189.737 142.112 189.917 141.933 189.917 141.712H189.517ZM218.854 141.712V142.112C219.075 142.112 219.254 141.933 219.254 141.712H218.854ZM205.815 141.712H205.415C205.415 141.933 205.594 142.112 205.815 142.112V141.712ZM218.854 128.634H219.254C219.254 128.413 219.075 128.234 218.854 128.234V128.634ZM205.815 128.634V128.234C205.594 128.234 205.415 128.413 205.415 128.634H205.815ZM186.257 138.442V138.842C186.478 138.842 186.657 138.663 186.657 138.442H186.257ZM179.737 138.442L179.337 138.442C179.337 138.548 179.379 138.65 179.454 138.725C179.529 138.8 179.631 138.842 179.737 138.842V138.442ZM186.257 131.903H186.657C186.657 131.683 186.478 131.503 186.257 131.503V131.903ZM179.737 131.903V131.503C179.516 131.503 179.337 131.683 179.337 131.903L179.737 131.903ZM169.958 177.676L169.558 177.676C169.558 177.782 169.6 177.884 169.675 177.959C169.75 178.034 169.852 178.076 169.958 178.076V177.676ZM196.036 177.676V178.076C196.257 178.076 196.436 177.897 196.436 177.676H196.036ZM169.958 151.52V151.12C169.737 151.12 169.558 151.299 169.558 151.52L169.958 151.52ZM196.036 151.52H196.436C196.436 151.299 196.257 151.12 196.036 151.12V151.52ZM189.517 158.059H189.917C189.917 157.838 189.737 157.659 189.517 157.659V158.059ZM176.478 158.059V157.659C176.372 157.659 176.27 157.701 176.195 157.776C176.12 157.851 176.078 157.953 176.078 158.059L176.478 158.059ZM189.517 171.137V171.537C189.737 171.537 189.917 171.358 189.917 171.137H189.517ZM176.478 171.137L176.078 171.137C176.078 171.358 176.257 171.537 176.478 171.537V171.137ZM215.594 131.903H215.994C215.994 131.683 215.815 131.503 215.594 131.503V131.903ZM209.075 131.903V131.503C208.854 131.503 208.675 131.683 208.675 131.903H209.075ZM215.594 138.442V138.842C215.815 138.842 215.994 138.663 215.994 138.442H215.594ZM209.075 138.442H208.675C208.675 138.663 208.854 138.842 209.075 138.842V138.442ZM205.815 177.676V178.076C206.036 178.076 206.215 177.897 206.215 177.676H205.815ZM199.296 177.676H198.896C198.896 177.897 199.075 178.076 199.296 178.076V177.676ZM205.815 171.137H206.215C206.215 170.916 206.036 170.737 205.815 170.737V171.137ZM199.296 171.137V170.737C199.075 170.737 198.896 170.916 198.896 171.137H199.296ZM205.815 158.059L205.815 157.659C205.709 157.659 205.607 157.701 205.532 157.776C205.457 157.851 205.415 157.953 205.415 158.059H205.815ZM205.815 171.137H205.415C205.415 171.358 205.594 171.537 205.815 171.537V171.137ZM212.335 158.059H212.735C212.735 157.838 212.556 157.659 212.335 157.659L212.335 158.059ZM212.335 171.137V171.537C212.556 171.537 212.735 171.358 212.735 171.137H212.335ZM212.335 171.137V170.737C212.114 170.737 211.935 170.916 211.935 171.137H212.335ZM218.854 171.137V171.537C219.075 171.537 219.254 171.358 219.254 171.137L218.854 171.137ZM212.335 177.676H211.935C211.935 177.897 212.114 178.076 212.335 178.076V177.676ZM225.373 177.676V178.076C225.594 178.076 225.773 177.897 225.773 177.676H225.373ZM225.373 164.598H225.773C225.773 164.377 225.594 164.198 225.373 164.198V164.598ZM218.854 164.598V164.198C218.633 164.198 218.454 164.377 218.454 164.598L218.854 164.598ZM218.854 158.059L218.454 158.059C218.454 158.165 218.496 158.267 218.571 158.342C218.646 158.417 218.748 158.459 218.854 158.459V158.059ZM225.373 158.059V158.459C225.594 158.459 225.773 158.28 225.773 158.059H225.373ZM218.854 151.52V151.12C218.633 151.12 218.454 151.299 218.454 151.52L218.854 151.52ZM225.373 151.52H225.773C225.773 151.299 225.594 151.12 225.373 151.12V151.52ZM199.296 158.059H198.896C198.896 158.28 199.075 158.459 199.296 158.459V158.059ZM199.296 151.52V151.12C199.075 151.12 198.896 151.299 198.896 151.52H199.296ZM205.815 158.059V158.459C206.036 158.459 206.215 158.28 206.215 158.059H205.815ZM205.815 151.52H206.215C206.215 151.299 206.036 151.12 205.815 151.12V151.52ZM179.737 167.867L179.337 167.867C179.337 167.973 179.379 168.075 179.454 168.15C179.529 168.225 179.631 168.267 179.737 168.267V167.867ZM186.257 167.867V168.267C186.478 168.267 186.657 168.088 186.657 167.867H186.257ZM179.737 161.328V160.928C179.516 160.928 179.337 161.107 179.337 161.328L179.737 161.328ZM186.257 161.328H186.657C186.657 161.107 186.478 160.928 186.257 160.928V161.328ZM199.696 148.251V122.095H198.896V148.251H199.696ZM225.373 147.851H199.296V148.651H225.373V147.851ZM224.973 122.095V148.251H225.773V122.095H224.973ZM199.296 122.495H225.373V121.695H199.296V122.495ZM169.958 148.651H196.036V147.851H169.958V148.651ZM169.558 122.095V148.251H170.358V122.095H169.558ZM196.036 121.695H169.958V122.495H196.036V121.695ZM196.436 148.251V122.095H195.636V148.251H196.436ZM176.478 129.034H189.517V128.234H176.478V129.034ZM176.878 141.712V128.634H176.078V141.712H176.878ZM189.517 141.312H176.478V142.112H189.517V141.312ZM189.117 128.634V141.712H189.917V128.634H189.117ZM218.854 141.312H205.815V142.112H218.854V141.312ZM218.454 128.634V141.712H219.254V128.634H218.454ZM205.815 129.034H218.854V128.234H205.815V129.034ZM206.215 141.712V128.634H205.415V141.712H206.215ZM186.257 138.042H179.737V138.842H186.257V138.042ZM185.857 131.903V138.442H186.657V131.903H185.857ZM179.737 132.303H186.257V131.503H179.737V132.303ZM180.137 138.442L180.137 131.903L179.337 131.903L179.337 138.442L180.137 138.442ZM169.958 178.076H196.036V177.276H169.958V178.076ZM169.558 151.52L169.558 177.676L170.358 177.676L170.358 151.52L169.558 151.52ZM196.036 151.12H169.958V151.92H196.036V151.12ZM196.436 177.676V151.52H195.636V177.676H196.436ZM189.517 157.659H176.478V158.459H189.517V157.659ZM189.917 171.137V158.059H189.117V171.137H189.917ZM176.478 171.537H189.517V170.737H176.478V171.537ZM176.078 158.059L176.078 171.137L176.878 171.137L176.878 158.059L176.078 158.059ZM215.594 131.503H209.075V132.303H215.594V131.503ZM215.994 138.442V131.903H215.194V138.442H215.994ZM209.075 138.842H215.594V138.042H209.075V138.842ZM208.675 131.903V138.442H209.475V131.903H208.675ZM205.815 177.276H199.296V178.076H205.815V177.276ZM205.415 171.137V177.676H206.215V171.137H205.415ZM199.296 171.537H205.815V170.737H199.296V171.537ZM199.696 177.676V171.137H198.896V177.676H199.696ZM205.415 158.059V171.137H206.215V158.059H205.415ZM212.335 157.659L205.815 157.659L205.815 158.459L212.335 158.459L212.335 157.659ZM212.735 171.137V158.059H211.935V171.137H212.735ZM205.815 171.537H212.335V170.737H205.815V171.537ZM212.335 171.537H218.854V170.737H212.335V171.537ZM212.735 177.676V171.137H211.935V177.676H212.735ZM225.373 177.276H212.335V178.076H225.373V177.276ZM224.973 164.598V177.676H225.773V164.598H224.973ZM218.854 164.998H225.373V164.198H218.854V164.998ZM219.254 171.137L219.254 164.598L218.454 164.598L218.454 171.137L219.254 171.137ZM218.854 158.459H225.373V157.659H218.854V158.459ZM218.454 151.52L218.454 158.059L219.254 158.059L219.254 151.52L218.454 151.52ZM225.373 151.12H218.854V151.92H225.373V151.12ZM225.773 158.059V151.52H224.973V158.059H225.773ZM199.696 158.059V151.52H198.896V158.059H199.696ZM205.815 157.659H199.296V158.459H205.815V157.659ZM205.415 151.52V158.059H206.215V151.52H205.415ZM199.296 151.92H205.815V151.12H199.296V151.92ZM179.737 168.267H186.257V167.467H179.737V168.267ZM179.337 161.328L179.337 167.867L180.137 167.867L180.137 161.328L179.337 161.328ZM186.257 160.928H179.737V161.728H186.257V160.928ZM186.657 167.867V161.328H185.857V167.867H186.657Z" fill="#3D3D3C"/>
<rect x="164.003" y="190.885" width="67.326" height="14.2914" rx="7.14571" fill="white" stroke="#3D3D3C" stroke-width="0.8" stroke-linecap="round" stroke-linejoin="round"/>
<rect x="164.003" y="210.666" width="67.326" height="14.2914" rx="7.14571" fill="white"/>
<rect x="164.003" y="210.666" width="67.326" height="14.2914" rx="7.14571" stroke="#3D3D3C" stroke-width="0.8" stroke-linecap="round" stroke-linejoin="round"/>
<path d="M168.079 107.234C166.391 107.869 164.982 109.082 164.103 110.658" stroke="#3D3D3C" stroke-width="0.8" stroke-linecap="round" stroke-linejoin="round"/>
<path d="M260.103 195.136C278.096 199.726 305.685 199.936 305.685 199.936L288.973 184.599L274.515 137.179L260.103 195.136Z" fill="#8CE7DF" stroke="#3D3D3C" stroke-width="0.8" stroke-linecap="round" stroke-linejoin="round"/>
<path d="M302.548 150.097C295.76 141.185 281.582 142.708 281.582 142.708L284.905 136.649C284.905 136.649 302.31 137.847 305.219 144.464L302.548 150.097Z" fill="white" stroke="#3D3D3C" stroke-width="0.8" stroke-linecap="round" stroke-linejoin="round"/>
<path d="M270.894 116.435C269.956 118.221 262.906 127.896 262.906 127.896L242.146 133.656C242.146 133.656 241.133 132.737 240.299 132.697C239.465 132.656 235.647 132.579 235.647 132.579C235.647 132.579 234.045 134.107 237.798 134.351C237.798 134.351 239.379 134.446 236.947 134.797C234.514 135.149 228.455 135.196 228.455 135.196C228.455 135.196 227.571 137.212 230.13 136.916C230.13 136.916 228.991 139.147 231.818 138.932C231.818 138.932 231.215 140.678 233.091 140.813C234.967 140.949 243.342 140.536 246.574 139.278L266.403 135.781C268.313 135.475 269.918 134.412 270.691 132.94L275.794 121.077L270.894 116.435Z" fill="white"/>
<mask id="mask0_43_1710" style="mask-type:alpha" maskUnits="userSpaceOnUse" x="228" y="116" width="48" height="25">
<path fill-rule="evenodd" clip-rule="evenodd" d="M270.894 116.435C269.956 118.221 262.906 127.896 262.906 127.896L242.146 133.656C242.146 133.656 241.133 132.737 240.299 132.697C239.465 132.656 235.647 132.579 235.647 132.579C235.647 132.579 234.045 134.107 237.798 134.351C237.798 134.351 239.379 134.446 236.947 134.797C234.514 135.149 228.455 135.196 228.455 135.196C228.455 135.196 227.571 137.212 230.13 136.916C230.13 136.916 228.991 139.147 231.818 138.932C231.818 138.932 231.215 140.678 233.091 140.813C234.967 140.949 243.342 140.536 246.574 139.278L266.403 135.781C268.313 135.475 269.918 134.412 270.691 132.94L275.794 121.077L270.894 116.435Z" fill="white"/>
</mask>
<g mask="url(#mask0_43_1710)">
<path d="M264.781 122.818C266.94 127.064 272.874 128.956 268.547 136.508C264.713 143.198 275.475 130.828 275.475 130.828L273.559 122.661L270 121.291" fill="#CFCFD0"/>
<path d="M243.716 133.11C242.101 133.047 243.716 138.734 242.722 141.062C241.728 143.39 248.313 139.913 248.313 139.913L246.263 134.979" fill="#CFCFD0"/>
</g>
<path fill-rule="evenodd" clip-rule="evenodd" d="M270.894 116.435C269.956 118.221 262.906 127.896 262.906 127.896L242.146 133.656C242.146 133.656 241.133 132.737 240.299 132.697C239.465 132.656 235.647 132.579 235.647 132.579C235.647 132.579 234.045 134.107 237.798 134.351C237.798 134.351 239.379 134.446 236.947 134.797C234.514 135.149 228.455 135.196 228.455 135.196C228.455 135.196 227.571 137.212 230.13 136.916C230.13 136.916 228.991 139.147 231.818 138.932C231.818 138.932 231.215 140.678 233.091 140.813C234.967 140.949 243.342 140.536 246.574 139.278L266.403 135.781C268.313 135.475 269.918 134.412 270.691 132.94L275.794 121.077L270.894 116.435Z" stroke="#3D3D3C" stroke-width="0.8" stroke-linecap="round" stroke-linejoin="round"/>
<path d="M243.5 132.595C242.702 135.899 247.341 145.424 247.341 145.424C247.341 145.424 267.116 140.636 270.306 138.024C273.496 135.412 287.05 102.883 287.05 102.883C287.05 102.883 286.618 97.3193 280.259 104.082C276.064 108.544 261.603 126.526 261.603 126.526L243.5 132.595Z" fill="white"/>
<mask id="mask1_43_1710" style="mask-type:alpha" maskUnits="userSpaceOnUse" x="243" y="100" width="45" height="46">
<path fill-rule="evenodd" clip-rule="evenodd" d="M243.5 132.595C242.702 135.899 247.341 145.424 247.341 145.424C247.341 145.424 267.116 140.636 270.306 138.024C273.496 135.412 287.05 102.883 287.05 102.883C287.05 102.883 286.618 97.3193 280.259 104.082C276.064 108.544 261.603 126.526 261.603 126.526L243.5 132.595Z" fill="white"/>
</mask>
<g mask="url(#mask1_43_1710)">
<path d="M273.282 117.79C270.632 115.424 269.464 138.869 256.033 146.085C247.053 150.91 270.632 143.818 270.632 143.818L273.559 122.661" fill="#CFCFD0"/>
</g>
<path fill-rule="evenodd" clip-rule="evenodd" d="M243.5 132.595C242.702 135.899 247.341 145.424 247.341 145.424C247.341 145.424 267.116 140.636 270.306 138.024C273.496 135.412 287.05 102.883 287.05 102.883C287.05 102.883 286.618 97.3193 280.259 104.082C276.064 108.544 261.603 126.526 261.603 126.526L243.5 132.595Z" stroke="#3D3D3C" stroke-width="0.8" stroke-linecap="round" stroke-linejoin="round"/>
<path d="M274.967 259.221L275.794 258.054L275.381 257.831C283.092 256.987 286.498 253.811 286.401 252.223C286.304 250.635 285.622 247.112 285.622 247.112L291.704 247.708L292.434 257.964L280.562 260.61L274.529 259.121" fill="white"/>
<mask id="mask2_43_1710" style="mask-type:alpha" maskUnits="userSpaceOnUse" x="274" y="247" width="19" height="14">
<path fill-rule="evenodd" clip-rule="evenodd" d="M274.967 259.221L275.794 258.054L275.381 257.831C283.092 256.987 286.498 253.811 286.401 252.223C286.304 250.635 285.622 247.112 285.622 247.112L291.704 247.708L292.434 257.964L280.562 260.61L274.529 259.121" fill="white"/>
</mask>
<g mask="url(#mask2_43_1710)">
<path d="M284.46 248.079C285.292 254.204 292.07 251.473 293.464 253.861C294.857 256.25 295.071 248.94 295.071 248.94L289.978 245.924" fill="#CFCFD0"/>
</g>
<path d="M274.967 259.221L275.794 258.054L275.381 257.831C283.092 256.987 286.498 253.811 286.401 252.223C286.304 250.635 285.622 247.112 285.622 247.112L291.704 247.708L292.434 257.964L280.562 260.61L274.529 259.121" stroke="#3D3D3C" stroke-width="0.8" stroke-linecap="round" stroke-linejoin="round"/>
<path d="M299.445 239.151L303.532 244.659C303.532 244.659 308.349 258.877 303.605 262.45L303.678 264.311L306.087 263.343L311.925 246.148L311.56 240.491C311.56 240.491 309.006 239.672 308.349 238.853C307.692 238.034 304.919 233.568 304.919 233.568L299.445 239.151Z" fill="white"/>
<mask id="mask3_43_1710" style="mask-type:alpha" maskUnits="userSpaceOnUse" x="299" y="233" width="13" height="32">
<path fill-rule="evenodd" clip-rule="evenodd" d="M299.445 239.151L303.532 244.659C303.532 244.659 308.349 258.877 303.605 262.45L303.678 264.311L306.087 263.343L311.925 246.148L311.56 240.491C311.56 240.491 309.006 239.672 308.349 238.853C307.692 238.034 304.919 233.568 304.919 233.568L299.445 239.151Z" fill="white"/>
</mask>
<g mask="url(#mask3_43_1710)">
<path d="M302.468 250.122C304.569 248.331 309.037 239.837 308.349 238.853C307.661 237.87 302.129 239.125 302.129 239.125" fill="#CFCFD0"/>
</g>
<path fill-rule="evenodd" clip-rule="evenodd" d="M299.445 239.151L303.532 244.659C303.532 244.659 308.349 258.877 303.605 262.45L303.678 264.311L306.087 263.343L311.925 246.148L311.56 240.491C311.56 240.491 309.006 239.672 308.349 238.853C307.692 238.034 304.919 233.568 304.919 233.568L299.445 239.151Z" stroke="#3D3D3C" stroke-width="0.8" stroke-linecap="round" stroke-linejoin="round"/>
<path d="M291.544 263.289C286.917 262.82 270.463 261.096 269.591 259.953C269.591 259.953 270.345 257.409 275.794 258.054C276.889 260.585 289.077 255.863 292.434 257.964L292.713 262.13C292.739 262.446 292.623 262.758 292.398 262.981C292.172 263.205 291.86 263.317 291.544 263.289V263.289Z" fill="#4F4F5B" stroke="#3D3D3C" stroke-width="0.8" stroke-linecap="round" stroke-linejoin="round"/>
<path d="M281.153 247.955C285.178 250.734 294.153 250.834 294.153 250.834C294.153 250.834 296.18 209.933 292.893 199.621L298.458 154.611C298.766 152.102 298.349 149.557 297.256 147.277L291.622 135.455L279.388 141.41L280.023 196.494L281.153 247.955Z" fill="#4F4F5B"/>
<path fill-rule="evenodd" clip-rule="evenodd" d="M281.153 247.955C285.178 250.734 294.153 250.834 294.153 250.834C294.153 250.834 296.18 209.933 292.893 199.621L298.458 154.611C298.766 152.102 298.349 149.557 297.256 147.277L291.622 135.455L279.388 141.41L280.023 196.494L281.153 247.955Z" stroke="#3D3D3C" stroke-width="0.8" stroke-linecap="round" stroke-linejoin="round"/>
<ellipse cx="290.256" cy="66.6057" rx="8.439" ry="10.1468" transform="rotate(-89.452 290.256 66.6057)" fill="#4F4F5B" stroke="#3D3D3C" stroke-width="0.8" stroke-linecap="round" stroke-linejoin="round"/>
<ellipse cx="297.218" cy="73.0061" rx="6.69663" ry="8.05182" transform="rotate(-89.452 297.218 73.0061)" fill="#4F4F5B" stroke="#3D3D3C" stroke-width="0.8" stroke-linecap="round" stroke-linejoin="round"/>
<path d="M287.953 75.3756C289.211 76.0748 290.177 76.7658 290.243 77.0025L291.102 75.666L291.153 75.5864C291.151 75.5786 291.148 75.5711 291.145 75.5638C291.029 75.3082 290.084 74.6378 288.863 73.9595C287.642 73.2813 286.56 72.8249 286.263 72.8513C286.254 72.852 286.246 72.8533 286.237 72.8552L286.186 72.9348L285.327 74.2713C285.583 74.2131 286.695 74.6764 287.953 75.3756Z" fill="white" stroke="#3D3D3C" stroke-width="0.8" stroke-linecap="round" stroke-linejoin="round"/>
<ellipse cx="277.829" cy="81.4877" rx="3.23304" ry="3.21669" transform="rotate(-12.6651 277.829 81.4877)" fill="#4F4F5B" stroke="#3D3D3C" stroke-width="0.8" stroke-linecap="round" stroke-linejoin="round"/>
<path d="M293.899 106.599C293.899 106.599 271.723 115.104 274.94 112.389C284.862 104.018 282.621 87.4428 282.621 87.4428L290.534 85.2644L293.899 106.599Z" fill="white"/>
<mask id="mask4_43_1710" style="mask-type:alpha" maskUnits="userSpaceOnUse" x="274" y="85" width="20" height="28">
<path fill-rule="evenodd" clip-rule="evenodd" d="M293.899 106.599C293.899 106.599 271.723 115.104 274.94 112.389C284.862 104.018 282.621 87.4428 282.621 87.4428L290.534 85.2644L293.899 106.599Z" fill="white"/>
</mask>
<g mask="url(#mask4_43_1710)">
<path d="M280.42 100.122C285.65 97.1128 288.69 91.0851 287.51 90.0571C286.329 89.0291 282.633 92.9854 282.633 92.9854L281.173 96.0383" fill="#CFCFD0"/>
</g>
<path fill-rule="evenodd" clip-rule="evenodd" d="M293.899 106.599C293.899 106.599 271.723 115.104 274.94 112.389C284.862 104.018 282.621 87.4428 282.621 87.4428L290.534 85.2644L293.899 106.599Z" stroke="#3D3D3C" stroke-width="0.8" stroke-linecap="round" stroke-linejoin="round"/>
<path d="M276.896 78.7241C276.835 79.0843 276.779 79.4363 276.729 79.7804C274.615 94.2278 281.082 95.0761 286.315 91.2036C291.672 87.2388 289.253 79.6715 289.253 79.6715L276.896 78.7241Z" fill="white"/>
<mask id="mask5_43_1710" style="mask-type:alpha" maskUnits="userSpaceOnUse" x="276" y="78" width="14" height="16">
<path fill-rule="evenodd" clip-rule="evenodd" d="M276.896 78.7241C276.835 79.0843 276.779 79.4363 276.729 79.7804C274.615 94.2278 281.082 95.0761 286.315 91.2036C291.672 87.2388 289.253 79.6715 289.253 79.6715L276.896 78.7241Z" fill="white"/>
</mask>
<g mask="url(#mask5_43_1710)">
<ellipse opacity="0.27" cx="275.261" cy="89.2386" rx="1.88844" ry="1.44224" transform="rotate(-5.1846 275.261 89.2386)" fill="#CFCFD0"/>
<ellipse opacity="0.27" cx="284.143" cy="88.4394" rx="1.88844" ry="1.44224" transform="rotate(-5.1846 284.143 88.4394)" fill="#CFCFD0"/>
<path d="M277.726 84.8378V84.8378C278.097 84.8313 278.403 85.1265 278.41 85.4972L278.43 86.6383C278.436 87.009 278.141 87.3149 277.77 87.3215V87.3215C277.4 87.3281 277.094 87.0328 277.087 86.6621L277.067 85.521C277.061 85.1503 277.356 84.8444 277.726 84.8378L277.726 84.8378Z" fill="#4F4F5B"/>
<path d="M282.008 84.2211V84.2211C282.379 84.2145 282.685 84.5098 282.692 84.8805L282.712 86.0216C282.718 86.3923 282.423 86.6982 282.052 86.7048V86.7048C281.682 86.7114 281.376 86.4162 281.369 86.0454L281.349 84.9043C281.342 84.5336 281.638 84.2277 282.008 84.2211L282.008 84.2211Z" fill="#4F4F5B"/>
<path d="M277.531 83.2542C276.169 83.6792 276.559 84.4215 277.428 84.2115C278.298 84.0015 278.422 82.9765 277.531 83.2542Z" fill="#4F4F5B"/>
<path d="M281.939 82.5821C283.316 82.9586 283.055 83.6549 282.179 83.4759C281.303 83.2969 281.04 82.3362 281.939 82.5821Z" fill="#4F4F5B"/>
<path d="M280.233 87.2112C280.293 87.6626 279.884 87.5345 279.409 87.5973C278.933 87.66 278.571 87.8899 278.512 87.4385C278.475 86.9773 278.806 86.5681 279.265 86.5076C279.724 86.447 280.149 86.7563 280.233 87.2112V87.2112Z" fill="#CFCFD0"/>
<path d="M277.61 89.7726C278.574 92.9675 281.491 91.2662 281.324 89.2332C281.314 89.1283 281.239 89.0409 281.137 89.0146C280.706 88.8985 279.469 88.6906 277.75 89.4666C277.634 89.5195 277.574 89.6499 277.61 89.7726V89.7726Z" fill="#CFCFD0"/>
<mask id="mask6_43_1710" style="mask-type:alpha" maskUnits="userSpaceOnUse" x="277" y="88" width="5" height="4">
<path fill-rule="evenodd" clip-rule="evenodd" d="M277.61 89.7726C278.574 92.9675 281.491 91.2662 281.324 89.2332C281.314 89.1283 281.239 89.0409 281.137 89.0146C280.706 88.8985 279.469 88.6906 277.75 89.4666C277.634 89.5195 277.574 89.6499 277.61 89.7726V89.7726Z" fill="white"/>
</mask>
<g mask="url(#mask6_43_1710)">
<ellipse cx="280.133" cy="91.3152" rx="1.66938" ry="1.49276" transform="rotate(-26.0359 280.133 91.3152)" fill="#4F4F5B"/>
<path d="M278.123 89.1841C278.152 89.3993 278.211 89.6889 278.274 89.7346C278.662 90.0165 280.315 89.6491 280.519 89.4315C280.576 89.3709 280.493 88.6759 280.493 88.6759L278.362 89.0334" fill="white"/>
<path d="M278.123 89.1841C278.152 89.3993 278.211 89.6889 278.274 89.7346C278.662 90.0165 280.315 89.6491 280.519 89.4315C280.576 89.3709 280.493 88.6759 280.493 88.6759L278.362 89.0334" stroke="#3D3D3C" stroke-width="0.8" stroke-linecap="round" stroke-linejoin="round"/>
</g>
</g>
<path fill-rule="evenodd" clip-rule="evenodd" d="M276.896 78.7241C276.835 79.0843 276.779 79.4363 276.729 79.7804C274.615 94.2278 281.082 95.0761 286.315 91.2036C291.672 87.2388 289.253 79.6715 289.253 79.6715L276.896 78.7241Z" stroke="#3D3D3C" stroke-width="0.8" stroke-linecap="round" stroke-linejoin="round"/>
<path d="M288.619 83.8699C268.16 84.1691 272.908 70.293 285.317 74.1488C300.042 78.7241 291.354 85.4338 291.354 85.4338L288.619 83.8699Z" fill="#4F4F5B" stroke="#3D3D3C" stroke-width="0.8" stroke-linecap="round" stroke-linejoin="round"/>
<path d="M291.516 99.8821L292.667 98.6758C296.497 87.0924 278.221 106.476 278.221 106.476L280.035 105.633L291.516 99.8821Z" fill="#8CE7DF" stroke="#3D3D3C" stroke-width="0.8" stroke-linecap="round" stroke-linejoin="round"/>
<path d="M299.445 245.924C301.352 245.626 310.295 240.341 308.623 236.691C293.846 204.44 286.697 199.472 286.697 199.472L294.186 155.056C294.46 153.426 294.301 151.754 293.724 150.205L289.08 137.689L271.126 140.666L273.198 198.453C273.285 200.729 274.023 202.931 275.325 204.8L299.445 245.924Z" fill="#4F4F5B"/>
<mask id="mask7_43_1710" style="mask-type:alpha" maskUnits="userSpaceOnUse" x="271" y="137" width="38" height="109">
<path fill-rule="evenodd" clip-rule="evenodd" d="M299.445 245.924C301.352 245.626 310.295 240.341 308.623 236.691C293.846 204.44 286.697 199.472 286.697 199.472L294.186 155.056C294.46 153.426 294.301 151.754 293.724 150.205L289.08 137.689L271.126 140.666L273.198 198.453C273.285 200.729 274.023 202.931 275.325 204.8L299.445 245.924Z" fill="white"/>
</mask>
<g mask="url(#mask7_43_1710)">
<path d="M273.198 198.453C270.321 202.893 289.609 202.45 290.908 204.284C292.208 206.118 290.014 198.181 290.014 198.181L280.024 196.495" fill="white"/>
<path d="M273.198 198.453C270.321 202.893 289.609 202.45 290.908 204.284C292.208 206.118 290.014 198.181 290.014 198.181L280.024 196.495" stroke="#3D3D3C" stroke-width="0.8" stroke-linecap="round" stroke-linejoin="round"/>
<path d="M273.856 201.923C271.794 206.691 299.765 211.026 303.119 214.266C306.474 217.505 289.978 199.28 289.978 199.28L277.136 197.595" fill="#3D3D3C"/>
</g>
<path fill-rule="evenodd" clip-rule="evenodd" d="M299.445 245.924C301.352 245.626 310.295 240.341 308.623 236.691C293.846 204.44 286.697 199.472 286.697 199.472L294.186 155.056C294.46 153.426 294.301 151.754 293.724 150.205L289.08 137.689L271.126 140.666L273.198 198.453C273.285 200.729 274.023 202.931 275.325 204.8L299.445 245.924Z" stroke="#3D3D3C" stroke-width="0.8" stroke-linecap="round" stroke-linejoin="round"/>
<path d="M301.27 265.725H307.725C308.999 265.717 310.097 264.827 310.371 263.583L313.093 251.657L314.772 251.284L316.644 244.861C316.953 243.816 316.449 242.703 315.459 242.247L311.56 240.491C307.4 246.893 309.225 262.673 303.605 262.45C303.605 262.45 300.722 262.971 301.27 265.725Z" fill="#4F4F5B" stroke="#3D3D3C" stroke-width="0.8" stroke-linecap="round" stroke-linejoin="round"/>
<path d="M270.632 143.818C286.396 148.15 297.448 145.22 297.448 145.22C291.352 136.277 301.859 112.393 293.101 98.4191L279 106.14C272.313 119.26 276.417 125.244 276.855 128.318C277.293 131.393 270.632 143.818 270.632 143.818" fill="#4F4F5B"/>
<path d="M270.632 143.818C286.396 148.15 297.448 145.22 297.448 145.22C291.352 136.277 301.859 112.393 293.101 98.4191L279 106.14C272.313 119.26 276.417 125.244 276.855 128.318C277.293 131.393 270.632 143.818 270.632 143.818" stroke="#3D3D3C" stroke-width="0.8" stroke-linecap="round" stroke-linejoin="round"/>
<path d="M287.605 100.685L290.256 99.375L293.458 97.792C309.972 133.415 293.194 129.098 300.576 170.089C303.689 187.378 307.888 198.916 305.685 199.936C293.845 205.422 271.262 202.662 271.262 202.662C260.861 154.914 274.515 112.49 274.515 112.49L279.689 105.143" fill="white"/>
<mask id="mask8_43_1710" style="mask-type:alpha" maskUnits="userSpaceOnUse" x="267" y="97" width="40" height="107">
<path fill-rule="evenodd" clip-rule="evenodd" d="M287.605 100.685L290.256 99.375L293.458 97.792C309.972 133.415 293.194 129.098 300.576 170.089C303.689 187.378 307.888 198.916 305.685 199.936C293.845 205.422 271.262 202.662 271.262 202.662C260.861 154.914 274.515 112.49 274.515 112.49L279.689 105.143" fill="white"/>
</mask>
<g mask="url(#mask8_43_1710)">
<path d="M292.444 122.304C298.558 116.435 288.973 144.657 287.05 158.293C285.995 165.774 267.267 157.001 260.102 164.683C252.937 172.364 274.515 137.179 274.515 137.179L281.873 131.186" fill="#CFCFD0"/>
</g>
<path d="M287.605 100.685L290.256 99.375L293.458 97.792C309.972 133.415 293.194 129.098 300.576 170.089C303.689 187.378 307.888 198.916 305.685 199.936C293.845 205.422 271.262 202.662 271.262 202.662C260.861 154.914 274.515 112.49 274.515 112.49L279.689 105.143" stroke="#3D3D3C" stroke-width="0.8" stroke-linecap="round" stroke-linejoin="round"/>
<path d="M305.246 144.534C295.845 150.606 283.024 144.346 283.024 144.346L284.099 151.177C284.099 151.177 300.876 155.975 305.852 150.742L305.246 144.534Z" fill="white" stroke="#3D3D3C" stroke-width="0.8" stroke-linecap="round" stroke-linejoin="round"/>
<path d="M273.128 163.887C273.128 163.887 273.949 169.742 274.597 170.301C275.246 170.86 276.921 172.21 276.921 172.21C276.921 172.21 276.381 173.701 274.057 172.21L276.165 176.309C276.165 176.309 275.516 177.241 274.759 176.868C274.759 176.868 273.625 177.184 272.976 176.956L271.03 174.819C271.03 174.819 270.895 175.401 270.166 175.215C270.166 175.215 267.058 171.745 267.085 171.488C267.112 171.232 267.332 164.225 267.332 163.922C267.332 163.619 276.219 132.944 276.219 132.944L281.439 109.041C282.012 106.417 284.937 104.685 287.984 105.165V105.165C291.229 105.676 294.215 109.145 293.349 111.888L286.176 135.781L273.128 163.887Z" fill="white"/>
<mask id="mask9_43_1710" style="mask-type:alpha" maskUnits="userSpaceOnUse" x="267" y="105" width="27" height="73">
<path fill-rule="evenodd" clip-rule="evenodd" d="M273.128 163.887C273.128 163.887 273.949 169.742 274.597 170.301C275.246 170.86 276.921 172.21 276.921 172.21C276.921 172.21 276.381 173.701 274.057 172.21L276.165 176.309C276.165 176.309 275.516 177.241 274.759 176.868C274.759 176.868 273.625 177.184 272.976 176.956L271.03 174.819C271.03 174.819 270.895 175.401 270.166 175.215C270.166 175.215 267.058 171.745 267.085 171.488C267.112 171.232 267.332 164.225 267.332 163.922C267.332 163.619 276.219 132.944 276.219 132.944L281.439 109.041C282.012 106.417 284.937 104.685 287.984 105.165V105.165C291.229 105.676 294.215 109.145 293.349 111.888L286.176 135.781L273.128 163.887Z" fill="white"/>
</mask>
<g mask="url(#mask9_43_1710)">
<path d="M277.363 124.551C279.398 129.372 288.712 127.397 286.764 133.819C284.816 140.242 291.272 125.071 291.272 125.071L287.926 123.654L277.363 123.181" fill="#CFCFD0"/>
<path d="M268.998 158.031C266.7 159.464 274.651 164.573 275.086 167.377C275.521 170.181 274.776 157.595 274.776 157.595L271.126 156.125" fill="#CFCFD0"/>
</g>
<path fill-rule="evenodd" clip-rule="evenodd" d="M273.128 163.887C273.128 163.887 273.949 169.742 274.597 170.301C275.246 170.86 276.921 172.21 276.921 172.21C276.921 172.21 276.381 173.701 274.057 172.21L276.165 176.309C276.165 176.309 275.516 177.241 274.759 176.868C274.759 176.868 273.625 177.184 272.976 176.956L271.03 174.819C271.03 174.819 270.895 175.401 270.166 175.215C270.166 175.215 267.058 171.745 267.085 171.488C267.112 171.232 267.332 164.225 267.332 163.922C267.332 163.619 276.219 132.944 276.219 132.944L281.439 109.041C282.012 106.417 284.937 104.685 287.984 105.165V105.165C291.229 105.676 294.215 109.145 293.349 111.888L286.176 135.781L273.128 163.887Z" stroke="#3D3D3C" stroke-width="0.8" stroke-linecap="round" stroke-linejoin="round"/>
<path d="M275.944 156.231L276.435 174.5L293.818 175.495V156.125L275.944 156.231V156.231Z" fill="white" stroke="#3D3D3C" stroke-width="0.8" stroke-linecap="round" stroke-linejoin="round"/>
<path d="M274.811 155.377C274.7 156.04 274.362 161.124 274.362 161.124L294.361 161.21L294.535 155.407L274.811 155.377Z" fill="white" stroke="#3D3D3C" stroke-width="0.8" stroke-linecap="round" stroke-linejoin="round"/>
<path d="M273.989 114.264C273.989 114.264 278.221 98.419 293.5 97.3561L294.466 99.5585L283.16 103.762L283.664 107.565L273.989 114.264Z" fill="white" stroke="#3D3D3C" stroke-width="0.8" stroke-linecap="round" stroke-linejoin="round"/>
<path d="M266.211 155.918C269.901 158.991 275.276 165.683 277.829 164.556C277.829 164.556 287.091 143.126 289.08 137.689C292.89 127.274 300.343 100.912 287.05 102.883C278.716 104.119 274.636 129.078 274.636 129.078L266.211 155.918Z" fill="white" stroke="#3D3D3C" stroke-width="0.8" stroke-linecap="round" stroke-linejoin="round"/>
<ellipse cx="274.75" cy="117.05" rx="1.45594" ry="1.4603" fill="white" stroke="#3D3D3C" stroke-width="0.8" stroke-linecap="round" stroke-linejoin="round"/>
<ellipse cx="269.941" cy="138.503" rx="1.32039" ry="1.32434" fill="white" stroke="#3D3D3C" stroke-width="0.8" stroke-linecap="round" stroke-linejoin="round"/>
<path d="M291.054 86.389L290.894 86.1247L287.151 90.6046C284.881 89.7829 284.398 87.6326 284.336 86.2375L289.844 82.513L289.754 82.2153L284.328 85.8751C284.327 85.5719 284.346 85.269 284.386 84.9685C284.386 84.9685 280.868 88.8702 276.318 87.871C275.73 95.0309 281.206 95.8779 282.491 95.5576C286.034 94.674 287.94 90.8217 287.94 90.8217C287.77 90.7891 287.621 90.7393 287.465 90.6943L291.054 86.389Z" fill="#8CE7DF" stroke="#3D3D3C" stroke-width="0.8" stroke-linecap="round" stroke-linejoin="round"/>
<path d="M287.175 85.8159C291.81 75.9388 297.898 85.3296 289.432 87.8711Z" fill="white"/>
<path d="M287.175 85.8159C291.81 75.9388 297.898 85.3296 289.432 87.8711" stroke="#3D3D3C" stroke-width="0.8" stroke-linecap="round" stroke-linejoin="round"/>
<path d="M142.264 257.332L140.255 252.893L135.913 249.982L133.451 235.137L123.277 233.536L129.369 257.332H142.264V257.332Z" fill="white"/>
<mask id="mask10_43_1710" style="mask-type:alpha" maskUnits="userSpaceOnUse" x="123" y="233" width="20" height="25">
<path fill-rule="evenodd" clip-rule="evenodd" d="M142.264 257.332L140.255 252.893L135.913 249.982L133.451 235.137L123.277 233.536L129.369 257.332H142.264V257.332Z" fill="white"/>
</mask>
<g mask="url(#mask10_43_1710)">
<path d="M112.52 254.776C124.595 253.965 137.404 242.051 137.404 242.051L123.277 243.751L122.17 245.434" fill="#CFCFD0"/>
</g>
<path fill-rule="evenodd" clip-rule="evenodd" d="M142.264 257.332L140.255 252.893L135.913 249.982L133.451 235.137L123.277 233.536L129.369 257.332H142.264V257.332Z" stroke="#3D3D3C" stroke-width="0.8" stroke-linecap="round" stroke-linejoin="round"/>
<path d="M128.85 255.076V257.694C128.855 258.624 129.612 259.374 130.542 259.369H154.576V258.66C154.576 257.247 153.6 256.085 152.343 256.016C148.809 255.823 142.133 255.16 140.255 252.893C140.255 252.893 141.616 259.006 128.85 255.076Z" fill="#4F4F5B" stroke="#3D3D3C" stroke-width="0.8" stroke-linecap="round" stroke-linejoin="round"/>
<path d="M31.4482 206.605L35.8437 204.525L38.6813 200.127L53.444 197.438L54.8896 187.212L31.2576 193.672L31.4482 206.605V206.605Z" fill="white"/>
<mask id="mask11_43_1710" style="mask-type:alpha" maskUnits="userSpaceOnUse" x="31" y="187" width="24" height="20">
<path fill-rule="evenodd" clip-rule="evenodd" d="M31.4482 206.605L35.8437 204.525L38.6813 200.127L53.444 197.438L54.8896 187.212L31.2576 193.672L31.4482 206.605V206.605Z" fill="white"/>
</mask>
<g mask="url(#mask11_43_1710)">
<path d="M33.5566 176.738C34.5433 188.835 46.6106 201.505 46.6106 201.505L44.7064 187.363L43.0121 186.277" fill="#CFCFD0"/>
</g>
<path fill-rule="evenodd" clip-rule="evenodd" d="M31.4482 206.605L35.8437 204.525L38.6813 200.127L53.444 197.438L54.8896 187.212L31.2576 193.672L31.4482 206.605V206.605Z" stroke="#3D3D3C" stroke-width="0.8" stroke-linecap="round" stroke-linejoin="round"/>
<path d="M33.499 193.119L30.8886 193.158C29.9591 193.179 29.2228 193.95 29.2438 194.879L29.5991 218.982L30.3064 218.972C31.7149 218.951 32.8594 217.955 32.9093 216.694C33.0494 213.146 33.6113 206.442 35.8439 204.524C35.8439 204.524 29.7703 205.98 33.499 193.119Z" fill="#4F4F5B" stroke="#3D3D3C" stroke-width="0.8" stroke-linecap="round" stroke-linejoin="round"/>
<path d="M135.852 88.451C137.87 86.5516 140.074 79.514 143.231 77.4325C146.389 75.351 146.505 75.0274 146.505 75.0274C146.505 75.0274 148.533 74.8266 145.258 78.5152C145.258 78.5152 148.522 78.2961 149.502 76.7771C150.481 75.258 153.352 70.8482 153.352 70.8482C153.352 70.8482 154.109 70.6327 154.183 72.2209C154.183 72.2209 155.164 72.3319 154.661 74.6014C154.158 76.871 152.686 80.6506 151.06 82.7965C150.475 83.5686 145.47 85.1534 144.842 86.0481C144.213 86.9427 142.487 90.9635 142.487 90.9635L135.852 88.451Z" fill="white"/>
<mask id="mask12_43_1710" style="mask-type:alpha" maskUnits="userSpaceOnUse" x="135" y="70" width="20" height="21">
<path fill-rule="evenodd" clip-rule="evenodd" d="M135.852 88.451C137.87 86.5516 140.074 79.514 143.231 77.4325C146.389 75.351 146.505 75.0274 146.505 75.0274C146.505 75.0274 148.533 74.8266 145.258 78.5152C145.258 78.5152 148.522 78.2961 149.502 76.7771C150.481 75.258 153.352 70.8482 153.352 70.8482C153.352 70.8482 154.109 70.6327 154.183 72.2209C154.183 72.2209 155.164 72.3319 154.661 74.6014C154.158 76.871 152.686 80.6506 151.06 82.7965C150.475 83.5686 145.47 85.1534 144.842 86.0481C144.213 86.9427 142.487 90.9635 142.487 90.9635L135.852 88.451Z" fill="white"/>
</mask>
<g mask="url(#mask12_43_1710)">
<path d="M149.191 89.2542C141.101 83.0884 138.045 85.0515 138.045 85.0515L138.204 87.4981L141.299 89.2207" fill="#CFCFD0"/>
</g>
<path fill-rule="evenodd" clip-rule="evenodd" d="M135.852 88.451C137.87 86.5516 140.074 79.514 143.231 77.4325C146.389 75.351 146.505 75.0274 146.505 75.0274C146.505 75.0274 148.533 74.8266 145.258 78.5152C145.258 78.5152 148.522 78.2961 149.502 76.7771C150.481 75.258 153.352 70.8482 153.352 70.8482C153.352 70.8482 154.109 70.6327 154.183 72.2209C154.183 72.2209 155.164 72.3319 154.661 74.6014C154.158 76.871 152.686 80.6506 151.06 82.7965C150.475 83.5686 145.47 85.1534 144.842 86.0481C144.213 86.9427 142.487 90.9635 142.487 90.9635L135.852 88.451Z" stroke="#3D3D3C" stroke-width="0.8" stroke-linecap="round" stroke-linejoin="round"/>
<path d="M137.315 84.771C137.315 84.771 143.267 86.5688 149.191 94.8429L131.627 117.012C129.283 119.971 124.853 120.825 121.392 118.986L103.986 109.735L111.723 88.9694L126.214 99.9859L137.315 84.771Z" fill="white"/>
<mask id="mask13_43_1710" style="mask-type:alpha" maskUnits="userSpaceOnUse" x="103" y="84" width="47" height="36">
<path fill-rule="evenodd" clip-rule="evenodd" d="M137.315 84.771C137.315 84.771 143.267 86.5688 149.191 94.8429L131.627 117.012C129.283 119.971 124.853 120.825 121.392 118.986L103.986 109.735L111.723 88.9694L126.214 99.9859L137.315 84.771Z" fill="white"/>
</mask>
<g mask="url(#mask13_43_1710)">
<path d="M112.328 92.6965C119.911 109.71 108.315 109.802 117.464 116.898C126.613 123.994 118.853 126.723 117.619 127.204C116.384 127.686 95.3979 112.759 96.1033 112.599C96.8087 112.438 108.403 98.8813 108.403 98.8813" fill="#4F4F5B"/>
<path d="M112.328 92.6965C119.911 109.71 108.315 109.802 117.464 116.898C126.613 123.994 118.853 126.723 117.619 127.204C116.384 127.686 95.3979 112.759 96.1033 112.599C96.8087 112.438 108.403 98.8813 108.403 98.8813" stroke="#3D3D3C" stroke-width="0.8" stroke-linecap="round" stroke-linejoin="round"/>
<path d="M113.854 99.9068C119.568 94.9335 117.289 120.452 130.072 119.953C142.855 119.454 114.082 129.83 114.082 129.83L104.707 104.376" fill="#CFCFD0"/>
<path d="M131.606 89.3718C141.942 90.6769 145.328 106.858 145.328 106.858Z" fill="white"/>
<path d="M131.606 89.3718C141.942 90.6769 145.328 106.858 145.328 106.858" stroke="#3D3D3C" stroke-width="0.8" stroke-linecap="round" stroke-linejoin="round"/>
</g>
<path fill-rule="evenodd" clip-rule="evenodd" d="M137.315 84.771C137.315 84.771 143.267 86.5688 149.191 94.8429L131.627 117.012C129.283 119.971 124.853 120.825 121.392 118.986L103.986 109.735L111.723 88.9694L126.214 99.9859L137.315 84.771Z" stroke="#3D3D3C" stroke-width="0.8" stroke-linecap="round" stroke-linejoin="round"/>
<path d="M112.521 248.6C112.521 248.6 128.073 249.036 137.404 242.05L124.962 187.037L108.633 124.164L87.6372 130.276L108.244 190.093L112.521 248.6Z" fill="#8CE7DF"/>
<mask id="mask14_43_1710" style="mask-type:alpha" maskUnits="userSpaceOnUse" x="87" y="124" width="51" height="125">
<path fill-rule="evenodd" clip-rule="evenodd" d="M112.521 248.6C112.521 248.6 128.073 249.036 137.404 242.05L124.962 187.037L108.633 124.164L87.6372 130.276L108.244 190.093L112.521 248.6Z" fill="white"/>
</mask>
<g mask="url(#mask14_43_1710)">
<path d="M106.3 183.094C113.039 169.514 107.161 202.379 127.843 196.908C148.526 191.437 124.519 165.106 124.519 165.106L110.56 151.656L101.251 150.874" fill="#008175"/>
</g>
<path fill-rule="evenodd" clip-rule="evenodd" d="M112.521 248.6C112.521 248.6 128.073 249.036 137.404 242.05L124.962 187.037L108.633 124.164L87.6372 130.276L108.244 190.093L112.521 248.6Z" stroke="#3D3D3C" stroke-width="0.8" stroke-linecap="round" stroke-linejoin="round"/>
<path d="M45.6466 188.783C45.6466 188.783 42.925 213.234 50.3122 212.36L97.2129 195.843C102.661 193.924 106.3 188.819 106.3 183.094V127.165H84.6066L87.6373 178.741L45.6466 188.783Z" fill="#8CE7DF"/>
<mask id="mask15_43_1710" style="mask-type:alpha" maskUnits="userSpaceOnUse" x="45" y="127" width="62" height="86">
<path fill-rule="evenodd" clip-rule="evenodd" d="M45.6466 188.783C45.6466 188.783 42.925 213.234 50.3122 212.36L97.2129 195.843C102.661 193.924 106.3 188.819 106.3 183.094V127.165H84.6066L87.6373 178.741L45.6466 188.783Z" fill="white"/>
</mask>
<g mask="url(#mask15_43_1710)">
<path d="M87.3682 174.162C89.9545 151.95 80.101 137.092 102.806 130.352C125.511 123.613 88.2748 125.636 88.2748 125.636L83.7492 131.573L74.8105 167.063" fill="white"/>
<path d="M87.3682 174.162C89.9545 151.95 80.101 137.092 102.806 130.352C125.511 123.613 88.2748 125.636 88.2748 125.636L83.7492 131.573L74.8105 167.063" stroke="#3D3D3C" stroke-width="0.8" stroke-linecap="round" stroke-linejoin="round"/>
</g>
<path fill-rule="evenodd" clip-rule="evenodd" d="M45.6466 188.783C45.6466 188.783 42.925 213.234 50.3122 212.36L97.2129 195.843C102.661 193.924 106.3 188.819 106.3 183.094V127.165H84.6066L87.6373 178.741L45.6466 188.783Z" stroke="#3D3D3C" stroke-width="0.8" stroke-linecap="round" stroke-linejoin="round"/>
<path d="M83.749 131.573C94.662 135.236 112.52 126.727 112.52 126.727C112.52 126.727 102.924 116.357 110.055 107.782C117.186 99.2059 110.576 88.6769 110.576 88.6769C110.576 88.6769 101.034 80.6072 84.3353 87.6661C83.7429 87.9221 83.3622 88.5088 83.3697 89.1541L83.749 131.573Z" fill="#4F4F5B"/>
<mask id="mask16_43_1710" style="mask-type:alpha" maskUnits="userSpaceOnUse" x="83" y="84" width="31" height="49">
<path fill-rule="evenodd" clip-rule="evenodd" d="M83.7493 131.573C94.6623 135.236 112.521 126.727 112.521 126.727C112.521 126.727 102.924 116.357 110.055 107.782C117.186 99.2059 110.577 88.6769 110.577 88.6769C110.577 88.6769 101.034 80.6072 84.3356 87.6661C83.7432 87.9221 83.3625 88.5088 83.37 89.1541L83.7493 131.573Z" fill="white"/>
</mask>
<g mask="url(#mask16_43_1710)">
<path d="M90.7551 103.751C82.5262 121.747 96.0961 131.734 110.861 127.462C125.626 123.19 86.8468 142.612 86.8468 142.612L73.5649 124.164L83.3698 109.389L90.7551 103.75" fill="#4F4F5B"/>
<path d="M90.7551 103.751C82.5262 121.747 96.0961 131.734 110.861 127.462C125.626 123.19 86.8468 142.612 86.8468 142.612L73.5649 124.164L83.3698 109.389L90.7551 103.75" stroke="#3D3D3C" stroke-width="0.8" stroke-linecap="round" stroke-linejoin="round"/>
</g>
<path fill-rule="evenodd" clip-rule="evenodd" d="M83.749 131.573C94.662 135.236 112.52 126.727 112.52 126.727C112.52 126.727 102.924 116.357 110.055 107.782C117.186 99.2059 110.576 88.6769 110.576 88.6769C110.576 88.6769 101.034 80.6072 84.3353 87.6661C83.7429 87.9221 83.3622 88.5088 83.3697 89.1541L83.749 131.573Z" stroke="#3D3D3C" stroke-width="0.8" stroke-linecap="round" stroke-linejoin="round"/>
<path d="M65.0734 128.622C65.0734 128.622 63.2584 142.316 62.7981 143.534C62.3378 144.751 62.0623 151.376 60.7483 153.819C59.4343 156.263 56.6053 160.411 58.6395 160.251C58.6395 160.251 57.0541 163.463 58.9478 163.54C58.9478 163.54 58.1796 165.834 60.9838 164.869C60.9838 164.869 69.3455 155.237 69.4455 151.241C69.5455 147.244 69.4544 143.909 69.4544 143.909L75.9847 125.636L65.0734 128.622Z" fill="white"/>
<mask id="mask17_43_1710" style="mask-type:alpha" maskUnits="userSpaceOnUse" x="57" y="125" width="19" height="41">
<path fill-rule="evenodd" clip-rule="evenodd" d="M65.0734 128.622C65.0734 128.622 63.2584 142.316 62.7981 143.534C62.3378 144.751 62.0623 151.376 60.7483 153.819C59.4343 156.263 56.6053 160.411 58.6395 160.251C58.6395 160.251 57.0541 163.463 58.9478 163.54C58.9478 163.54 58.1796 165.834 60.9838 164.869C60.9838 164.869 69.3455 155.237 69.4455 151.241C69.5455 147.244 69.4544 143.909 69.4544 143.909L75.9847 125.636L65.0734 128.622Z" fill="white"/>
</mask>
<g mask="url(#mask17_43_1710)">
<path d="M57.0238 144.854C70.3197 149.763 70.4976 146.851 70.4976 146.851L62.0381 141.123L56.4343 143.501" fill="#CFCFD0"/>
</g>
<path fill-rule="evenodd" clip-rule="evenodd" d="M65.0734 128.622C65.0734 128.622 63.2584 142.316 62.7981 143.534C62.3378 144.751 62.0623 151.376 60.7483 153.819C59.4343 156.263 56.6053 160.411 58.6395 160.251C58.6395 160.251 57.0541 163.463 58.9478 163.54C58.9478 163.54 58.1796 165.834 60.9838 164.869C60.9838 164.869 69.3455 155.237 69.4455 151.241C69.5455 147.244 69.4544 143.909 69.4544 143.909L75.9847 125.636L65.0734 128.622Z" stroke="#3D3D3C" stroke-width="0.8" stroke-linecap="round" stroke-linejoin="round"/>
<path d="M112.488 89.5505C109.954 87.1678 102.8 85.3114 102.8 85.3114C105.467 87.645 105.646 92.2657 105.646 92.2657C105.646 92.2657 107.172 124.613 107.981 138.154C108.789 151.695 118.125 193.926 118.125 193.926C118.125 193.926 121.264 196.85 129.32 191.014C129.608 189.411 121.458 125.095 115.301 99.2697" fill="white"/>
<mask id="mask18_43_1710" style="mask-type:alpha" maskUnits="userSpaceOnUse" x="102" y="85" width="28" height="110">
<path fill-rule="evenodd" clip-rule="evenodd" d="M112.488 89.5505C109.954 87.1678 102.8 85.3114 102.8 85.3114C105.467 87.645 105.646 92.2657 105.646 92.2657C105.646 92.2657 107.172 124.613 107.981 138.154C108.789 151.695 118.125 193.926 118.125 193.926C118.125 193.926 121.264 196.85 129.32 191.014C129.608 189.411 121.458 125.095 115.301 99.2697" fill="white"/>
</mask>
<g mask="url(#mask18_43_1710)">
<path d="M121.104 145.13L124.534 161.521L138.989 159.731L137.204 142.094L121.104 145.13V145.13Z" fill="white" stroke="#3D3D3C" stroke-width="0.8" stroke-linecap="round" stroke-linejoin="round"/>
<path d="M119.944 144.546C119.952 145.162 120.478 149.802 120.478 149.802L138.525 146.589L137.733 141.329L119.944 144.546Z" fill="white" stroke="#3D3D3C" stroke-width="0.8" stroke-linecap="round" stroke-linejoin="round"/>
<path d="M106.3 135.6C114.564 121.839 114.564 193.926 123.353 196.908C132.142 199.89 74.1494 179.248 74.1494 179.248" fill="#CFCFD0"/>
</g>
<path d="M112.488 89.5505C109.954 87.1678 102.8 85.3114 102.8 85.3114C105.467 87.645 105.646 92.2657 105.646 92.2657C105.646 92.2657 107.172 124.613 107.981 138.154C108.789 151.695 118.125 193.926 118.125 193.926C118.125 193.926 121.264 196.85 129.32 191.014C129.608 189.411 121.458 125.095 115.301 99.2697" stroke="#3D3D3C" stroke-width="0.8" stroke-linecap="round" stroke-linejoin="round"/>
<path d="M66.9553 180.816C78.8843 194.11 107.076 196.908 107.076 196.908C107.076 196.908 117.464 116.898 102.363 93.5476C102.363 93.5476 93.7236 85.4962 90.4069 85.648C85.1481 85.8887 82.7436 88.5841 82.7436 88.5841C75.2013 125.775 99.2084 131.597 66.9553 180.816Z" fill="white"/>
<mask id="mask19_43_1710" style="mask-type:alpha" maskUnits="userSpaceOnUse" x="66" y="85" width="45" height="112">
<path fill-rule="evenodd" clip-rule="evenodd" d="M66.9553 180.816C78.8843 194.11 107.076 196.908 107.076 196.908C107.076 196.908 117.464 116.898 102.363 93.5476C102.363 93.5476 93.7236 85.4962 90.4069 85.648C85.1481 85.8887 82.7436 88.5841 82.7436 88.5841C75.2013 125.775 99.2084 131.597 66.9553 180.816Z" fill="white"/>
</mask>
<g mask="url(#mask19_43_1710)">
<path d="M86.8132 108.63C96.4337 106.36 78.8333 125.468 80.2537 144.448C81.2999 158.428 73.0242 120.602 73.0242 120.602L80.7112 97.175" fill="#CFCFD0"/>
</g>
<path fill-rule="evenodd" clip-rule="evenodd" d="M66.9553 180.816C78.8843 194.11 107.076 196.908 107.076 196.908C107.076 196.908 117.464 116.898 102.363 93.5476C102.363 93.5476 93.7236 85.4962 90.4069 85.648C85.1481 85.8887 82.7436 88.5841 82.7436 88.5841C75.2013 125.775 99.2084 131.597 66.9553 180.816Z" stroke="#3D3D3C" stroke-width="0.8" stroke-linecap="round" stroke-linejoin="round"/>
<path d="M101.73 83.9954C101.73 83.9954 103.005 88.5841 104.181 93.6624C104.181 93.6624 107.333 112.314 108.545 117.261L110.878 99.9981L106.849 93.1034L109.112 90.9636L104.954 85.648C104.954 85.648 103.645 84.2601 101.73 83.9954Z" fill="white" stroke="#3D3D3C" stroke-width="0.8" stroke-linecap="round" stroke-linejoin="round"/>
<ellipse cx="108.977" cy="124.544" rx="1.46996" ry="1.47436" fill="white" stroke="#3D3D3C" stroke-width="0.8" stroke-linecap="round" stroke-linejoin="round"/>
<ellipse cx="109.839" cy="140.433" rx="1.46996" ry="1.47436" fill="white" stroke="#3D3D3C" stroke-width="0.8" stroke-linecap="round" stroke-linejoin="round"/>
<path d="M104.494 74.0625L105.456 76.2278C105.456 76.2278 100.976 80.9011 102.215 90.9636L91.1631 85.648L94.5417 74.0625H104.494Z" fill="white"/>
<mask id="mask20_43_1710" style="mask-type:alpha" maskUnits="userSpaceOnUse" x="91" y="74" width="15" height="17">
<path fill-rule="evenodd" clip-rule="evenodd" d="M104.494 74.0625L105.456 76.2278C105.456 76.2278 100.976 80.9011 102.215 90.9636L91.1631 85.648L94.5417 74.0625H104.494Z" fill="white"/>
</mask>
<g mask="url(#mask20_43_1710)">
<path d="M98.3095 78.6374C103.116 80.1942 102.838 83.1213 104.667 84.7709C106.495 86.4206 107.186 77.939 107.186 77.939L104.633 74.9651L96.3968 76.5346L95.5732 78.5172" fill="#CFCFD0"/>
</g>
<path fill-rule="evenodd" clip-rule="evenodd" d="M104.494 74.0625L105.456 76.2278C105.456 76.2278 100.976 80.9011 102.215 90.9636L91.1631 85.648L94.5417 74.0625H104.494Z" stroke="#3D3D3C" stroke-width="0.8" stroke-linecap="round" stroke-linejoin="round"/>
<path d="M100.33 60.6179C100.33 60.6179 107.576 65.0805 107.596 75.4165C107.603 79.1455 93.4851 77.6855 93.4851 77.6855L93.0635 65.9431L94.2838 62.1486L100.33 60.6179Z" fill="white"/>
<mask id="mask21_43_1710" style="mask-type:alpha" maskUnits="userSpaceOnUse" x="93" y="60" width="15" height="18">
<path fill-rule="evenodd" clip-rule="evenodd" d="M100.33 60.6179C100.33 60.6179 107.576 65.0805 107.596 75.4165C107.603 79.1455 93.4851 77.6855 93.4851 77.6855L93.0635 65.9431L94.2838 62.1486L100.33 60.6179Z" fill="white"/>
</mask>
<g mask="url(#mask21_43_1710)">
<path d="M104.38 68.8577V68.8577C104.195 68.9243 103.992 68.9147 103.814 68.8311C103.637 68.7474 103.5 68.5966 103.434 68.4118L103.01 67.234C102.871 66.8492 103.07 66.4248 103.455 66.2851V66.2851C103.639 66.2185 103.843 66.228 104.02 66.3117C104.198 66.3953 104.334 66.5462 104.401 66.7309L104.824 67.9088C104.963 68.2935 104.764 68.718 104.38 68.8577Z" fill="#4F4F5B"/>
<path d="M102.993 64.6958C100.859 65.3621 100.706 66.4045 102.067 66.0752C103.428 65.7459 104.387 64.2605 102.993 64.6958Z" fill="#4F4F5B"/>
<ellipse opacity="0.27" cx="100.94" cy="70.0469" rx="2.34716" ry="2.35418" fill="#CFCFD0"/>
</g>
<path fill-rule="evenodd" clip-rule="evenodd" d="M100.33 60.6179C100.33 60.6179 107.576 65.0805 107.596 75.4165C107.603 79.1455 93.4851 77.6855 93.4851 77.6855L93.0635 65.9431L94.2838 62.1486L100.33 60.6179Z" stroke="#3D3D3C" stroke-width="0.8" stroke-linecap="round" stroke-linejoin="round"/>
<path d="M93.2127 74.2966L93.2419 73.9662L99.3163 76.3159C101.204 74.3998 100.603 72.1263 99.9581 70.7776L92.4742 70.0285L92.4146 69.7021L99.782 70.4316C99.6288 70.144 99.4554 69.8676 99.2631 69.6045C99.2631 69.6045 101.906 70.7674 106.02 67.5372C112.683 76.2063 104.364 79.3103 104.364 79.3103L98.6247 76.9177C98.7814 76.8012 98.9075 76.6793 99.0422 76.5588L93.2127 74.2966Z" fill="#8CE7DF" stroke="#3D3D3C" stroke-width="0.8" stroke-linecap="round" stroke-linejoin="round"/>
<path d="M80.2539 79.715C80.2539 79.715 92.5753 84.793 98.7992 82.8346C98.067 70.7168 101.362 69.1255 99.5314 65.6371C99.5314 65.6371 105.09 64.6578 105.456 62.1486C105.456 62.1486 103.755 53.4209 94.8104 59.0527C79.1896 59.9707 85.6846 72.2485 80.2539 79.715Z" fill="#4F4F5B" stroke="#3D3D3C" stroke-width="0.8" stroke-linecap="round" stroke-linejoin="round"/>
<path d="M91.4389 83.6459C91.4389 83.6459 89.7686 84.8348 89.8763 85.6455L95.3315 96.3231L100.302 93.8697L99.4918 101.619C99.4918 101.619 106.552 112.006 108.546 116.168C108.032 104.907 103.545 94.3001 102.8 93.5881C100.323 91.2192 97.0952 85.9808 91.4389 83.6459Z" fill="white" stroke="#3D3D3C" stroke-width="0.8" stroke-linecap="round" stroke-linejoin="round"/>
<path d="M83.5098 87.9158C81.081 88.6058 66.6493 114.177 66.6493 114.177C65.615 115.754 64.8613 117.498 64.4214 119.332L58.8657 142.492C58.8657 142.492 70.7629 148.909 73.8733 148.714L79.2077 123.422L89.4329 106.003" fill="white"/>
<mask id="mask22_43_1710" style="mask-type:alpha" maskUnits="userSpaceOnUse" x="58" y="87" width="32" height="62">
<path fill-rule="evenodd" clip-rule="evenodd" d="M83.5098 87.9158C81.081 88.6058 66.6493 114.177 66.6493 114.177C65.615 115.754 64.8613 117.498 64.4214 119.332L58.8657 142.492C58.8657 142.492 70.7629 148.909 73.8733 148.714L79.2077 123.422L89.4329 106.003" fill="white"/>
</mask>
<g mask="url(#mask22_43_1710)">
<path d="M57.926 131.464C62.4279 139.688 78.3452 141.907 78.3452 141.907Z" fill="white"/>
<path d="M57.926 131.464C62.4279 139.688 78.3452 141.907 78.3452 141.907" stroke="#3D3D3C" stroke-width="0.8" stroke-linecap="round" stroke-linejoin="round"/>
</g>
<path d="M83.5098 87.9158C81.081 88.6058 66.6493 114.177 66.6493 114.177C65.615 115.754 64.8613 117.498 64.4214 119.332L58.8657 142.492C58.8657 142.492 70.7629 148.909 73.8733 148.714L79.2077 123.422L89.4329 106.003" stroke="#3D3D3C" stroke-width="0.8" stroke-linecap="round" stroke-linejoin="round"/>
<path d="M86.455 142.917L82.2161 159.845L101.446 160.492L102.836 142.82L86.455 142.917V142.917Z" fill="white" stroke="#3D3D3C" stroke-width="0.8" stroke-linecap="round" stroke-linejoin="round"/>
<path d="M85.4171 142.135C85.3152 142.743 85.0051 147.401 85.0051 147.401L103.334 147.48L103.493 142.163L85.4171 142.135Z" fill="white" stroke="#3D3D3C" stroke-width="0.8" stroke-linecap="round" stroke-linejoin="round"/>
</svg>
