<svg width="140" height="140" viewBox="0 0 140 140" fill="none" xmlns="http://www.w3.org/2000/svg">
<circle cx="70" cy="70" r="70" fill="#EEFCFA"/>
<circle cx="70" cy="70" r="39.5" fill="white" stroke="black"/>
<circle cx="70" cy="70" r="34" fill="#1B988D"/>
<path fill-rule="evenodd" clip-rule="evenodd" d="M75.4341 57.9992L75.4354 58.9737C79.0165 59.2544 81.382 61.6946 81.3859 65.4367L81.4 76.3902C81.4051 80.4701 78.8419 82.9805 74.7333 82.987L64.6974 83C60.6146 83.0052 58.0193 80.4351 58.0141 76.3434L58 65.5185C57.9949 61.7517 60.277 59.318 63.858 58.9893L63.8567 58.0148C63.8555 57.4431 64.279 57.013 64.8438 57.013C65.4085 57.0117 65.8321 57.4405 65.8334 58.0122L65.8347 58.9217L73.4588 58.9113L73.4575 58.0018C73.4562 57.4301 73.8798 57.0013 74.4445 57C74.9965 56.9987 75.4329 57.4275 75.4341 57.9992ZM59.9779 65.9201L79.4105 65.8941V65.4393C79.3553 62.6457 77.9537 61.18 75.438 60.9618L75.4393 61.9622C75.4393 62.521 75.0042 62.964 74.4523 62.964C73.8875 62.9653 73.4627 62.5236 73.4627 61.9648L73.4614 60.9124L65.8372 60.9228L65.8385 61.9739C65.8385 62.534 65.4162 62.9757 64.8515 62.9757C64.2867 62.977 63.8619 62.5366 63.8619 61.9765L63.8606 60.976C61.3577 61.2268 59.9728 62.6977 59.9767 65.516L59.9779 65.9201ZM73.9118 71.8256V71.8399C73.9246 72.4376 74.4123 72.8911 75.004 72.8781C75.5816 72.8638 76.0424 72.3687 76.0296 71.771C76.0026 71.1993 75.5393 70.7328 74.963 70.7341C74.3726 70.7471 73.9105 71.2279 73.9118 71.8256ZM74.9723 77.6597C74.3819 77.6467 73.9057 77.1542 73.9044 76.5565C73.8916 75.9588 74.3652 75.4638 74.9556 75.4495H74.9684C75.5717 75.4495 76.0607 75.9419 76.0607 76.5526C76.062 77.1633 75.5743 77.6584 74.9723 77.6597ZM68.6242 71.8464C68.6498 72.4441 69.1389 72.9105 69.7293 72.8845C70.3069 72.8573 70.7677 72.3635 70.742 71.7658C70.7279 71.1811 70.253 70.7263 69.6754 70.7276C69.085 70.7536 68.6229 71.2487 68.6242 71.8464ZM69.7344 77.6012C69.1439 77.6272 68.6562 77.1607 68.6292 76.563C68.6292 75.9653 69.09 75.4715 69.6804 75.4443C70.258 75.443 70.7342 75.8977 70.7471 76.4811C70.774 77.0801 70.3119 77.5739 69.7344 77.6012ZM63.3359 71.8919C63.3616 72.4896 63.8506 72.9574 64.441 72.9301C65.0186 72.9041 65.4794 72.409 65.4525 71.8113C65.4396 71.2266 64.9647 70.7719 64.3859 70.7732C63.7954 70.7992 63.3347 71.2942 63.3359 71.8919ZM64.446 77.6077C63.8556 77.6349 63.3679 77.1672 63.3409 76.5695C63.3396 75.9718 63.8017 75.4767 64.3921 75.4507C64.9697 75.4494 65.4459 75.9042 65.4587 76.4889C65.4857 77.0866 65.0249 77.5817 64.446 77.6077Z" fill="white"/>
</svg>
