<svg width="136" height="160" viewBox="0 0 136 160" fill="none" xmlns="http://www.w3.org/2000/svg">
<path fill-rule="evenodd" clip-rule="evenodd" d="M122.692 12.7203L122.335 12.5953L69.7006 0.196603C69.1924 0.078324 68.6734 0.0124456 68.1517 0H67.8492C67.3269 0.00379137 66.8069 0.0697907 66.3003 0.196603L13.6656 12.5953L13.3091 12.7203C5.54844 15.4398 0.332764 23.3657 0.332764 32.4546V93.1409C0.332764 103.804 4.01718 114.056 11.2797 123.592C16.7979 130.82 24.3986 137.654 33.8508 143.88C42.0747 149.283 50.2801 153.273 55.709 155.652C58.1834 156.743 60.604 157.728 62.9185 158.604C65.8553 159.714 66.6385 160 68.0803 160C69.1781 159.997 70.2611 159.746 71.2486 159.266C75.058 157.906 88.5323 152.825 102.15 143.862C111.62 137.636 119.202 130.82 124.72 123.573C131.983 114.038 135.667 103.804 135.667 93.1225V32.4546C135.667 23.3657 130.452 15.4398 122.692 12.7203V12.7203Z" fill="#EEFCFA"/>
<path d="M96.923 45.9254L96.7345 45.8593L68.8995 39.3025C68.6307 39.2399 68.3563 39.2051 68.0804 39.1985H67.9204C67.6442 39.2005 67.3692 39.2354 67.1013 39.3025L39.2663 45.8593L39.0778 45.9254C34.9737 47.3636 32.2154 51.5551 32.2154 56.3616V88.4546C32.2154 94.0936 34.1639 99.515 38.0045 104.558C40.9228 108.38 44.9423 111.995 49.9409 115.287C54.29 118.144 58.6293 120.254 61.5003 121.513C62.8088 122.09 64.0889 122.61 65.3129 123.074C66.866 123.66 67.2802 123.812 68.0427 123.812C68.6232 123.81 69.1959 123.678 69.7181 123.424C71.7327 122.705 78.8584 120.018 86.0601 115.278C91.0677 111.985 95.0776 108.38 97.9958 104.548C101.837 99.5057 103.785 94.0936 103.785 88.4449V56.3616C103.785 51.5551 101.027 47.3636 96.9231 45.9254L96.923 45.9254Z" fill="white" stroke="#3D3D3C" stroke-width="0.448435" stroke-linecap="round" stroke-linejoin="round"/>
<path d="M101.837 36.8699L101.616 36.7925L69.0521 29.1216C68.7377 29.0485 68.4166 29.0077 68.0939 29H67.9067C67.5836 29.0023 67.2619 29.0432 66.9484 29.1216L34.3841 36.7925L34.1636 36.8699C29.3622 38.5524 26.1353 43.456 26.1353 49.0792V86.6248C26.1353 93.2219 28.4148 99.5644 32.908 105.464C36.3221 109.936 41.0245 114.164 46.8724 118.016C51.9604 121.359 57.037 123.827 60.3957 125.3C61.9267 125.975 63.4242 126.584 64.8562 127.126C66.6731 127.812 67.1577 127.99 68.0497 127.99C68.7289 127.987 69.3989 127.832 70.0098 127.536C72.3667 126.694 80.7031 123.551 89.1283 118.005C94.9868 114.153 99.6779 109.936 103.092 105.453C107.585 99.5536 109.865 93.2219 109.865 86.6135V49.0792C109.865 43.456 106.638 38.5524 101.837 36.8699V36.8699Z" fill="#008083" stroke="#3D3D3C" stroke-width="0.448435" stroke-linecap="round" stroke-linejoin="round"/>
<path d="M101.837 39.8802L101.616 39.8029L69.0521 32.132C68.7377 32.0588 68.4166 32.0181 68.0939 32.0104H67.9067C67.5836 32.0127 67.2619 32.0536 66.9484 32.132L34.3841 39.8029L34.1636 39.8803C29.3622 41.5627 26.1353 46.4664 26.1353 52.0896V89.6352C26.1353 96.2323 28.4148 102.575 32.908 108.475C36.3221 112.947 41.0245 117.175 46.8724 121.027C51.9604 124.37 57.037 126.838 60.3957 128.31C61.9267 128.985 63.4242 129.594 64.8562 130.136C66.6731 130.823 67.1577 131 68.0497 131C68.7289 130.998 69.3989 130.843 70.0098 130.546C72.3667 129.704 80.7031 126.561 89.1283 121.016C94.9868 117.164 99.6779 112.947 103.092 108.463C107.585 102.564 109.865 96.2323 109.865 89.6239V52.0896C109.865 46.4664 106.638 41.5627 101.837 39.8803V39.8802Z" fill="white"/>
<mask id="mask0_43_1730" style="mask-type:alpha" maskUnits="userSpaceOnUse" x="26" y="32" width="84" height="99">
<path fill-rule="evenodd" clip-rule="evenodd" d="M101.837 39.8802L101.616 39.8029L69.0521 32.132C68.7377 32.0588 68.4166 32.0181 68.0939 32.0104H67.9067C67.5836 32.0127 67.2619 32.0536 66.9484 32.132L34.3841 39.8029L34.1636 39.8803C29.3622 41.5627 26.1353 46.4664 26.1353 52.0896V89.6352C26.1353 96.2323 28.4148 102.575 32.908 108.475C36.3221 112.947 41.0245 117.175 46.8724 121.027C51.9604 124.37 57.037 126.838 60.3957 128.31C61.9267 128.985 63.4242 129.594 64.8562 130.136C66.6731 130.823 67.1577 131 68.0497 131C68.7289 130.998 69.3989 130.843 70.0098 130.546C72.3667 129.704 80.7031 126.561 89.1283 121.016C94.9868 117.164 99.6779 112.947 103.092 108.463C107.585 102.564 109.865 96.2323 109.865 89.6239V52.0896C109.865 46.4664 106.638 41.5627 101.837 39.8803V39.8802Z" fill="white"/>
</mask>
<g mask="url(#mask0_43_1730)">
<path d="M19.9715 76.697C33.3412 112.407 64.7563 131.598 79.1398 133.909C93.5232 136.219 60.5067 143.447 60.5067 143.447L8.85704 108.56L12.126 84.3057" fill="#CFCFD0"/>
<path d="M61.1567 31.0617C106.692 43.236 109.94 42.2492 111.866 75.1057C113.791 107.962 117.06 61.306 117.06 61.306C117.06 61.306 101.951 29.0715 103.785 29.5819C105.618 30.0923 80.1205 27.7924 80.1205 27.7924L48.3326 29.5819" fill="#CFCFD0"/>
</g>
<path fill-rule="evenodd" clip-rule="evenodd" d="M101.837 39.8802L101.616 39.8029L69.0521 32.132C68.7377 32.0588 68.4166 32.0181 68.0939 32.0104H67.9067C67.5836 32.0127 67.2619 32.0536 66.9484 32.132L34.3841 39.8029L34.1636 39.8803C29.3622 41.5627 26.1353 46.4664 26.1353 52.0896V89.6352C26.1353 96.2323 28.4148 102.575 32.908 108.475C36.3221 112.947 41.0245 117.175 46.8724 121.027C51.9604 124.37 57.037 126.838 60.3957 128.31C61.9267 128.985 63.4242 129.594 64.8562 130.136C66.6731 130.823 67.1577 131 68.0497 131C68.7289 130.998 69.3989 130.843 70.0098 130.546C72.3667 129.704 80.7031 126.561 89.1283 121.016C94.9868 117.164 99.6779 112.947 103.092 108.463C107.585 102.564 109.865 96.2323 109.865 89.6239V52.0896C109.865 46.4664 106.638 41.5627 101.837 39.8803V39.8802Z" stroke="#3D3D3C" stroke-linecap="round" stroke-linejoin="round"/>
<path d="M96.923 45.9254L96.7345 45.8593L68.8995 39.3025C68.6307 39.2399 68.3563 39.2051 68.0804 39.1985H67.9204C67.6442 39.2005 67.3692 39.2354 67.1013 39.3025L39.2663 45.8593L39.0778 45.9254C34.9737 47.3636 32.2154 51.5551 32.2154 56.3616V88.4546C32.2154 94.0936 34.1639 99.515 38.0045 104.558C40.9228 108.38 44.9423 111.995 49.9409 115.287C54.29 118.144 58.6293 120.254 61.5003 121.513C62.8088 122.09 64.0889 122.61 65.3129 123.074C66.866 123.66 67.2802 123.812 68.0427 123.812C68.6232 123.81 69.1959 123.678 69.7181 123.424C71.7327 122.705 78.8584 120.018 86.0601 115.278C91.0677 111.985 95.0776 108.38 97.9958 104.548C101.837 99.5057 103.785 94.0936 103.785 88.4449V56.3616C103.785 51.5551 101.027 47.3636 96.9231 45.9254L96.923 45.9254Z" fill="white"/>
<path fill-rule="evenodd" clip-rule="evenodd" d="M96.923 45.9254L96.7345 45.8593L68.8995 39.3025C68.6307 39.2399 68.3563 39.2051 68.0804 39.1985H67.9204C67.6442 39.2005 67.3692 39.2354 67.1013 39.3025L39.2663 45.8593L39.0778 45.9254C34.9737 47.3636 32.2154 51.5551 32.2154 56.3616V88.4546C32.2154 94.0936 34.1639 99.515 38.0045 104.558C40.9228 108.38 44.9423 111.995 49.9409 115.287C54.29 118.144 58.6293 120.254 61.5003 121.513C62.8088 122.09 64.0889 122.61 65.3129 123.074C66.866 123.66 67.2802 123.812 68.0427 123.812C68.6232 123.81 69.1959 123.678 69.7181 123.424C71.7327 122.705 78.8584 120.018 86.0601 115.278C91.0677 111.985 95.0776 108.38 97.9958 104.548C101.837 99.5057 103.785 94.0936 103.785 88.4449V56.3616C103.785 51.5551 101.027 47.3636 96.9231 45.9254L96.923 45.9254Z" fill="#1B988D" stroke="#3D3D3C" stroke-linecap="round" stroke-linejoin="round"/>
<mask id="mask1_43_1730" style="mask-type:alpha" maskUnits="userSpaceOnUse" x="32" y="39" width="72" height="85">
<path fill-rule="evenodd" clip-rule="evenodd" d="M96.923 45.9254L96.7345 45.8593L68.8995 39.3025C68.6307 39.2399 68.3563 39.2051 68.0804 39.1985H67.9204C67.6442 39.2005 67.3692 39.2354 67.1013 39.3025L39.2663 45.8593L39.0778 45.9254C34.9737 47.3636 32.2154 51.5551 32.2154 56.3616V88.4546C32.2154 94.0936 34.1639 99.515 38.0045 104.558C40.9228 108.38 44.9423 111.995 49.9409 115.287C54.29 118.144 58.6293 120.254 61.5003 121.513C62.8088 122.09 64.0889 122.61 65.3129 123.074C66.866 123.66 67.2802 123.812 68.0427 123.812C68.6232 123.81 69.1959 123.678 69.7181 123.424C71.7327 122.705 78.8584 120.018 86.0601 115.278C91.0677 111.985 95.0776 108.38 97.9958 104.548C101.837 99.5057 103.785 94.0936 103.785 88.4449V56.3616C103.785 51.5551 101.027 47.3636 96.9231 45.9254L96.923 45.9254Z" fill="white"/>
</mask>
<g mask="url(#mask1_43_1730)">
</g>
<mask id="mask2_43_1730" style="mask-type:alpha" maskUnits="userSpaceOnUse" x="32" y="39" width="72" height="85">
<path fill-rule="evenodd" clip-rule="evenodd" d="M96.923 45.9254L96.7345 45.8593L68.8995 39.3025C68.6307 39.2399 68.3563 39.2051 68.0804 39.1985H67.9204C67.6442 39.2005 67.3692 39.2354 67.1013 39.3025L39.2663 45.8593L39.0778 45.9254C34.9737 47.3636 32.2154 51.5551 32.2154 56.3616V88.4546C32.2154 94.0936 34.1639 99.515 38.0045 104.558C40.9228 108.38 44.9423 111.995 49.9409 115.287C54.29 118.144 58.6293 120.254 61.5003 121.513C62.8088 122.09 64.0889 122.61 65.3129 123.074C66.866 123.66 67.2802 123.812 68.0427 123.812C68.6232 123.81 69.1959 123.678 69.7181 123.424C71.7327 122.705 78.8584 120.018 86.0601 115.278C91.0677 111.985 95.0776 108.38 97.9958 104.548C101.837 99.5057 103.785 94.0936 103.785 88.4449V56.3616C103.785 51.5551 101.027 47.3636 96.923 45.9254Z" fill="white"/>
</mask>
<g mask="url(#mask2_43_1730)">
<path d="M67.1014 39.3025C32.2155 56.3616 59.8529 120.771 84.4791 121.869C109.105 122.967 40.895 130.2 38.6843 128.707C36.4737 127.214 10.1647 52.4349 10.1647 52.4349L35.2267 28.3401L64.6474 27.2449" fill="#008175"/>
</g>
<path fill-rule="evenodd" clip-rule="evenodd" d="M82.512 71.3076C83.1629 71.9585 83.1629 73.0138 82.512 73.6646L64.1787 91.998C63.5278 92.6488 62.4726 92.6488 61.8217 91.998L53.4884 83.6646C52.8375 83.0138 52.8375 81.9585 53.4884 81.3076C54.1392 80.6567 55.1945 80.6567 55.8454 81.3076L63.0002 88.4624L80.155 71.3076C80.8059 70.6567 81.8612 70.6567 82.512 71.3076Z" fill="white" stroke="white" stroke-width="2" stroke-linecap="round" stroke-linejoin="round"/>
</svg>
