<svg width="16" height="16" viewBox="0 0 16 16" fill="none" xmlns="http://www.w3.org/2000/svg">
<circle cx="8" cy="8" r="8" fill="#FB4E4E" fill-opacity="0.2"/>
<path fill-rule="evenodd" clip-rule="evenodd" d="M5.71967 5.71967C6.01256 5.42678 6.48744 5.42678 6.78033 5.71967L8 6.93934L9.21967 5.71967C9.51256 5.42678 9.98744 5.42678 10.2803 5.71967C10.5732 6.01256 10.5732 6.48744 10.2803 6.78033L9.06066 8L10.2803 9.21967C10.5732 9.51256 10.5732 9.98744 10.2803 10.2803C9.98744 10.5732 9.51256 10.5732 9.21967 10.2803L8 9.06066L6.78033 10.2803C6.48744 10.5732 6.01256 10.5732 5.71967 10.2803C5.42678 9.98744 5.42678 9.51256 5.71967 9.21967L6.93934 8L5.71967 6.78033C5.42678 6.48744 5.42678 6.01256 5.71967 5.71967Z" fill="#FB4E4E"/>
</svg>
