<svg width="18" height="20" viewBox="0 0 18 20" fill="none" xmlns="http://www.w3.org/2000/svg">
<path fill-rule="evenodd" clip-rule="evenodd" d="M13.4109 0.768617L13.4119 1.51824C16.1665 1.73413 17.9862 3.61119 17.9891 6.48975L18 14.9155C18.0039 18.054 16.0322 19.985 12.8718 19.99L5.15188 20C2.01119 20.004 0.0148166 18.027 0.0108673 14.8795L6.64975e-06 6.55272C-0.00394266 3.65517 1.75153 1.78311 4.50617 1.53024L4.50518 0.780611C4.50419 0.340831 4.83001 0.00999726 5.26444 0.00999726C5.69886 0.00899776 6.02468 0.338832 6.02567 0.778612L6.02665 1.47826L11.8914 1.47027L11.8904 0.770616C11.8894 0.330836 12.2152 0.00100176 12.6496 2.26549e-06C13.0742 -0.000997234 13.4099 0.328837 13.4109 0.768617ZM1.52149 6.86161L16.4696 6.84162V6.49179C16.4272 4.34287 15.349 3.21543 13.4139 3.04752L13.4148 3.81713C13.4148 4.24692 13.0801 4.58775 12.6556 4.58775C12.2212 4.58874 11.8944 4.24892 11.8944 3.81913L11.8934 3.00954L6.02864 3.01753L6.02963 3.82613C6.02963 4.25691 5.7048 4.59674 5.27038 4.59674C4.83595 4.59774 4.50915 4.25891 4.50915 3.82813L4.50816 3.05851C2.58287 3.25142 1.51754 4.38285 1.52051 6.55076L1.52149 6.86161ZM12.2396 11.4043V11.4153C12.2495 11.8751 12.6247 12.2239 13.0799 12.2139C13.5242 12.2029 13.8786 11.8221 13.8687 11.3623C13.848 10.9225 13.4916 10.5637 13.0483 10.5647C12.5941 10.5747 12.2387 10.9445 12.2396 11.4043ZM13.0556 15.892C12.6014 15.8821 12.2351 15.5032 12.2341 15.0435C12.2242 14.5837 12.5886 14.2029 13.0427 14.1919H13.0526C13.5167 14.1919 13.8928 14.5707 13.8928 15.0405C13.8938 15.5102 13.5186 15.891 13.0556 15.892ZM8.1725 11.4203C8.19225 11.88 8.56842 12.2389 9.02259 12.2189C9.46689 12.1979 9.82134 11.8181 9.80159 11.3583C9.79073 10.9085 9.42542 10.5587 8.98112 10.5597C8.52695 10.5797 8.17151 10.9605 8.1725 11.4203ZM9.0261 15.847C8.57193 15.867 8.19675 15.5082 8.17601 15.0484C8.17601 14.5887 8.53047 14.2089 8.98464 14.1879C9.42893 14.1869 9.79523 14.5367 9.80511 14.9855C9.82584 15.4462 9.4704 15.826 9.0261 15.847ZM4.10449 11.4553C4.12423 11.9151 4.5004 12.2749 4.95457 12.2539C5.39887 12.2339 5.75332 11.8531 5.73259 11.3933C5.72272 10.9436 5.3574 10.5937 4.91212 10.5947C4.45795 10.6147 4.1035 10.9955 4.10449 11.4553ZM4.95853 15.852C4.50436 15.873 4.12917 15.5132 4.10844 15.0534C4.10745 14.5937 4.46289 14.2129 4.91706 14.1929C5.36136 14.1919 5.72766 14.5417 5.73753 14.9915C5.75827 15.4512 5.40381 15.8321 4.95853 15.852Z" fill="#D7D7D7"/>
</svg>
