<svg width="16" height="16" viewBox="0 0 16 16" fill="none" xmlns="http://www.w3.org/2000/svg">
<path d="M8 6.50085C6.66424 6.50085 5.5814 7.56408 5.5814 8.87564C5.5814 10.1872 6.66424 11.2504 8 11.2504C9.33576 11.2504 10.4186 10.1872 10.4186 8.87564C10.4186 7.56408 9.33576 6.50085 8 6.50085Z" fill="#1B988D"/>
<path fill-rule="evenodd" clip-rule="evenodd" d="M10.7164 1.01406C9.16723 -0.338019 6.83277 -0.338019 5.28362 1.01406L5.12305 1.15419C4.68238 1.53881 4.11327 1.75126 3.52367 1.75126C1.5776 1.75126 9.84834e-08 3.30028 9.84834e-08 5.2111V8.9087C-5.97842e-06 10.2507 -1.0812e-05 11.3026 0.0920768 12.1371C0.186051 12.9888 0.381264 13.6789 0.81723 14.2681C1.08116 14.6247 1.40063 14.9384 1.7639 15.1976C2.36395 15.6256 3.06675 15.8173 3.93412 15.9096C4.78407 16 5.85538 16 7.22207 16H8.77788C10.1446 16 11.2159 16 12.0659 15.9096C12.9333 15.8173 13.6361 15.6256 14.2361 15.1976C14.5994 14.9384 14.9188 14.6247 15.1828 14.2681C15.6187 13.6789 15.8139 12.9888 15.9079 12.1371C16 11.3026 16 10.2507 16 8.90877V5.2111C16 3.30028 14.4224 1.75126 12.4763 1.75126C11.8867 1.75126 11.3176 1.53881 10.8769 1.15419L10.7164 1.01406ZM4.46512 8.87564C4.46512 6.95874 6.04774 5.40479 8 5.40479C9.95226 5.40479 11.5349 6.95874 11.5349 8.87564C11.5349 10.7925 9.95226 12.3465 8 12.3465C6.04774 12.3465 4.46512 10.7925 4.46512 8.87564ZM12.4651 5.95285C12.0541 5.95285 11.7209 5.6257 11.7209 5.22215C11.7209 4.81859 12.0541 4.49144 12.4651 4.49144C12.8761 4.49144 13.2093 4.81859 13.2093 5.22215C13.2093 5.6257 12.8761 5.95285 12.4651 5.95285Z" fill="#1B988D"/>
</svg>
