<svg width="21" height="20" viewBox="0 0 21 20" fill="none" xmlns="http://www.w3.org/2000/svg">
<path fill-rule="evenodd" clip-rule="evenodd" d="M0.916504 10.015C0.916504 4.74712 5.1265 0 10.9365 0C16.6165 0 20.9165 4.65699 20.9165 9.98498C20.9165 16.1642 15.8765 20 10.9165 20C9.2765 20 7.4565 19.5593 5.9965 18.698C5.4865 18.3876 5.0565 18.1572 4.5065 18.3375L2.4865 18.9384C1.9765 19.0986 1.5165 18.698 1.6665 18.1572L2.3365 15.9139C2.4465 15.6034 2.4265 15.2729 2.2665 15.0125C1.4065 13.4301 0.916504 11.6975 0.916504 10.015ZM9.6165 10.015C9.6165 10.7261 10.1865 11.2969 10.8965 11.307C11.6065 11.307 12.1765 10.7261 12.1765 10.025C12.1765 9.31397 11.6065 8.74311 10.8965 8.74311C10.1965 8.7331 9.6165 9.31397 9.6165 10.015ZM14.2265 10.025C14.2265 10.7261 14.7965 11.307 15.5065 11.307C16.2165 11.307 16.7865 10.7261 16.7865 10.025C16.7865 9.31397 16.2165 8.74311 15.5065 8.74311C14.7965 8.74311 14.2265 9.31397 14.2265 10.025ZM6.2865 11.307C5.5865 11.307 5.0065 10.7261 5.0065 10.025C5.0065 9.31397 5.5765 8.74311 6.2865 8.74311C6.9965 8.74311 7.5665 9.31397 7.5665 10.025C7.5665 10.7261 6.9965 11.2969 6.2865 11.307Z" fill="#1B988D"/>
</svg>
