<svg width="16" height="16" viewBox="0 0 16 16" fill="none" xmlns="http://www.w3.org/2000/svg">
<path d="M16 8C16 12.4183 12.4183 16 8 16C3.58172 16 0 12.4183 0 8C0 3.58172 3.58172 0 8 0C12.4183 0 16 3.58172 16 8Z" fill="#D4F4E1"/>
<path fill-rule="evenodd" clip-rule="evenodd" d="M11.0303 5.96967C11.3232 6.26256 11.3232 6.73744 11.0303 7.03033L7.53033 10.5303C7.23744 10.8232 6.76256 10.8232 6.46967 10.5303L4.96967 9.03033C4.67678 8.73744 4.67678 8.26256 4.96967 7.96967C5.26256 7.67678 5.73744 7.67678 6.03033 7.96967L7 8.93934L9.96967 5.96967C10.2626 5.67678 10.7374 5.67678 11.0303 5.96967Z" fill="#2AC769"/>
</svg>
