<svg width="20" height="19" viewBox="0 0 20 19" fill="none" xmlns="http://www.w3.org/2000/svg">
<path fill-rule="evenodd" clip-rule="evenodd" d="M13.8495 -2.34334e-05C14.4805 -2.34334e-05 15.1105 0.0889766 15.7095 0.289977C19.4005 1.48998 20.7305 5.53998 19.6195 9.07998C18.9895 10.889 17.9595 12.54 16.6105 13.889C14.6795 15.759 12.5605 17.419 10.2795 18.849L10.0295 19L9.76953 18.839C7.48053 17.419 5.34953 15.759 3.40053 13.879C2.06053 12.53 1.02953 10.889 0.389528 9.07998C-0.740472 5.53998 0.589529 1.48998 4.32053 0.268977C4.61053 0.168977 4.90953 0.0989766 5.20953 0.0599766H5.32953C5.61053 0.0189766 5.88953 -2.34334e-05 6.16953 -2.34334e-05H6.27953C6.90953 0.0189766 7.51953 0.128977 8.11053 0.329977H8.16953C8.20953 0.348977 8.23953 0.369977 8.25953 0.388977C8.48053 0.459977 8.68953 0.539977 8.88953 0.649977L9.26953 0.819977C9.36135 0.868948 9.46441 0.943776 9.55349 1.00845C9.60992 1.04942 9.66074 1.08632 9.69953 1.10998C9.71585 1.1196 9.73243 1.12928 9.74915 1.13905C9.8349 1.1891 9.92421 1.24124 9.99953 1.29898C11.1105 0.449977 12.4595 -0.0100234 13.8495 -2.34334e-05Z" fill="#D7D7D7"/>
</svg>
