<svg width="23" height="16" viewBox="0 0 23 16" fill="none" xmlns="http://www.w3.org/2000/svg">
<path fill-rule="evenodd" clip-rule="evenodd" d="M15.7416 4.23285C15.7416 6.58254 13.8684 8.4666 11.5323 8.4666C9.19618 8.4666 7.32299 6.58254 7.32299 4.23285C7.32299 1.88227 9.19618 0 11.5323 0C13.8684 0 15.7416 1.88227 15.7416 4.23285ZM11.5323 16C8.1011 16 5.17134 15.456 5.17134 13.2802C5.17134 11.1034 8.08229 10.5396 11.5323 10.5396C14.9635 10.5396 17.8932 11.0836 17.8932 13.2604C17.8932 15.4362 14.9823 16 11.5323 16ZM17.5403 4.30922C17.5403 5.50703 17.1831 6.62288 16.5563 7.55051C16.4918 7.64597 16.5491 7.77476 16.6628 7.79457C16.8195 7.82159 16.9816 7.8369 17.1464 7.8414C18.7894 7.88463 20.2642 6.82102 20.6716 5.21974C21.2751 2.84123 19.5031 0.705896 17.2467 0.705896C17.0013 0.705896 16.7667 0.732013 16.5384 0.778845C16.507 0.78605 16.4739 0.800459 16.456 0.828378C16.4345 0.862601 16.4506 0.908532 16.4721 0.938252C17.1499 1.8938 17.5403 3.05918 17.5403 4.30922ZM20.2615 9.51257C21.3655 9.72962 22.0917 10.1727 22.3925 10.8166C22.6468 11.3453 22.6468 11.9586 22.3925 12.4864C21.9323 13.4851 20.4486 13.8058 19.872 13.8886C19.7529 13.9066 19.6571 13.8031 19.6696 13.6833C19.9642 10.9157 17.6209 9.60353 17.0147 9.30183C16.9888 9.28832 16.9834 9.2676 16.9861 9.255C16.9879 9.24599 16.9986 9.23158 17.0183 9.22888C18.3301 9.20456 19.7403 9.38468 20.2615 9.51257ZM6.02036 7.84131C6.18512 7.83681 6.34629 7.8224 6.50388 7.79448C6.61759 7.77467 6.6749 7.64588 6.61043 7.55042C5.98365 6.62279 5.62638 5.50694 5.62638 4.30913C5.62638 3.05909 6.01678 1.89371 6.6946 0.938162C6.71609 0.908442 6.73131 0.862511 6.71072 0.828288C6.69281 0.80127 6.65878 0.78596 6.62834 0.778755C6.39912 0.731923 6.16452 0.705806 5.91918 0.705806C3.66277 0.705806 1.89076 2.84114 2.49516 5.21965C2.90257 6.82093 4.3773 7.88454 6.02036 7.84131ZM6.18019 9.25446C6.18288 9.26796 6.1775 9.28778 6.15243 9.30219C5.54535 9.60389 3.20208 10.9161 3.49667 13.6827C3.5092 13.8034 3.41429 13.9061 3.2952 13.889C2.71856 13.8061 1.23488 13.4855 0.774644 12.4867C0.519455 11.9581 0.519455 11.3457 0.774644 10.817C1.0755 10.1731 1.80078 9.72998 2.90481 9.51203C3.42683 9.38504 4.83619 9.20492 6.14885 9.22924C6.16855 9.23194 6.1784 9.24635 6.18019 9.25446Z" fill="#1B988D"/>
</svg>
