<svg width="21" height="20" viewBox="0 0 21 20" fill="none" xmlns="http://www.w3.org/2000/svg">
<path fill-rule="evenodd" clip-rule="evenodd" d="M8.60528 0.735877C9.86668 -0.24521 11.633 -0.245212 12.8944 0.735876L19.4007 5.79629C20.2515 6.45808 20.7492 7.47564 20.7492 8.55358V16.507C20.7492 18.4361 19.1853 20.0001 17.2561 20.0001H4.2436C2.31441 20.0001 0.750488 18.4361 0.750488 16.507V8.55358C0.750488 7.47564 1.24816 6.45808 2.09903 5.79629L8.60528 0.735877ZM7.75004 14.0005C7.19779 14.0005 6.7501 14.4481 6.7501 15.0004C6.7501 15.5526 7.19779 16.0003 7.75004 16.0003H13.7496C14.3019 16.0003 14.7496 15.5526 14.7496 15.0004C14.7496 14.4481 14.3019 14.0005 13.7496 14.0005H7.75004Z" fill="#D7D7D7"/>
</svg>
