<svg width="12" height="13" viewBox="0 0 12 13" fill="none" xmlns="http://www.w3.org/2000/svg">
<path fill-rule="evenodd" clip-rule="evenodd" d="M1.28571 0.0712891C0.575634 0.0712891 0 0.646923 0 1.357V12.2856C0 12.6406 0.287816 12.9284 0.642857 12.9284H5.35714V10.357C5.35714 10.002 5.64496 9.71415 6 9.71415C6.35504 9.71415 6.64286 10.002 6.64286 10.357V12.9284H11.3571C11.7122 12.9284 12 12.6406 12 12.2856V1.357C12 0.646923 11.4244 0.0712891 10.7143 0.0712891H1.28571ZM6 1.57129C6.35504 1.57129 6.64286 1.85911 6.64286 2.21415V3.07129H7.5C7.85504 3.07129 8.14286 3.35911 8.14286 3.71415C8.14286 4.06919 7.85504 4.357 7.5 4.357H6.64286V5.21415C6.64286 5.56919 6.35504 5.857 6 5.857C5.64496 5.857 5.35714 5.56919 5.35714 5.21415V4.357H4.5C4.14496 4.357 3.85714 4.06919 3.85714 3.71415C3.85714 3.35911 4.14496 3.07129 4.5 3.07129H5.35714V2.21415C5.35714 1.85911 5.64496 1.57129 6 1.57129ZM3.42857 7.78557C3.42857 8.14061 3.14075 8.42843 2.78571 8.42843C2.43067 8.42843 2.14286 8.14061 2.14286 7.78557C2.14286 7.43053 2.43067 7.14272 2.78571 7.14272C3.14075 7.14272 3.42857 7.43053 3.42857 7.78557ZM2.78571 10.9999C3.14075 10.9999 3.42857 10.712 3.42857 10.357C3.42857 10.002 3.14075 9.71415 2.78571 9.71415C2.43067 9.71415 2.14286 10.002 2.14286 10.357C2.14286 10.712 2.43067 10.9999 2.78571 10.9999ZM9.85714 7.78557C9.85714 8.14061 9.56933 8.42843 9.21429 8.42843C8.85925 8.42843 8.57143 8.14061 8.57143 7.78557C8.57143 7.43053 8.85925 7.14272 9.21429 7.14272C9.56933 7.14272 9.85714 7.43053 9.85714 7.78557ZM9.21429 10.9999C9.56933 10.9999 9.85714 10.712 9.85714 10.357C9.85714 10.002 9.56933 9.71415 9.21429 9.71415C8.85925 9.71415 8.57143 10.002 8.57143 10.357C8.57143 10.712 8.85925 10.9999 9.21429 10.9999ZM6.64286 7.78557C6.64286 8.14061 6.35504 8.42843 6 8.42843C5.64496 8.42843 5.35714 8.14061 5.35714 7.78557C5.35714 7.43053 5.64496 7.14272 6 7.14272C6.35504 7.14272 6.64286 7.43053 6.64286 7.78557Z" fill="#BFBDBE"/>
</svg>
