<svg width="12" height="17" viewBox="0 0 12 17" fill="none" xmlns="http://www.w3.org/2000/svg">
<path d="M12 6.5C12 10.864 6.92313 15.991 6.70725 16.2071C6.51968 16.3946 6.26533 16.4999 6.00012 16.4999C5.73492 16.4999 5.48057 16.3946 5.293 16.2071C5.07688 15.9909 0 10.864 0 6.5C0 4.9087 0.632141 3.38258 1.75736 2.25736C2.88258 1.13214 4.4087 0.5 6 0.5C7.5913 0.5 9.11742 1.13214 10.2426 2.25736C11.3679 3.38258 12 4.9087 12 6.5ZM6 9.5C6.59334 9.5 7.17336 9.32405 7.66671 8.99441C8.16006 8.66477 8.54458 8.19623 8.77164 7.64805C8.9987 7.09987 9.05811 6.49667 8.94236 5.91473C8.8266 5.33279 8.54088 4.79824 8.12132 4.37868C7.70176 3.95912 7.16721 3.6734 6.58527 3.55764C6.00333 3.44189 5.40013 3.5013 4.85195 3.72836C4.30377 3.95542 3.83524 4.33994 3.50559 4.83329C3.17595 5.32664 3 5.90666 3 6.5C2.99998 6.89397 3.07757 7.28409 3.22833 7.64807C3.37909 8.01205 3.60006 8.34278 3.87864 8.62136C4.15722 8.89994 4.48795 9.12092 4.85193 9.27167C5.21591 9.42243 5.60603 9.50002 6 9.5Z" fill="#BFBDBE"/>
</svg>
