<svg width="12" height="15" viewBox="0 0 12 15" fill="none" xmlns="http://www.w3.org/2000/svg">
<path d="M3.55204 3.50113L5.38763 0.90029L4.88747 0.21507C4.84348 0.151515 4.78536 0.0990191 4.71767 0.0617035C4.64998 0.0243879 4.57457 0.00326779 4.49734 1.08228e-06H0.496057C0.404213 -0.000189949 0.31409 0.0249116 0.235569 0.0725535C0.157048 0.120195 0.0931616 0.188538 0.0509137 0.270088C0.0122151 0.349162 -0.00492644 0.437051 0.00122106 0.524872C0.00736855 0.612693 0.0365871 0.697336 0.0859248 0.770248L2.45168 4.14633C2.79451 3.89279 3.16338 3.6765 3.55204 3.50113Z" fill="#BFBDBE"/>
<path d="M11.9447 0.270088C11.9025 0.188538 11.8386 0.120195 11.7601 0.0725535C11.6816 0.0249116 11.5914 -0.000189949 11.4996 1.08228e-06H7.4983C7.41766 0.000133779 7.33825 0.0197606 7.26684 0.0572088C7.19543 0.094657 7.13413 0.148816 7.08817 0.21507L5.08752 3.07099C5.38878 3.02493 5.69306 3.00152 5.99782 3.00097C7.27436 2.99842 8.51778 3.40705 9.54396 4.16634L11.9097 0.785253C11.9619 0.71069 11.9927 0.623315 11.9988 0.532538C12.005 0.441761 11.9863 0.351021 11.9447 0.270088Z" fill="#BFBDBE"/>
<path d="M5.99782 4.00122C5.0086 4.00122 4.04159 4.29456 3.21908 4.84414C2.39657 5.39373 1.7555 6.17487 1.37694 7.0888C0.998383 8.00272 0.899334 9.00838 1.09232 9.97859C1.28531 10.9488 1.76167 11.84 2.46115 12.5395C3.16064 13.239 4.05184 13.7153 5.02206 13.9083C5.99228 14.1013 6.99793 14.0023 7.91186 13.6237C8.82578 13.2451 9.60692 12.6041 10.1565 11.7816C10.7061 10.9591 10.9994 9.99205 10.9994 9.00283C10.9994 7.67632 10.4725 6.40414 9.53449 5.46616C8.59651 4.52817 7.32433 4.00122 5.99782 4.00122ZM8.7137 8.57769L7.71338 9.548L7.94845 10.9184C7.96631 11.0122 7.95696 11.1091 7.92151 11.1978C7.88606 11.2864 7.82598 11.363 7.74839 11.4186C7.66257 11.4807 7.55924 11.514 7.45329 11.5136C7.3733 11.514 7.29441 11.4951 7.22322 11.4586L5.99782 10.7984L4.76743 11.4486C4.68792 11.4866 4.5998 11.5029 4.51197 11.4959C4.42414 11.4888 4.33973 11.4587 4.26727 11.4086C4.18967 11.353 4.1296 11.2764 4.09415 11.1878C4.0587 11.0991 4.04935 11.0022 4.0672 10.9084L4.30228 9.538L3.30196 8.56769C3.23599 8.50258 3.18942 8.42041 3.16743 8.33037C3.14544 8.24033 3.14891 8.14595 3.17744 8.05777C3.20597 7.96958 3.25845 7.89106 3.32901 7.83096C3.39957 7.77086 3.48544 7.73155 3.57705 7.71741L4.95249 7.51735L5.56769 6.27195C5.60864 6.18739 5.67259 6.11607 5.7522 6.06617C5.83181 6.01627 5.92387 5.9898 6.01783 5.9898C6.11179 5.9898 6.20385 6.01627 6.28346 6.06617C6.36307 6.11607 6.42702 6.18739 6.46798 6.27195L7.08317 7.51735L8.45861 7.71741C8.55022 7.73155 8.63609 7.77086 8.70665 7.83096C8.77722 7.89106 8.82969 7.96958 8.85822 8.05777C8.88675 8.14595 8.89022 8.24033 8.86823 8.33037C8.84624 8.42041 8.79967 8.50258 8.7337 8.56769L8.7137 8.57769Z" fill="#BFBDBE"/>
</svg>
