<svg width="18" height="21" viewBox="0 0 18 21" fill="none" xmlns="http://www.w3.org/2000/svg">
<path d="M8.91532 0.885119C8.25907 0.863409 7.60497 0.971169 6.99037 1.20225C6.37576 1.43333 5.81269 1.7832 5.3333 2.23188C4.85391 2.68057 4.46759 3.21929 4.19639 3.81728C3.9252 4.41527 3.77444 5.06081 3.75273 5.71706C3.73102 6.37331 3.83878 7.02742 4.06986 7.64202C4.30094 8.25662 4.65081 8.8197 5.0995 9.29909C5.54819 9.77848 6.0869 10.1648 6.68489 10.436C7.28288 10.7072 7.92843 10.8579 8.58468 10.8797C9.24093 10.9014 9.89503 10.7936 10.5096 10.5625C11.1242 10.3314 11.6873 9.98157 12.1667 9.53289C12.6461 9.0842 13.0324 8.54548 13.3036 7.94749C13.5748 7.34951 13.7256 6.70396 13.7473 6.04771C13.769 5.39146 13.6612 4.73736 13.4301 4.12275C13.1991 3.50815 12.8492 2.94508 12.4005 2.46568C11.9518 1.98629 11.4131 1.59997 10.8151 1.32878C10.2171 1.05759 9.57157 0.90683 8.91532 0.885119Z" fill="#D7D7D7"/>
<path d="M8.75 13.3824C6.89783 13.3824 5.08702 13.9304 3.54654 14.9573C2.00604 15.9844 0.804925 17.4444 0.0955396 19.1531C-0.0645997 19.5388 -0.0215082 19.9791 0.21039 20.3264C0.442288 20.6738 0.832349 20.8824 1.25001 20.8824L16.25 20.8824C16.6677 20.8824 17.0577 20.6738 17.2896 20.3264C17.5215 19.9791 17.5646 19.5388 17.4045 19.1531C16.6951 17.4444 15.494 15.9844 13.9535 14.9573C12.413 13.9304 10.6022 13.3824 8.75 13.3824Z" fill="#D7D7D7"/>
</svg>
