<svg width="21" height="20" viewBox="0 0 21 20" fill="none" xmlns="http://www.w3.org/2000/svg">
<path opacity="0.4" d="M11.2263 1.11361L13.4528 5.58789C13.6168 5.91205 13.9299 6.13717 14.291 6.18719L19.292 6.91556C19.5841 6.95658 19.8492 7.11066 20.0282 7.34578C20.2052 7.5779 20.2812 7.87205 20.2382 8.1612C20.2032 8.40132 20.0902 8.62343 19.9172 8.79352L16.2934 12.3063C16.0283 12.5514 15.9083 12.9146 15.9723 13.2698L16.8645 18.2083C16.9595 18.8046 16.5644 19.3669 15.9723 19.48C15.7283 19.519 15.4782 19.478 15.2582 19.3659L10.7972 17.0417C10.4661 16.8746 10.0751 16.8746 9.74398 17.0417L5.28303 19.3659C4.73491 19.657 4.05576 19.4589 3.7507 18.9187C3.63767 18.7036 3.59766 18.4584 3.63467 18.2193L4.52686 13.2798C4.59088 12.9256 4.46985 12.5604 4.20579 12.3153L0.582017 8.80452C0.150924 8.38831 0.137921 7.70296 0.55301 7.27175C0.562012 7.26274 0.572015 7.25274 0.582017 7.24273C0.754054 7.06764 0.980102 6.95658 1.22415 6.92757L6.22523 6.1982C6.58531 6.14717 6.89837 5.92406 7.06341 5.59789L9.20987 1.11361C9.40091 0.729419 9.797 0.490297 10.2271 0.500302H10.3611C10.7342 0.545325 11.0593 0.776443 11.2263 1.11361Z" fill="#1B988D"/>
<path d="M10.242 16.9171C10.0483 16.9231 9.8596 16.9752 9.68987 17.0682L5.25072 19.3871C4.70756 19.6464 4.05756 19.4452 3.75303 18.9258C3.64021 18.7136 3.59927 18.4704 3.63721 18.2322L4.52384 13.3032C4.58375 12.9449 4.46394 12.5806 4.20334 12.3284L0.577937 8.81848C0.147602 8.39713 0.139614 7.70556 0.560963 7.27421C0.566954 7.26821 0.571947 7.2632 0.577937 7.2582C0.749672 7.08806 0.97133 6.97597 1.20996 6.94094L6.21523 6.20433C6.57767 6.1583 6.89219 5.93211 7.05194 5.60384L9.22758 1.06312C9.43426 0.696818 9.83065 0.478639 10.25 0.501658C10.242 0.798902 10.242 16.715 10.242 16.9171Z" fill="#1B988D"/>
</svg>
