<svg width="12" height="13" viewBox="0 0 12 13" fill="none" xmlns="http://www.w3.org/2000/svg">
<path opacity="0.4" d="M12 6.5C12 9.8144 9.3138 12.5 6 12.5C2.6862 12.5 0 9.8144 0 6.5C0 3.1868 2.6862 0.5 6 0.5C9.3138 0.5 12 3.1868 12 6.5" fill="#727272"/>
<path d="M8.14411 8.78872C8.06551 8.78872 7.98631 8.76832 7.91371 8.72572L5.55811 7.32052C5.42251 7.23892 5.33911 7.09192 5.33911 6.93352V3.90532C5.33911 3.65692 5.54071 3.45532 5.78911 3.45532C6.03751 3.45532 6.23911 3.65692 6.23911 3.90532V6.67792L8.37511 7.95172C8.58811 8.07952 8.65831 8.35552 8.53111 8.56912C8.44651 8.71012 8.29711 8.78872 8.14411 8.78872" fill="white"/>
</svg>
